{"glyphs":{"0":{"ha":778,"x_min":28,"x_max":719,"o":"m 336 -2 q 317 10 332 0 q 277 16 300 16 l 273 16 q 233 14 263 16 q 203 49 229 20 q 169 87 192 75 q 144 99 144 94 q 127 130 140 99 q 96 207 96 180 q 94 239 95 212 l 95 239 q 81 253 95 242 q 71 288 79 253 q 68 296 71 288 q 58 292 67 296 q 54 326 58 292 q 42 377 48 368 q 28 437 29 392 l 28 443 q 37 575 28 469 q 43 627 41 595 q 73 722 52 671 q 85 739 73 729 q 92 770 92 754 l 94 771 q 103 768 98 768 q 123 792 117 768 q 122 801 123 792 q 149 846 121 833 q 193 873 186 869 l 184 880 l 163 872 l 178 883 q 213 920 195 911 q 260 949 231 938 q 342 966 305 966 q 361 964 359 964 q 394 977 380 972 l 397 972 q 440 952 414 972 q 442 951 441 951 q 456 954 463 964 q 494 924 477 954 q 511 932 509 925 l 522 925 q 538 912 532 925 q 579 873 559 884 q 587 865 587 869 q 591 846 589 849 q 617 828 616 833 q 665 757 648 787 q 692 667 691 669 q 705 642 705 654 q 714 580 714 613 l 714 551 q 719 533 718 546 l 719 525 q 712 396 719 496 q 693 311 702 326 q 671 258 684 292 q 654 229 665 246 q 631 179 643 210 l 596 165 l 596 165 q 600 152 598 163 q 578 113 600 136 q 524 58 548 77 q 504 41 506 44 l 504 41 q 487 49 499 41 l 483 49 q 456 27 471 49 q 454 21 455 22 q 431 23 441 23 q 391 11 418 23 q 336 -2 392 4 m 463 235 l 471 232 l 471 243 q 485 252 471 245 q 490 277 490 277 q 517 325 509 294 q 525 380 521 344 q 538 387 538 386 q 534 401 535 395 l 535 429 q 541 482 541 450 q 543 557 542 505 q 521 658 543 585 q 505 675 522 671 q 496 688 503 675 q 486 713 490 699 q 457 746 471 735 l 444 746 l 425 772 l 402 772 q 378 785 390 785 l 374 785 q 368 780 370 785 q 336 765 361 774 q 321 774 331 774 l 319 774 q 260 726 296 774 q 237 676 247 702 q 227 650 230 676 q 215 600 222 612 q 211 564 212 581 q 206 547 211 563 q 216 528 216 547 q 216 495 216 505 q 208 465 215 469 q 204 463 207 463 q 214 363 209 443 q 219 344 216 344 q 231 307 231 328 q 229 290 230 298 q 255 245 238 269 q 279 212 279 212 q 296 193 288 209 q 338 173 334 173 q 382 168 377 168 l 389 168 q 435 196 431 193 q 452 227 441 206 q 463 235 456 235 z "},"1":{"ha":427,"x_min":2,"x_max":358,"o":"m 298 998 l 306 962 l 305 919 q 308 901 307 919 q 309 899 309 901 l 309 882 q 313 865 309 873 q 314 859 314 862 l 314 827 q 315 814 313 824 l 315 779 q 317 770 315 777 q 311 739 317 766 q 311 722 311 729 q 313 709 311 717 l 311 703 l 313 696 l 313 692 l 310 673 q 310 635 309 660 q 307 630 310 630 l 305 630 q 303 618 304 629 q 303 570 304 587 q 302 544 303 563 q 309 534 302 534 l 316 534 q 317 532 317 534 q 310 524 317 527 q 305 476 308 524 q 306 474 306 475 l 311 475 l 312 473 l 312 465 q 306 445 307 460 l 306 443 q 304 441 306 441 q 302 444 304 442 l 301 444 q 302 437 302 442 q 301 418 301 425 q 305 412 301 416 l 305 372 q 309 361 304 369 q 310 356 310 359 l 310 351 q 309 332 310 344 q 310 330 310 330 q 303 319 303 328 q 309 290 303 303 q 309 285 309 287 q 307 197 309 268 q 307 164 307 169 q 305 130 305 146 q 306 123 306 123 l 308 124 q 311 96 311 117 l 306 94 q 304 80 304 87 q 315 73 304 76 l 315 69 q 315 45 315 56 l 315 43 q 333 16 316 32 q 358 -6 351 5 q 356 -7 357 -7 q 298 -1 315 -1 l 281 -1 q 228 8 228 -1 q 215 11 228 11 l 197 8 l 192 8 q 187 1 187 8 l 186 1 l 183 1 q 164 -2 180 1 l 163 -2 q 109 -3 142 -2 q 98 3 106 -3 l 58 3 q 56 5 56 3 q 66 14 62 14 q 92 46 80 22 q 104 78 103 59 q 113 95 106 85 q 118 134 118 113 l 118 134 q 113 146 118 138 l 113 149 q 119 186 113 154 q 110 202 119 189 q 109 208 109 205 q 114 230 114 225 l 114 233 l 110 269 q 110 307 111 282 q 113 313 111 313 q 119 311 115 313 q 122 327 121 311 q 117 430 123 385 l 117 439 q 133 447 117 444 q 134 448 133 448 q 121 455 134 451 q 116 475 117 455 q 121 553 119 505 q 119 564 121 557 q 121 577 121 571 l 121 582 q 111 587 121 585 q 109 590 111 588 q 126 618 126 614 q 124 619 125 619 q 117 616 119 616 q 116 617 116 616 l 116 620 q 121 631 116 623 l 121 633 q 116 732 121 678 q 101 717 112 729 q 77 695 92 712 q 59 677 73 689 q 47 669 56 677 q 23 644 40 668 q 12 638 14 640 q 9 645 10 638 q 12 665 12 662 q 7 686 7 672 l 8 692 q 11 699 9 694 q 5 709 11 701 q 3 738 2 729 l 3 740 q 16 751 6 744 q 24 760 18 760 q 30 754 30 757 l 31 754 q 39 773 34 754 l 52 790 l 83 818 q 90 812 87 817 l 91 812 q 102 831 98 812 q 109 848 106 844 l 111 848 l 113 847 q 123 857 115 847 q 141 868 131 860 l 142 868 l 143 867 q 163 882 154 873 q 176 897 176 893 q 188 913 184 913 q 189 910 189 911 l 191 911 l 191 911 l 195 910 q 225 939 214 932 l 259 960 q 270 968 265 967 q 279 956 277 956 q 281 972 280 962 l 281 979 q 298 998 291 987 z "},"2":{"ha":787,"x_min":0,"x_max":729,"o":"m 398 975 q 408 961 407 961 q 435 967 429 962 q 444 972 436 970 q 449 972 448 972 q 553 955 496 972 q 561 944 561 950 q 557 937 560 940 l 557 936 q 562 934 558 934 l 581 938 q 612 932 604 936 q 680 889 652 911 q 691 869 684 889 l 691 868 q 689 867 690 867 q 669 871 671 871 q 686 843 681 845 q 696 808 689 837 q 707 789 707 791 q 718 713 713 740 q 718 703 718 709 l 718 690 q 692 595 718 661 q 677 570 686 581 l 675 570 q 665 574 666 574 q 652 541 660 574 q 627 520 650 535 q 565 450 616 503 q 555 436 555 448 q 520 397 555 422 q 505 391 509 391 l 504 391 l 503 391 q 487 366 493 385 q 475 335 481 342 q 466 328 472 330 q 465 326 465 326 l 467 315 q 457 307 467 312 q 409 258 423 277 q 343 176 343 182 q 321 158 343 170 l 321 156 q 336 155 328 155 q 463 160 345 155 q 490 154 490 159 l 489 151 l 492 151 q 518 146 498 151 q 533 148 533 147 q 541 139 538 148 l 541 138 q 659 153 631 148 q 692 167 686 159 q 713 189 701 173 q 727 195 720 195 l 728 194 l 728 192 q 727 186 728 189 l 729 180 q 717 134 726 155 q 718 104 718 113 q 704 86 716 104 q 698 53 698 83 q 685 3 685 18 l 684 2 l 650 7 l 650 7 q 611 2 644 7 q 578 1 606 2 l 509 3 l 449 1 q 448 3 448 3 q 449 12 449 9 l 437 12 l 433 12 l 433 7 q 431 6 433 6 q 407 14 416 9 q 397 17 403 17 q 354 12 363 12 l 313 12 q 293 19 304 19 l 285 19 q 269 16 269 19 q 274 13 274 14 q 264 9 267 9 l 264 9 q 250 16 261 9 l 244 16 l 220 12 q 193 10 195 10 l 149 10 l 148 9 l 147 11 q 168 25 151 14 l 168 26 l 167 26 q 144 20 151 26 q 127 13 132 13 l 115 14 q 53 5 71 5 q 37 0 46 1 q 0 12 0 6 q 24 28 1 12 q 50 54 42 37 q 66 70 54 70 q 71 71 66 71 l 72 71 l 72 73 q 81 89 72 85 q 94 98 87 89 q 119 130 102 110 q 119 146 119 142 l 119 146 l 117 153 q 136 170 118 158 q 157 201 146 174 q 174 236 160 220 q 200 256 178 239 q 210 283 203 261 q 234 311 214 292 q 262 357 262 338 q 288 394 265 370 q 309 424 309 418 q 342 463 331 453 l 344 463 q 347 461 346 461 l 349 461 q 360 474 357 465 q 372 505 367 501 q 373 507 373 506 l 373 508 q 369 514 370 511 l 369 516 q 395 555 379 527 q 403 561 399 561 l 404 561 q 412 555 410 555 l 413 555 q 439 590 439 578 q 470 618 441 599 q 487 628 476 628 q 504 640 504 632 l 496 647 l 496 648 q 509 717 509 692 l 509 719 q 489 778 509 756 l 488 778 q 484 763 487 778 l 481 762 l 481 762 q 460 792 478 763 q 446 808 452 808 l 429 808 q 399 827 423 808 q 389 831 393 831 l 389 831 q 359 822 370 822 q 343 823 345 823 l 325 815 q 321 814 325 815 q 288 817 298 817 q 283 814 286 817 q 285 805 285 809 q 244 783 258 792 q 229 751 234 758 l 216 751 q 200 768 205 764 q 199 770 200 770 l 197 770 l 197 770 q 208 750 200 750 l 213 749 l 213 747 q 180 728 210 742 q 152 703 163 718 l 141 695 l 141 692 l 141 690 q 134 673 141 687 q 122 641 127 657 l 121 641 q 98 672 102 659 q 90 731 94 682 q 87 752 88 731 q 90 758 87 758 q 98 755 90 758 q 104 780 100 755 q 130 853 121 843 l 130 854 l 129 853 l 128 853 q 153 884 128 859 q 161 881 160 881 q 179 911 164 883 q 243 956 222 951 q 269 964 243 957 q 274 974 272 973 l 277 974 q 304 969 280 974 q 393 974 336 972 q 398 975 393 975 z "},"3":{"ha":729,"x_min":0,"x_max":656,"o":"m 234 972 l 235 972 q 250 962 243 964 l 253 962 q 255 966 253 966 q 258 962 256 966 l 258 961 l 257 959 l 257 958 q 263 960 262 960 q 262 965 263 960 q 266 966 264 966 q 271 963 269 966 q 280 967 280 966 q 313 965 300 966 q 323 970 321 970 q 324 966 324 968 l 326 966 l 330 970 l 334 966 l 336 966 q 341 968 338 968 q 343 966 342 968 l 341 964 q 342 962 342 964 q 370 964 353 964 q 371 963 370 963 q 379 966 376 966 l 385 962 q 386 960 386 962 q 393 963 387 960 l 397 958 q 411 963 410 963 l 412 961 l 412 960 q 410 954 412 959 l 416 950 q 428 962 424 950 q 443 967 430 965 q 449 964 443 965 l 456 964 q 559 897 518 964 q 574 893 559 895 q 584 886 584 892 l 584 882 q 583 869 583 873 l 583 866 q 594 859 587 859 q 600 863 594 862 l 602 863 q 615 842 615 844 q 614 831 614 835 q 622 800 622 812 l 622 790 q 626 748 626 764 l 626 746 l 627 744 q 616 686 621 686 q 608 672 609 677 q 611 661 611 662 l 611 659 q 605 650 611 655 q 591 621 603 640 q 572 594 591 609 q 526 551 539 551 q 494 532 505 544 l 494 531 l 495 531 l 500 532 q 503 528 502 528 l 503 528 l 508 528 q 509 527 509 527 q 513 532 509 529 l 513 532 q 514 531 514 532 q 519 532 517 532 l 520 531 q 519 530 519 531 l 520 530 l 527 531 q 532 522 532 524 q 541 523 534 522 q 546 520 541 522 q 541 511 545 511 q 556 498 541 501 q 562 497 559 497 l 566 497 q 576 488 570 488 l 578 486 q 577 479 577 479 q 580 475 578 475 q 590 477 582 475 q 598 472 590 477 q 603 468 598 469 q 614 445 606 458 q 627 411 627 427 l 627 410 q 648 402 641 410 l 648 400 q 637 372 637 380 q 642 365 642 366 l 644 365 q 653 372 645 372 l 656 333 l 656 332 q 650 317 656 326 l 650 315 q 639 268 650 300 q 607 172 623 199 l 587 142 q 563 120 585 140 q 562 117 563 119 q 562 109 562 112 q 546 96 562 108 q 519 74 533 81 q 484 47 503 55 l 458 29 q 427 21 444 21 l 410 21 q 389 7 397 7 l 365 7 q 343 1 353 7 q 337 0 340 0 l 336 0 q 266 5 325 0 q 256 5 257 5 q 212 21 248 5 q 171 28 204 23 q 137 35 163 32 q 104 45 130 35 q 103 56 103 54 q 104 60 104 58 l 104 65 q 102 67 104 66 q 90 52 92 53 q 75 60 89 52 q 58 74 71 62 q 45 83 45 77 q 28 96 39 96 q 14 111 25 96 q 1 130 1 121 q 12 135 1 133 q 15 140 14 140 q 20 138 20 138 q 34 153 26 153 q 55 201 51 195 l 60 201 q 73 217 67 217 q 75 215 74 217 q 80 193 75 193 q 91 184 91 191 q 100 171 94 171 q 119 165 108 171 q 118 164 119 164 q 149 146 125 146 l 155 146 q 165 132 157 144 q 216 125 191 125 q 222 125 220 125 q 231 121 229 121 q 260 125 233 121 l 260 125 q 264 124 262 125 l 262 119 q 265 115 262 116 q 276 127 266 115 q 283 130 278 130 q 288 129 286 129 q 332 151 291 136 q 355 172 355 161 q 372 197 355 197 q 386 195 385 196 q 398 198 387 195 l 398 199 q 395 201 395 199 l 395 203 q 418 241 412 214 l 421 256 q 418 258 418 256 q 423 281 418 264 l 424 281 q 429 276 429 281 l 430 276 q 433 289 430 278 q 441 338 433 296 l 441 342 q 433 359 433 345 q 414 433 422 423 q 402 456 402 448 l 401 456 l 399 456 q 401 448 401 453 l 401 447 q 399 446 401 446 l 397 446 l 389 465 q 385 479 386 469 q 369 492 383 481 l 369 493 q 370 494 369 494 l 376 494 l 376 495 q 359 505 376 497 q 341 513 354 505 l 334 513 l 330 513 q 315 519 317 519 q 313 515 314 515 l 300 519 q 275 513 286 513 l 273 513 q 256 504 269 509 l 255 504 q 254 506 254 505 q 251 528 254 517 l 251 529 q 255 549 254 536 q 253 555 253 555 q 262 557 256 557 q 269 553 263 557 q 278 558 276 558 l 280 558 q 289 554 286 554 q 291 556 289 555 l 295 556 q 311 554 301 556 q 330 556 319 556 q 332 553 331 553 q 362 565 342 560 q 369 574 366 574 q 374 572 372 572 q 393 583 392 581 l 398 589 l 397 591 l 397 591 q 406 601 406 591 q 425 650 423 635 l 427 659 l 423 657 q 421 659 422 657 l 421 662 q 432 718 421 671 l 432 720 q 407 777 432 744 q 385 790 392 783 q 346 820 363 817 q 338 825 341 823 q 335 823 335 825 q 342 817 338 823 q 338 815 342 817 q 324 824 338 817 q 291 838 316 833 q 250 846 259 846 q 229 837 231 837 q 220 838 224 838 q 208 832 219 838 l 207 832 q 199 834 205 832 q 180 825 197 834 q 169 819 169 824 q 122 800 122 802 q 101 791 122 797 q 93 778 99 789 q 81 764 81 773 q 65 739 81 758 q 63 736 64 736 l 62 736 q 45 794 57 736 q 38 805 40 805 q 28 812 33 805 l 29 817 q 9 839 15 839 q 0 849 7 839 l 0 850 q 24 864 16 855 q 40 874 29 874 q 47 877 47 876 q 56 882 47 879 l 61 881 l 65 881 q 69 887 69 884 q 68 892 68 891 q 84 909 74 895 l 90 913 l 92 913 l 96 911 q 122 925 100 911 q 187 951 140 935 q 193 947 191 947 q 214 951 206 949 l 214 955 q 234 972 230 972 z "},"4":{"ha":836,"x_min":-28,"x_max":768,"o":"m 172 981 l 172 981 q 170 977 170 977 q 171 975 170 975 q 203 976 193 976 q 208 970 205 976 q 211 970 210 970 l 215 970 q 272 979 243 970 l 273 978 q 255 951 266 957 q 242 924 249 945 l 242 924 q 246 918 246 919 q 239 905 246 916 l 239 902 q 243 854 239 897 q 242 825 243 834 q 245 812 245 814 l 245 809 q 239 771 245 805 q 231 600 234 600 q 224 576 224 581 q 233 570 224 574 q 231 537 231 545 l 236 537 q 271 540 252 537 l 278 540 q 294 534 279 540 l 301 533 q 346 543 346 536 q 360 550 346 547 q 373 545 373 547 l 372 540 q 376 537 372 538 q 422 540 410 540 q 446 538 443 538 l 471 538 l 475 537 q 478 577 476 543 q 476 602 476 597 q 479 616 479 613 q 475 680 475 672 q 486 705 481 705 l 491 705 q 492 707 492 705 l 492 709 l 496 760 q 487 792 496 783 l 486 796 q 488 836 488 828 l 488 844 l 488 847 l 487 847 l 481 842 l 480 842 q 478 846 478 843 l 478 852 q 481 903 478 873 q 464 942 477 926 q 445 970 445 965 l 445 971 l 446 972 l 484 970 l 543 972 q 544 970 544 971 l 542 963 l 542 962 l 545 962 q 578 962 568 962 q 579 963 578 963 l 578 966 l 578 967 q 610 975 578 972 q 669 970 669 973 q 680 962 669 962 l 705 962 q 710 964 710 962 q 707 971 707 969 l 707 972 q 725 973 715 973 q 767 972 730 973 l 768 971 q 762 958 768 960 q 726 923 739 941 q 726 920 726 921 q 727 916 726 919 q 718 907 727 913 q 715 891 715 901 l 715 873 q 706 867 715 868 q 701 824 703 867 l 702 820 q 699 727 702 813 q 689 721 699 724 q 685 671 685 692 q 688 578 685 667 q 685 540 688 559 l 694 540 q 732 557 699 540 q 738 559 736 559 l 739 558 q 733 531 736 531 l 731 528 q 735 518 731 528 q 733 509 733 510 l 733 495 q 734 488 733 494 q 726 494 730 494 q 718 485 718 488 l 728 473 q 724 443 728 470 q 726 391 719 416 q 726 391 726 391 q 701 406 701 400 q 686 416 694 414 l 686 415 q 677 260 677 304 q 679 256 677 256 l 684 260 l 686 260 l 688 258 q 680 92 680 100 q 692 58 681 83 q 689 51 689 53 l 689 50 q 716 34 693 45 q 744 5 743 7 l 744 3 q 677 2 709 2 q 617 7 621 5 q 604 10 610 10 q 532 3 538 3 l 528 3 q 527 5 527 3 l 527 7 l 529 14 l 528 15 q 511 13 527 15 l 500 14 l 500 13 q 503 5 503 6 q 449 0 503 2 q 401 5 401 3 q 434 45 412 22 q 451 123 451 63 q 458 184 451 136 q 465 272 460 272 q 473 286 473 272 l 473 309 l 473 309 q 465 305 467 305 q 464 307 464 307 q 475 328 464 309 l 476 338 q 469 382 476 372 l 469 382 l 473 382 l 473 382 q 475 384 475 382 q 469 400 469 398 l 467 399 l 466 399 l 466 402 q 465 410 466 406 q 469 423 469 414 q 454 420 462 420 l 423 426 q 415 422 417 424 q 385 425 389 425 l 315 418 l 313 418 q 302 425 309 425 l 300 425 l 251 420 l 249 420 q 224 422 235 420 q 223 420 224 420 q 188 423 218 420 l 184 420 q 168 424 174 424 q 153 423 163 424 q 142 425 147 425 q 104 421 134 425 q 58 408 83 418 q 57 388 47 406 q 51 387 54 387 l 50 387 q 35 389 48 387 l 28 389 q 9 376 24 389 l 7 376 l 3 383 q -28 364 -17 376 l -28 364 l -28 366 q 28 460 -18 393 q 33 524 34 483 q 36 538 34 524 l 36 539 q 34 549 34 549 l 34 552 l 39 568 q 43 633 43 611 q 39 654 40 646 q 51 680 39 663 l 51 683 q 49 684 51 684 q 40 683 43 683 q 39 685 39 684 q 47 711 39 689 q 48 751 48 739 q 46 815 46 795 q 51 840 51 831 l 43 869 q 52 878 43 870 l 52 878 q 43 941 52 885 q 20 979 20 974 q 52 975 47 979 q 54 974 52 974 q 66 978 65 978 q 76 976 74 976 l 85 976 q 100 979 88 976 q 129 971 129 976 q 139 964 138 964 q 151 975 141 964 q 172 981 152 975 z "},"5":{"ha":732,"x_min":0,"x_max":673,"o":"m 671 1007 l 673 1006 q 658 970 673 1002 q 663 968 663 969 q 648 949 663 964 q 637 928 640 930 l 637 928 q 633 931 634 931 l 633 930 l 633 916 q 610 846 633 909 q 599 825 610 830 q 581 799 591 817 l 580 799 q 573 810 578 810 l 572 810 q 541 806 563 810 q 521 812 521 809 l 521 816 q 509 811 519 811 q 487 810 495 810 l 484 810 q 470 802 481 810 l 469 802 q 446 812 454 812 q 437 808 439 812 q 410 808 420 808 l 407 808 q 389 812 404 808 l 387 812 q 366 807 368 807 q 352 812 363 807 l 351 812 q 323 808 330 808 l 319 808 q 304 814 312 808 q 294 805 298 805 q 280 806 286 806 q 262 804 265 804 l 262 804 q 261 783 261 789 l 261 782 q 253 775 253 777 q 252 768 252 772 q 262 726 255 756 q 269 722 269 725 q 266 698 266 699 q 274 654 266 681 q 275 653 275 654 q 296 656 277 654 q 307 659 296 658 q 314 654 309 659 l 321 654 q 336 648 332 654 q 357 656 344 648 q 361 658 360 658 l 366 658 q 399 648 392 658 q 401 648 399 648 q 426 649 422 649 q 439 643 429 643 q 465 633 446 643 q 504 620 483 626 q 509 614 508 616 l 508 607 q 513 596 509 596 q 524 587 517 596 q 530 585 527 585 l 532 585 q 562 572 534 571 l 578 554 l 578 550 q 577 541 577 545 l 577 541 q 600 518 578 541 q 614 495 603 515 q 639 455 639 473 q 638 435 639 452 q 650 406 638 429 q 652 393 652 396 q 650 391 650 392 l 650 389 l 652 391 l 654 391 q 657 380 656 391 q 656 363 656 365 q 654 362 656 362 l 654 360 l 654 353 q 654 352 654 353 q 657 347 657 349 q 654 326 655 336 q 658 320 658 323 q 657 307 658 318 q 660 294 660 296 q 655 286 659 291 q 656 274 655 279 q 647 244 654 244 q 643 227 643 242 q 623 174 643 219 q 604 144 616 151 q 589 111 589 138 q 552 83 564 93 q 532 61 546 77 q 527 58 529 58 l 526 60 l 526 61 q 540 83 530 71 l 540 84 q 503 52 514 64 q 484 35 488 35 q 465 27 472 35 q 416 12 440 22 q 389 12 393 12 q 382 18 388 12 q 333 4 363 18 q 321 1 326 1 l 305 6 q 280 1 302 6 l 279 1 q 272 5 277 3 l 269 5 l 266 5 q 262 0 266 3 l 260 0 l 256 4 l 254 4 l 232 1 q 217 8 226 1 l 214 9 q 199 7 201 7 l 193 7 q 138 24 180 7 q 107 42 113 41 l 98 41 q 42 69 77 54 q 37 76 37 73 l 39 82 l 39 83 q 38 89 39 84 q 48 102 38 90 l 48 104 q 24 111 48 107 q 10 142 20 113 q 7 153 7 149 q 14 176 14 174 q 2 192 14 179 q 0 200 0 195 l 0 214 q 31 326 0 274 q 35 331 35 331 l 36 331 q 38 323 37 331 l 39 323 q 67 353 67 349 q 79 368 71 353 l 80 369 l 80 369 q 91 368 90 368 l 92 368 q 117 380 109 372 q 130 389 118 381 q 132 387 131 389 q 125 357 130 380 q 121 352 123 357 q 76 307 111 349 q 57 241 57 286 l 57 236 q 61 218 57 222 q 66 199 66 215 q 109 131 75 172 q 154 106 133 106 l 155 106 q 181 112 163 106 l 182 112 q 197 105 186 105 l 212 105 q 214 109 212 109 q 225 103 216 109 l 227 103 q 262 110 245 110 q 271 112 264 112 q 281 105 275 112 q 284 104 282 104 q 307 104 289 104 q 309 106 308 106 q 302 115 302 113 q 306 117 304 117 q 313 111 309 111 q 319 110 313 111 q 341 114 332 111 q 357 125 344 118 q 374 134 357 131 q 412 158 401 157 q 402 173 412 159 l 402 174 q 416 186 416 184 q 428 199 416 192 q 459 236 431 205 q 461 258 460 239 q 471 285 471 271 q 473 290 473 285 q 469 309 469 307 l 469 320 q 474 331 474 323 q 472 336 472 331 q 481 347 472 338 l 482 350 l 482 351 q 479 369 482 369 q 475 376 475 370 l 475 390 q 470 397 470 390 q 467 404 470 404 q 448 426 458 404 q 441 450 444 444 q 416 477 416 474 l 416 479 l 416 479 l 416 477 q 416 466 416 472 l 420 466 q 427 450 427 457 l 426 450 l 425 450 q 396 477 416 453 q 378 492 387 492 q 365 490 369 490 q 363 497 363 490 q 364 498 364 497 l 363 498 q 355 496 361 496 q 309 511 342 496 q 287 517 293 517 q 268 512 284 517 l 267 512 q 247 518 258 518 q 223 507 240 518 q 215 505 218 505 q 195 517 195 511 q 193 520 193 520 l 189 517 l 186 517 q 170 509 178 517 q 165 507 168 507 l 163 507 q 156 510 161 507 q 140 496 146 496 q 139 507 139 499 l 139 511 q 124 496 128 498 l 113 496 q 73 477 108 490 q 22 455 31 455 l 22 456 q 45 489 22 467 q 57 527 52 498 q 69 591 69 576 l 66 610 q 75 629 66 617 l 75 631 q 69 651 75 633 l 69 653 l 73 666 l 68 683 l 73 708 l 73 709 q 66 756 73 713 q 75 775 68 762 q 72 829 73 817 l 72 830 q 80 849 72 833 q 80 856 80 853 l 80 863 q 78 884 80 869 q 79 899 79 896 q 75 932 75 913 l 75 959 q 62 964 62 962 l 62 970 q 91 975 62 971 l 108 974 q 124 975 114 975 q 143 970 140 970 l 154 971 q 165 970 159 971 q 183 975 178 975 l 184 975 q 197 968 186 975 l 199 968 q 227 979 212 968 q 260 970 241 977 l 260 970 q 271 972 261 970 l 285 972 l 307 970 l 312 970 q 325 975 324 975 l 328 975 q 350 967 332 975 l 352 967 l 368 971 q 380 970 376 971 q 386 970 382 970 q 452 969 440 969 q 456 965 452 968 q 484 971 458 965 q 492 967 490 967 l 492 967 q 503 975 498 967 l 508 975 q 525 969 512 969 l 544 965 q 554 972 549 965 l 563 975 q 587 970 567 975 q 626 984 593 970 l 633 984 q 665 1004 637 984 q 671 1007 669 1007 z "},"6":{"ha":826,"x_min":0,"x_max":767,"o":"m 384 972 l 387 972 q 401 964 392 972 l 403 964 l 467 970 l 481 970 q 482 968 482 970 q 481 960 481 962 q 483 960 482 960 q 519 964 515 964 q 547 960 543 960 l 547 960 q 551 960 550 960 q 571 958 568 958 q 573 959 572 959 l 578 959 l 580 958 l 579 955 l 579 952 q 581 951 580 951 l 581 951 l 600 954 l 600 953 l 596 940 q 598 939 597 939 l 624 946 q 661 910 627 946 q 659 909 661 909 q 608 922 649 914 q 576 926 582 926 l 574 926 q 572 926 572 926 l 568 926 q 476 909 538 926 l 475 909 q 463 917 466 917 q 445 899 461 917 l 428 892 q 412 886 425 889 q 354 863 393 873 q 349 859 349 861 l 349 858 q 351 854 351 855 q 345 846 351 854 l 344 846 q 333 852 342 846 q 319 823 330 852 q 278 784 278 786 q 265 751 273 778 q 259 742 261 743 l 258 742 q 249 748 256 742 q 245 745 246 747 l 245 743 q 252 731 252 735 q 230 686 252 723 q 215 650 219 655 q 202 628 202 641 q 188 579 191 596 q 175 543 175 559 q 180 481 178 521 q 175 424 175 436 l 175 406 q 174 397 175 404 q 181 383 181 385 l 181 380 q 182 368 181 374 q 181 345 181 355 q 189 311 189 314 q 183 307 189 310 l 183 306 q 195 296 183 298 q 213 271 203 292 q 243 218 229 232 q 266 204 257 207 q 277 197 272 198 q 292 198 279 197 q 304 191 294 198 q 314 183 313 191 q 317 182 317 183 l 321 183 q 350 177 329 183 q 397 184 350 180 l 397 183 q 382 175 384 178 l 382 174 q 386 174 382 174 q 463 189 402 174 q 494 201 477 196 q 504 205 494 203 q 510 211 504 209 q 526 216 510 215 q 545 237 528 216 q 558 255 553 239 q 566 257 564 255 q 568 250 567 256 l 569 250 q 585 296 575 258 q 593 322 585 305 q 595 326 595 325 q 591 335 591 334 l 591 336 q 597 351 591 337 q 593 356 593 351 q 606 361 596 359 q 609 366 609 364 q 604 378 608 366 q 589 401 589 391 q 589 423 589 420 q 572 443 589 429 q 562 465 568 447 q 553 471 559 468 q 551 475 551 473 q 552 482 551 476 q 528 492 539 482 q 516 496 517 495 q 504 511 511 511 q 472 522 498 513 l 472 522 q 481 540 481 536 l 480 540 q 471 538 477 538 l 460 538 l 456 539 q 454 523 454 523 q 450 524 451 523 q 439 523 442 523 q 415 524 433 523 q 377 510 397 524 q 351 497 373 510 q 347 496 347 496 l 345 496 q 315 472 338 496 q 302 455 311 461 q 294 435 294 439 q 298 399 298 405 q 307 382 307 391 q 313 375 311 382 q 338 353 318 373 l 338 353 q 332 348 338 348 l 326 348 q 262 362 307 348 q 239 385 248 370 q 222 416 222 410 l 222 418 q 225 426 225 425 l 225 429 q 218 432 225 430 q 214 459 214 449 l 214 460 q 221 474 214 467 q 218 482 218 477 q 225 505 218 484 q 229 530 227 511 q 233 534 231 534 q 241 532 239 532 q 252 549 252 545 l 251 549 q 248 551 248 551 q 267 569 248 559 l 267 570 l 267 571 q 285 600 267 581 q 309 610 288 604 l 309 611 l 308 611 l 340 628 q 358 636 355 636 l 359 636 q 368 633 361 636 l 370 633 q 377 639 377 633 q 389 646 377 646 q 428 652 417 649 q 460 661 447 661 q 490 659 472 661 q 510 659 503 659 q 608 628 536 659 q 631 613 631 622 q 644 593 639 593 q 653 595 650 595 l 654 595 q 671 582 657 595 q 673 581 673 582 q 680 583 677 583 q 695 562 686 583 q 706 553 706 555 q 730 501 721 526 q 746 479 746 486 q 760 439 746 463 q 767 411 766 425 q 761 396 767 399 l 760 389 l 760 383 q 764 370 764 379 q 753 302 764 343 q 743 267 747 286 q 733 233 733 252 q 724 221 732 228 q 704 187 714 199 q 668 132 682 155 q 656 127 662 127 q 640 132 654 127 q 631 117 631 121 q 635 112 635 113 q 623 99 635 107 q 605 85 618 97 q 572 64 583 75 l 571 63 l 571 62 q 574 52 574 52 l 574 50 q 570 47 574 48 q 559 48 568 47 q 519 33 541 41 q 505 15 515 15 q 425 3 467 8 q 414 1 425 3 l 409 2 q 380 0 395 0 l 379 0 q 374 1 376 0 q 367 0 370 0 l 361 0 q 296 11 347 0 q 287 20 287 14 q 241 25 287 22 q 220 34 220 31 q 182 51 214 40 q 170 66 170 58 q 144 83 151 83 q 136 81 138 81 q 128 104 130 81 q 121 113 121 110 l 120 113 q 108 106 117 113 q 81 125 81 119 q 85 138 85 138 q 98 140 87 139 q 81 155 90 150 l 81 155 l 81 153 l 81 151 q 80 149 81 149 q 64 172 75 150 q 35 195 58 178 q 27 208 27 202 l 27 216 q 22 231 27 221 q 25 241 25 239 l 25 243 q 14 262 25 248 q 9 277 14 264 q 4 315 4 303 q 16 331 4 327 l 18 335 q 15 338 17 338 q 6 336 7 336 q 0 370 0 351 q 1 382 1 375 q 14 408 1 385 q 14 411 14 410 l 14 414 l 9 414 l 5 414 q 3 416 4 414 q 12 507 7 463 q 11 545 11 528 l 11 546 q 21 564 11 555 q 38 630 25 587 q 44 683 41 644 q 57 699 46 690 q 75 741 63 705 q 93 768 86 768 q 112 784 112 773 l 112 796 q 133 825 112 805 q 183 885 173 874 q 198 890 187 888 q 268 935 248 930 q 281 931 279 931 q 305 951 285 931 q 384 972 360 972 z "},"7":{"ha":694,"x_min":20,"x_max":762,"o":"m 519 981 q 543 977 543 981 q 554 969 543 970 q 566 970 558 969 q 641 969 625 969 q 679 970 646 969 q 696 968 686 968 l 699 968 q 734 978 706 968 q 761 980 754 980 l 762 979 q 709 943 759 976 l 686 920 q 664 895 664 907 q 642 865 664 886 q 628 831 636 854 q 606 788 622 812 q 582 713 595 766 q 549 639 574 693 q 543 628 549 630 q 542 625 542 627 l 542 604 q 532 590 534 601 l 498 524 q 467 454 493 524 q 444 396 444 399 l 444 395 q 446 391 446 391 l 446 390 q 425 337 446 385 q 401 264 410 288 q 365 172 373 195 q 352 153 353 159 l 357 143 l 357 142 q 340 100 357 137 q 332 49 340 85 l 332 47 q 353 -1 332 28 l 353 -4 l 305 -4 q 294 -5 301 -4 q 281 1 289 -5 q 275 1 278 1 l 250 -4 q 237 -5 245 -5 q 117 -9 202 -5 q 98 -4 104 -9 q 75 -3 90 -3 l 30 -3 q 20 0 20 -3 l 20 1 q 42 16 32 7 q 90 67 87 54 q 125 117 102 95 q 142 151 136 127 q 161 209 151 186 q 174 258 169 226 q 206 338 188 287 q 235 385 217 361 q 263 454 246 399 q 290 523 281 500 q 301 535 295 530 q 317 585 308 545 q 326 629 321 614 q 334 643 326 629 q 348 664 344 649 q 366 716 366 702 q 374 732 371 724 l 374 736 q 412 824 383 746 q 417 836 412 824 q 348 846 378 846 q 338 847 348 846 l 327 847 q 288 841 297 841 q 245 847 273 841 l 240 847 q 147 831 229 847 q 143 835 145 835 q 122 827 123 829 q 36 800 66 814 q 23 794 36 800 q 22 796 22 795 q 43 830 22 804 q 61 852 58 851 q 69 860 65 852 l 69 862 q 65 865 69 863 q 78 907 78 892 q 82 924 82 918 q 81 927 82 927 q 72 926 73 926 l 71 927 q 85 949 71 930 l 85 949 q 81 958 85 952 q 81 972 81 959 q 85 980 84 980 q 110 973 89 980 l 111 973 q 146 975 143 975 q 154 970 152 975 q 156 970 155 970 q 198 969 184 969 l 212 969 q 216 962 213 969 l 220 962 q 242 970 231 970 q 262 975 254 970 l 267 975 q 273 970 273 975 q 284 969 277 969 q 334 970 292 969 q 342 967 334 968 q 344 962 342 962 l 346 962 q 353 966 349 962 q 361 962 355 962 l 364 962 q 372 969 372 962 l 374 969 q 396 970 387 969 q 422 969 410 969 q 435 970 424 969 q 443 963 441 963 l 444 964 q 450 962 446 962 q 471 968 454 966 q 474 970 471 970 l 490 970 q 511 978 500 970 q 519 981 517 981 z "},"8":{"ha":762,"x_min":-6,"x_max":694,"o":"m 377 972 l 380 972 q 409 964 386 972 q 435 960 428 961 l 458 960 q 471 960 470 960 l 472 960 q 515 940 488 960 q 523 932 515 939 q 562 916 532 922 q 590 894 579 915 q 613 878 597 886 q 617 866 617 874 l 617 865 q 607 831 607 833 q 640 821 631 824 q 650 800 647 800 q 659 802 656 802 q 673 755 664 766 q 686 730 686 747 l 686 711 q 678 663 686 698 q 670 627 677 644 q 646 578 670 609 q 631 562 638 561 q 619 548 623 558 l 618 545 l 619 541 q 616 541 617 541 q 608 543 614 543 q 589 534 589 541 q 585 514 587 517 q 522 491 583 505 q 513 488 517 492 q 522 484 518 485 q 531 486 524 484 l 532 484 l 525 477 q 567 462 543 463 q 585 448 579 458 q 612 418 585 446 q 623 381 623 404 l 623 378 q 640 368 623 377 q 651 347 646 347 q 659 349 656 349 q 671 305 666 305 q 682 294 671 304 q 686 277 686 281 l 686 269 q 693 250 686 260 q 694 247 694 249 l 694 245 q 677 205 691 234 q 670 174 677 195 q 646 124 670 157 q 629 107 637 106 q 619 95 621 102 l 618 92 l 619 88 q 616 87 617 87 q 608 90 614 90 q 589 81 589 88 q 585 62 587 64 q 539 43 585 55 q 498 26 498 30 l 498 26 l 502 25 q 533 28 514 25 q 429 -5 467 -5 q 368 -9 408 -10 l 347 -8 q 311 -11 321 -12 l 308 -11 q 267 2 293 -10 l 262 3 q 252 1 262 3 l 250 2 q 216 17 233 3 q 216 20 216 18 q 183 20 194 20 q 163 34 175 20 q 125 52 140 47 q 118 66 121 54 q 75 89 102 67 q 53 110 66 99 q 44 119 53 110 l 54 149 q 37 132 52 149 l 29 149 q 20 168 22 159 q 4 186 4 176 q 1 194 3 191 q -2 208 -2 199 l -2 214 q -1 232 -2 220 q -6 241 -6 236 l -6 245 q 0 301 -3 265 q 10 336 5 332 q 23 364 12 348 q 41 385 37 373 q 66 408 41 387 q 85 431 81 422 q 119 436 92 433 l 121 438 q 119 444 119 439 l 119 446 q 136 462 119 456 q 166 479 151 473 q 169 481 166 481 l 169 482 q 138 500 141 500 q 119 516 119 503 q 106 523 119 520 q 68 548 90 529 q 48 568 68 549 q 43 572 48 569 q 35 590 43 575 q 22 614 35 594 q 10 627 22 620 q 2 646 5 629 q 1 647 1 646 l 1 649 q 10 663 1 651 q 12 669 12 667 q 0 683 12 671 q -6 694 -6 692 l -6 698 q 0 753 -3 719 q 10 789 5 789 q 24 818 10 800 q 43 842 31 819 q 75 869 67 859 l 85 884 q 118 890 91 886 q 121 890 118 890 q 118 897 118 894 l 118 899 q 143 920 118 905 q 180 939 159 932 q 218 956 216 956 l 220 956 q 236 950 228 950 q 265 964 252 949 q 268 964 266 964 q 274 963 271 963 l 283 962 q 327 968 322 964 q 377 972 327 970 m 258 832 l 252 833 l 252 833 q 248 826 252 826 q 238 821 238 826 q 230 808 236 808 q 212 788 215 799 q 205 759 206 768 q 183 730 194 749 q 195 725 194 727 l 195 724 q 191 700 191 711 q 196 652 194 652 q 219 610 214 610 q 231 607 221 609 q 243 595 231 605 q 253 583 245 589 q 275 570 269 570 l 286 570 q 302 556 298 559 l 324 555 q 348 548 338 548 q 354 551 353 547 q 376 567 372 567 q 392 555 378 567 q 399 552 397 552 q 450 575 424 555 l 468 597 q 475 602 468 600 q 484 631 479 608 q 490 652 490 635 q 496 665 492 659 q 488 671 488 665 l 488 671 q 505 692 505 686 q 494 702 505 696 q 489 706 489 705 q 496 709 489 707 q 483 769 492 717 q 469 790 471 774 q 471 799 469 793 l 456 814 l 424 840 q 409 848 418 840 q 366 861 376 861 q 354 865 356 861 l 354 866 q 358 871 355 871 l 358 872 l 357 872 q 281 851 315 863 q 258 832 268 831 m 261 380 l 258 380 l 252 381 l 252 376 q 239 372 252 374 q 229 357 239 359 q 210 335 210 345 q 206 314 206 322 l 206 313 q 193 311 206 313 l 193 309 q 193 308 193 309 q 183 297 183 302 q 193 279 184 293 l 193 279 q 191 257 191 267 q 198 210 192 213 q 219 176 215 176 q 233 172 221 174 q 245 161 233 170 q 275 138 245 153 l 287 138 q 304 125 296 130 l 324 125 q 352 117 342 118 q 359 121 354 117 q 386 126 367 123 q 402 121 400 121 q 453 140 428 125 q 475 163 468 155 q 481 168 475 166 q 490 195 484 172 q 497 216 497 199 q 502 226 498 217 q 494 230 494 226 q 507 241 494 231 q 511 246 511 245 q 495 262 511 252 l 495 262 q 502 267 495 264 q 491 313 498 273 q 486 323 490 322 q 475 339 475 330 l 475 345 l 476 349 l 462 362 q 428 387 435 380 q 420 389 427 387 l 401 384 q 398 386 398 385 q 400 397 400 396 l 400 398 q 378 405 400 399 l 329 410 l 326 410 q 285 398 315 406 q 269 382 283 398 q 261 380 263 380 z "},"9":{"ha":836,"x_min":0,"x_max":773,"o":"m 363 970 q 378 969 375 969 q 385 970 384 970 l 387 969 q 389 970 387 969 q 409 968 399 970 q 412 968 411 968 q 477 955 427 968 q 495 943 495 950 q 542 934 507 939 q 561 924 561 928 q 602 903 565 920 q 611 889 611 897 q 636 871 627 872 l 637 871 q 644 871 640 871 q 652 848 652 871 q 660 839 660 842 l 661 839 q 672 845 663 839 q 699 823 699 829 q 695 812 695 814 q 681 810 690 810 q 697 793 695 794 l 698 793 q 697 798 697 798 l 699 800 q 713 779 704 800 q 744 751 717 772 q 751 737 751 743 q 751 726 751 728 q 755 715 751 725 l 755 715 q 752 702 752 705 l 752 701 q 763 683 752 698 q 767 667 763 680 q 771 633 771 642 q 760 614 771 618 q 757 610 758 614 q 760 608 758 608 q 768 608 768 608 q 773 578 773 600 l 773 574 q 766 550 773 557 q 758 534 760 541 q 768 530 759 530 l 769 528 l 758 437 l 758 425 q 759 412 758 418 q 750 387 759 387 q 739 350 746 385 q 720 267 725 319 q 706 250 718 258 q 685 204 698 238 q 668 184 675 184 q 648 168 648 179 q 649 159 648 168 q 628 132 649 148 q 577 77 580 79 q 560 71 572 71 q 494 31 522 43 q 488 29 492 31 q 473 35 476 35 q 452 18 471 35 q 372 0 400 0 q 353 8 361 0 l 351 9 q 335 9 341 9 q 327 9 330 9 l 313 8 q 301 9 307 9 q 290 8 297 9 q 271 12 271 8 l 273 18 l 270 20 q 235 16 237 16 q 203 24 210 24 q 173 27 176 27 l 172 28 q 174 33 174 31 q 170 35 173 35 q 155 33 168 35 q 152 35 152 33 q 156 47 156 45 l 153 47 l 130 43 q 92 81 124 43 l 92 81 l 93 82 q 161 62 111 73 q 193 58 177 58 q 273 68 243 61 q 279 69 273 69 q 290 61 288 61 q 309 78 294 61 q 325 81 313 79 q 340 87 333 87 q 393 106 360 98 q 408 111 408 108 l 408 112 l 406 114 l 406 116 q 414 123 412 123 l 423 117 l 425 117 q 439 144 429 118 q 482 181 475 174 q 496 214 488 189 q 501 221 500 221 l 502 221 q 512 214 505 221 l 513 214 l 515 217 l 515 218 q 510 228 515 220 l 510 234 q 532 273 510 241 q 548 310 545 307 q 561 325 561 317 q 577 376 574 364 q 591 410 591 397 q 593 414 593 410 q 589 476 591 433 q 597 549 597 524 l 596 552 q 598 560 598 557 q 590 572 598 561 l 591 575 l 591 576 q 589 590 591 583 q 591 612 591 597 q 585 647 585 641 q 591 650 591 650 l 591 651 q 576 663 591 659 q 547 724 567 671 q 511 757 528 751 q 494 766 504 766 l 490 765 q 471 774 481 765 q 463 781 465 774 q 459 783 463 782 q 456 782 456 782 q 427 791 443 784 q 378 786 405 786 l 378 787 q 394 794 380 787 l 394 795 l 389 796 q 310 785 363 796 q 279 777 298 781 q 271 773 279 773 q 262 766 271 769 q 247 762 262 764 q 225 743 243 760 q 214 727 220 743 l 214 727 q 210 728 210 728 q 206 727 209 727 q 204 732 205 732 l 203 732 q 184 680 184 693 q 176 659 176 661 l 176 658 l 179 650 l 179 649 l 173 634 l 173 633 q 176 629 176 633 q 165 625 174 626 q 160 621 160 623 q 169 602 163 608 q 179 583 179 594 l 179 583 q 178 564 179 578 q 197 538 178 555 q 206 515 199 536 q 215 507 215 511 q 214 500 214 500 q 232 493 232 496 q 249 484 236 488 q 262 469 254 469 q 293 456 276 462 l 293 454 q 284 438 284 441 l 285 438 q 291 439 288 438 q 309 437 304 438 q 311 452 311 450 q 351 449 323 452 l 357 449 q 391 461 370 449 q 418 472 394 461 l 420 472 q 422 471 421 472 q 454 494 434 475 q 465 509 456 503 q 474 529 474 523 l 474 532 q 472 552 474 541 q 473 562 473 557 q 465 575 473 566 q 465 578 465 576 q 465 580 465 578 q 460 585 465 582 q 450 597 460 590 l 433 614 l 433 616 q 438 619 435 619 l 444 619 q 511 598 484 612 q 538 564 525 592 q 549 542 549 552 q 545 536 549 541 l 545 531 q 552 528 545 530 q 555 504 555 514 l 555 498 q 548 486 555 492 l 548 485 q 551 479 550 485 l 551 479 q 541 452 551 474 q 535 427 540 427 q 527 430 532 427 q 515 412 515 418 q 518 410 518 412 q 499 395 518 402 l 499 393 q 477 362 499 381 q 456 356 467 359 l 457 355 l 457 354 q 412 336 434 346 q 405 334 408 334 l 404 334 q 396 337 401 334 l 394 337 q 385 332 385 337 q 376 326 385 326 q 330 321 335 325 q 307 315 313 315 q 264 320 301 315 q 262 319 263 320 q 150 360 228 319 q 131 372 131 366 l 122 394 q 117 396 120 396 l 109 395 q 91 408 106 395 l 90 409 q 82 408 83 408 q 69 428 75 408 q 57 437 66 431 q 42 471 57 439 q 22 506 36 494 q 17 530 17 511 q 0 583 0 567 l 0 588 q 5 600 0 597 q 7 605 7 602 l 7 613 q 3 627 3 617 q 24 717 3 654 q 36 743 26 724 q 45 768 39 768 q 56 789 51 773 q 107 857 90 831 q 117 861 113 861 q 136 855 122 861 q 144 869 144 865 l 141 874 q 161 890 141 880 q 189 907 168 900 q 208 922 208 916 q 203 932 203 929 l 203 932 q 205 935 203 934 l 207 935 q 218 933 212 935 l 260 946 q 273 962 264 962 q 360 969 300 966 q 363 970 360 970 z "},"\u0000":{"ha":0,"x_min":0,"x_max":0,"o":""}," ":{"ha":345,"x_min":0,"x_max":0,"o":""},"-":{"ha":525,"x_min":0,"x_max":0,"o":""},"!":{"ha":488,"x_min":57,"x_max":376,"o":"m 58 295 l 58 295 l 57 295 l 57 295 l 58 295 m 197 286 q 198 290 197 288 q 205 326 205 316 l 203 371 q 205 400 205 385 q 205 403 205 401 l 205 404 q 201 479 205 441 q 210 486 210 486 l 210 488 q 206 496 210 491 l 201 494 l 199 495 q 199 564 199 519 l 197 564 q 191 529 195 564 l 189 529 l 188 533 l 188 534 q 194 586 188 543 q 191 607 191 600 l 191 610 q 184 653 191 629 l 182 655 q 177 725 189 707 q 167 895 170 859 l 167 895 l 170 895 l 170 896 q 168 900 170 898 q 163 922 163 900 l 163 934 q 160 991 163 951 q 157 993 158 991 q 157 1021 157 997 q 152 1048 153 1046 q 153 1049 153 1048 q 168 1047 159 1047 l 170 1047 l 180 1049 l 236 1050 l 267 1038 q 276 1048 267 1048 l 277 1048 l 276 1050 l 277 1051 l 289 1050 q 344 1046 298 1050 q 351 1047 348 1047 q 368 1053 351 1052 q 370 1052 368 1052 q 367 981 370 1006 l 376 985 q 366 943 372 981 l 366 942 q 357 930 366 930 q 365 924 357 928 q 356 815 365 920 q 339 801 339 802 q 341 800 339 800 q 347 801 342 800 l 351 801 q 355 800 353 801 q 351 740 353 756 q 344 728 344 735 q 351 698 351 715 l 345 692 q 344 690 345 690 l 342 690 q 334 551 339 562 l 332 509 l 332 505 q 326 496 332 496 q 327 458 326 481 q 323 431 327 450 q 326 410 326 412 l 326 409 q 323 407 324 407 q 325 368 323 375 q 324 364 324 368 q 326 332 326 336 l 326 326 l 329 316 l 323 311 l 322 311 q 329 288 326 291 l 329 287 q 317 291 321 287 q 275 307 285 304 q 267 303 275 307 q 257 308 262 308 l 254 308 q 239 307 249 308 q 223 297 234 307 q 222 300 222 297 l 220 300 q 199 286 205 286 l 197 286 m 315 313 l 315 313 l 315 313 l 315 313 l 315 313 m 227 136 q 216 139 224 136 q 214 140 216 139 q 211 144 213 140 l 209 151 l 208 151 l 208 150 q 204 160 204 157 l 204 163 l 203 165 l 203 165 l 203 169 q 203 170 203 170 l 203 171 q 205 178 203 175 q 208 185 207 182 q 210 189 208 187 q 214 192 212 191 q 216 199 215 197 q 219 205 216 203 q 229 214 222 208 q 238 220 233 218 q 242 220 239 220 l 243 220 q 253 224 243 220 q 268 226 264 225 q 274 227 272 227 l 275 227 q 281 224 277 227 l 285 224 q 287 225 285 224 l 294 222 q 297 222 296 222 l 299 222 q 310 217 302 222 q 311 214 311 216 q 313 213 311 213 l 315 214 q 318 212 315 214 q 322 211 321 211 q 328 207 325 208 q 339 192 339 196 q 338 186 339 191 l 338 186 l 341 186 q 343 183 341 184 q 345 178 345 180 q 345 176 345 176 q 347 170 345 174 l 347 170 q 345 168 345 168 l 345 165 l 345 164 l 345 151 q 345 149 345 150 l 345 147 l 345 145 q 343 139 345 144 l 343 136 q 340 123 343 134 q 339 122 340 122 l 338 123 l 337 123 q 338 120 338 121 q 334 106 338 118 q 329 98 334 102 l 328 98 l 328 98 q 324 98 327 98 q 323 98 323 98 q 325 96 323 97 q 321 87 325 92 q 311 77 317 83 q 308 75 309 76 l 309 74 l 309 73 q 302 69 306 71 l 300 69 q 297 67 299 69 q 293 65 294 65 q 288 68 290 67 q 286 66 287 66 l 285 66 q 287 64 287 64 q 283 63 287 63 l 273 63 q 269 60 271 63 q 269 60 269 60 q 271 59 271 60 q 267 58 269 58 l 254 58 q 250 58 252 58 q 247 60 248 58 q 246 60 246 60 l 246 58 l 245 58 q 239 59 243 58 q 236 60 237 59 q 228 65 229 64 l 227 65 l 228 66 l 228 66 q 221 68 226 67 q 212 73 214 70 q 205 79 212 74 q 197 85 201 83 q 198 87 198 85 q 192 98 198 89 l 191 99 l 191 98 l 191 98 q 187 106 189 106 q 184 111 187 106 q 181 119 181 117 l 181 121 q 180 126 180 124 l 180 127 l 180 129 q 180 137 180 133 q 186 163 180 150 q 189 168 187 165 q 190 171 189 169 q 196 178 192 177 q 191 163 191 170 q 190 151 190 159 q 191 143 190 150 q 195 130 192 141 l 195 129 l 196 132 q 200 121 198 124 q 203 117 201 120 l 205 114 l 205 115 l 209 112 q 219 106 215 108 l 221 106 l 221 106 l 220 106 q 232 104 220 104 l 237 104 q 237 104 237 104 q 239 102 238 102 q 242 104 239 102 l 243 105 l 244 104 q 248 105 247 104 q 253 108 250 106 q 256 109 254 109 l 258 109 q 258 111 258 109 l 259 111 l 260 110 q 265 115 260 110 q 269 120 269 118 q 268 123 269 121 q 272 127 272 125 q 274 130 272 127 q 277 137 275 132 q 278 144 277 144 l 280 146 q 279 148 280 147 l 279 153 q 279 155 279 155 q 278 156 278 155 q 279 161 279 159 q 279 165 279 162 q 278 166 279 166 l 275 165 q 272 170 275 168 l 271 170 q 269 172 271 170 q 267 174 267 173 l 268 176 l 265 176 q 261 178 264 178 q 257 179 258 179 q 255 178 256 179 q 252 180 254 180 l 251 180 q 244 182 250 180 q 242 182 243 182 q 237 180 241 182 l 237 180 q 235 182 235 180 l 234 182 l 232 180 l 232 180 l 229 178 q 227 169 228 176 l 227 166 q 229 158 228 158 l 233 151 q 235 149 234 149 l 236 149 q 239 144 237 149 l 239 144 l 239 144 q 241 144 240 144 l 242 144 q 241 143 242 144 l 243 143 q 250 141 246 141 q 255 142 253 141 q 258 144 256 143 l 258 144 q 253 135 254 136 l 252 136 q 247 134 248 134 l 245 133 q 242 134 243 134 q 240 134 241 134 q 227 136 237 134 z "},"\"":{"ha":379,"x_min":119,"x_max":376,"o":"m 125 1010 q 145 1006 127 1013 q 154 1009 151 1013 q 156 1011 155 1010 q 162 1013 157 1013 q 179 1017 170 1013 q 182 1006 179 1007 l 184 1010 q 186 1006 184 1002 q 188 1010 186 1008 q 193 1015 191 1020 q 203 1008 199 1010 q 206 1008 205 1007 l 206 1008 q 210 1013 206 1008 q 218 1015 211 1014 q 215 1005 220 1014 q 207 979 210 992 q 200 942 201 945 l 200 928 q 196 915 200 922 q 193 905 196 915 q 187 879 188 889 q 184 861 186 863 q 181 853 183 858 q 180 838 180 844 q 177 835 176 838 q 178 827 178 829 q 174 823 178 823 l 176 821 q 166 819 174 818 q 155 818 162 814 q 152 817 153 817 l 145 818 q 146 838 146 823 q 144 851 146 846 q 143 866 144 857 q 138 886 142 871 q 131 926 136 905 l 126 930 q 126 955 130 931 q 123 989 125 969 q 119 1010 119 994 q 125 1010 125 1009 m 281 1010 q 301 1006 283 1013 q 310 1009 307 1013 q 312 1011 311 1010 q 318 1013 313 1013 q 335 1017 326 1013 q 338 1006 335 1007 l 340 1010 q 342 1006 340 1002 q 344 1010 342 1008 q 349 1015 347 1020 q 359 1008 355 1010 q 362 1008 361 1007 l 362 1008 q 366 1013 362 1008 q 374 1015 367 1014 q 371 1005 376 1014 q 363 979 366 992 q 356 942 357 945 l 356 928 q 352 915 356 922 q 349 905 352 915 q 343 879 344 889 q 340 861 342 863 q 337 853 339 858 q 336 838 336 844 q 333 835 332 838 q 334 827 334 829 q 330 823 334 823 l 332 821 q 322 819 330 818 q 311 818 318 814 q 308 817 309 817 l 301 818 q 302 838 302 823 q 300 851 302 846 q 299 866 300 857 q 294 886 298 871 q 287 926 292 905 l 282 930 q 282 955 286 931 q 279 989 281 969 q 275 1010 275 994 q 281 1010 281 1009 z "},"#":{"ha":1202,"x_min":10,"x_max":993,"o":"m 370 871 q 389 882 371 875 l 392 882 q 436 884 411 888 q 492 879 485 877 l 494 880 q 498 882 496 880 l 499 882 l 500 882 q 486 810 494 834 q 483 798 484 803 q 471 748 478 775 l 469 741 q 465 731 467 735 q 451 705 453 709 l 450 701 q 448 691 448 695 q 448 671 450 675 q 416 562 443 651 q 408 528 409 535 q 396 498 397 502 l 395 491 q 393 486 394 490 q 386 466 388 472 l 385 463 q 387 456 385 460 q 390 434 393 443 q 376 393 386 418 l 374 386 q 368 367 370 372 q 355 309 363 333 l 355 304 q 337 248 348 283 q 331 222 334 231 q 321 176 324 184 l 319 170 q 301 119 302 123 q 294 94 298 111 q 283 57 286 68 l 283 55 q 275 26 276 29 l 273 17 q 270 -1 271 8 q 268 -3 269 -3 q 253 3 260 -3 q 224 3 232 2 q 213 10 219 12 q 206 7 207 7 q 204 7 205 7 q 194 9 198 9 q 188 6 191 7 q 186 6 186 5 q 143 2 179 7 q 138 9 136 1 q 146 32 146 31 q 146 37 148 36 l 148 39 l 149 40 q 166 54 165 50 q 171 81 170 78 q 170 81 172 82 l 170 81 l 163 75 l 162 75 q 163 81 161 74 l 163 84 q 169 102 165 92 q 176 126 174 121 q 197 195 196 189 q 202 213 201 208 q 205 222 202 213 q 209 237 208 232 q 216 263 213 249 l 218 269 q 244 378 234 329 q 260 439 258 429 q 264 454 262 446 q 276 499 267 463 q 282 519 277 502 q 287 536 286 530 q 290 544 288 538 l 302 600 q 326 663 323 648 q 330 688 330 686 l 332 693 q 334 705 334 699 q 363 789 343 727 q 365 799 363 793 l 368 809 q 378 834 372 824 l 378 836 q 377 844 378 839 q 370 871 370 867 m 688 871 q 706 882 688 875 l 709 882 q 753 884 728 888 q 810 879 802 877 l 811 880 q 816 882 814 880 l 817 882 l 817 882 q 804 810 811 834 q 800 798 801 803 q 787 748 795 775 l 785 741 q 783 731 784 735 q 768 705 770 709 l 767 701 q 765 691 765 695 q 765 671 766 675 q 733 562 760 651 q 724 528 726 535 q 713 498 714 502 l 711 491 q 710 486 711 490 q 703 466 705 472 l 703 463 q 704 456 702 460 q 707 434 709 443 q 693 393 703 418 l 692 386 q 686 367 687 372 q 673 309 680 333 l 671 304 q 654 248 665 283 q 648 222 651 231 q 638 176 641 184 l 637 170 q 618 119 619 123 q 612 94 616 111 q 600 57 604 68 l 600 55 q 593 26 593 29 l 589 17 q 587 -1 587 8 q 585 -3 586 -3 q 570 3 578 -3 q 542 3 549 2 q 530 10 536 12 q 523 7 524 7 q 522 7 522 7 q 511 9 515 9 q 505 6 508 7 q 503 6 503 5 q 460 2 496 7 q 455 9 452 1 q 464 32 464 31 q 464 37 465 36 l 465 39 l 465 40 q 484 54 483 50 q 488 81 487 78 q 488 81 488 82 l 487 81 l 480 75 l 479 75 q 479 81 477 74 l 480 84 q 486 102 482 92 q 493 126 492 121 q 515 195 513 189 q 519 213 518 208 q 523 222 519 213 q 526 237 525 232 q 534 263 530 249 l 535 269 q 562 378 551 329 q 577 439 575 429 q 582 454 579 446 q 593 499 583 463 q 600 519 594 502 q 604 536 603 530 q 606 544 605 538 l 619 600 q 644 663 640 648 q 647 688 647 686 l 648 693 q 652 705 651 699 q 680 789 661 727 q 682 799 680 793 l 685 809 q 694 834 689 824 l 694 836 q 694 844 695 839 q 688 871 687 867 m 92 526 q 77 541 88 526 l 76 544 q 62 586 64 561 q 52 642 56 635 l 51 644 q 47 647 50 646 l 47 648 l 47 648 q 120 654 95 655 q 132 654 127 654 q 184 655 155 656 l 192 656 q 202 655 197 655 q 231 648 226 649 l 235 648 q 245 649 241 648 q 264 654 260 655 q 378 653 285 654 q 412 653 406 653 q 445 650 440 651 l 452 651 q 457 651 454 651 q 478 650 472 650 l 481 650 q 488 653 484 650 q 508 662 498 662 q 552 659 524 662 l 559 660 q 578 659 573 659 q 638 662 612 663 l 642 662 q 702 661 665 662 q 728 662 718 662 q 776 665 766 665 l 781 665 q 836 660 831 660 q 861 661 844 660 q 900 660 888 660 l 902 660 q 931 661 928 661 l 941 660 q 960 662 950 661 q 962 661 961 662 q 960 644 964 654 q 967 617 966 625 q 964 605 960 610 q 968 599 968 600 q 969 597 969 597 q 970 587 969 591 q 975 582 972 584 q 975 579 976 579 q 990 539 975 572 q 985 532 993 532 q 960 535 962 535 q 955 533 956 534 l 954 534 l 952 534 q 934 548 939 548 q 907 545 910 545 q 907 545 905 545 l 907 544 l 915 539 l 915 538 q 909 536 916 537 l 906 536 q 887 538 898 536 q 862 538 867 538 q 789 540 795 541 q 771 540 777 541 q 762 541 771 540 q 746 541 751 541 q 719 541 734 541 l 713 541 q 601 536 651 539 q 538 535 549 536 q 522 536 530 535 q 475 535 513 535 q 455 536 473 535 q 437 535 443 536 q 429 536 435 536 l 372 533 q 304 539 319 540 q 279 536 281 536 l 274 536 q 261 536 268 536 q 174 541 238 538 q 163 540 169 541 l 153 541 q 125 543 137 541 l 123 543 q 116 540 121 543 q 92 526 96 527 m 55 252 q 41 267 52 252 l 39 269 q 25 312 28 286 q 15 368 20 360 l 14 369 q 11 372 13 371 l 10 373 l 11 374 q 83 380 58 381 q 96 380 91 380 q 147 381 119 381 l 155 381 q 165 381 161 381 q 194 374 189 374 l 199 374 q 208 374 205 374 q 228 380 224 380 q 341 378 248 380 q 376 379 369 378 q 408 376 404 376 l 415 376 q 420 376 417 376 q 441 375 435 375 l 445 375 q 451 378 448 375 q 471 387 462 387 q 515 385 488 387 l 522 385 q 542 385 536 385 q 602 388 576 388 l 606 388 q 665 387 628 387 q 692 387 682 387 q 739 391 730 391 l 744 390 q 799 386 794 386 q 824 387 808 386 q 863 385 851 385 l 866 385 q 895 386 892 386 l 905 386 q 923 388 913 386 q 925 387 924 387 q 923 370 928 379 q 930 343 930 350 q 927 330 924 335 q 932 324 931 325 q 932 322 932 323 q 933 312 932 316 q 938 307 936 309 q 938 305 939 305 q 954 265 939 298 q 948 258 956 258 q 924 260 926 260 q 918 259 920 260 l 917 259 l 916 260 q 897 273 902 274 q 870 271 873 271 q 870 270 869 271 l 870 269 l 878 264 l 878 264 q 872 262 880 262 l 869 262 q 851 263 861 262 q 825 263 830 263 q 753 266 759 266 q 734 265 740 266 q 725 266 734 265 q 709 266 715 266 q 682 266 697 266 l 677 266 q 564 262 614 265 q 502 261 512 262 q 485 261 494 261 q 439 260 477 260 q 418 261 436 260 q 401 260 407 261 q 393 261 398 261 l 335 258 q 268 265 283 265 q 243 262 245 262 l 237 262 q 225 262 231 262 q 137 267 201 264 q 126 266 132 266 l 116 266 q 89 269 100 266 l 87 268 q 79 265 85 268 q 55 252 60 252 z "},"$":{"ha":703,"x_min":109,"x_max":699,"o":"m 475 968 q 551 956 493 968 q 593 935 593 943 l 593 932 q 590 903 591 916 q 585 891 585 896 q 586 861 578 881 l 579 825 q 553 830 562 833 q 536 839 551 845 q 495 844 520 833 q 429 827 495 841 q 407 822 413 822 l 406 822 q 394 825 405 822 l 394 822 q 363 804 370 809 q 349 791 352 791 l 345 793 l 345 793 q 323 766 340 791 l 317 766 l 317 764 q 321 763 319 764 q 312 755 318 755 l 308 755 q 305 751 307 755 q 307 747 305 747 q 306 736 306 740 l 306 717 q 317 665 306 673 q 351 634 329 648 q 374 624 355 629 q 424 595 423 597 l 423 587 q 435 576 427 586 q 439 575 437 575 q 460 577 456 577 l 461 577 q 471 555 465 572 q 519 537 478 547 q 542 520 526 534 q 559 505 555 514 q 555 493 555 496 l 555 477 l 557 477 q 571 488 562 480 q 585 469 578 488 q 629 434 585 467 q 660 392 656 403 l 659 384 q 661 381 660 381 l 667 381 l 670 382 q 699 305 675 377 q 662 326 696 317 l 660 326 q 693 290 693 311 q 694 285 694 290 q 692 284 692 284 l 692 279 q 698 240 698 252 l 698 232 q 686 147 692 202 q 644 120 671 125 l 636 80 l 634 80 l 633 84 l 633 84 q 626 74 626 84 q 551 36 589 45 q 501 23 539 36 q 444 6 462 13 q 435 7 435 7 q 435 7 435 7 l 389 8 q 361 -3 366 -3 l 360 -3 q 349 -1 349 -3 l 349 0 q 349 3 349 1 q 326 9 349 9 l 323 9 q 291 5 313 9 l 288 5 q 240 9 258 9 q 208 20 235 20 q 195 22 208 21 l 195 22 q 203 36 195 33 q 212 49 212 43 l 210 50 l 210 50 q 174 23 201 50 q 125 35 125 33 l 125 45 q 126 46 125 46 l 130 45 q 142 114 142 90 q 138 120 138 115 q 147 177 138 146 q 157 210 147 181 q 165 229 159 229 q 199 191 171 216 q 201 186 201 189 q 201 184 201 184 q 220 176 216 178 q 252 165 229 170 q 289 157 288 162 q 279 146 279 151 l 279 145 l 281 130 l 285 130 l 285 132 q 293 154 292 153 q 349 151 294 156 q 404 147 359 147 q 438 149 408 147 q 441 149 439 149 q 463 168 452 149 q 481 178 471 178 q 496 189 492 180 q 512 243 512 214 l 512 248 q 478 338 512 284 q 439 368 460 362 q 349 399 409 375 q 339 410 339 404 q 341 420 339 412 q 340 422 340 422 q 333 421 339 422 l 329 421 q 307 427 307 421 q 285 451 307 436 q 226 475 276 455 q 217 479 220 479 q 212 478 212 478 q 153 536 176 503 q 138 566 145 545 q 124 595 133 569 q 117 615 117 608 q 118 625 117 618 q 117 635 117 633 q 118 652 118 645 q 113 659 118 654 q 109 696 109 686 l 109 699 q 128 717 122 708 q 118 721 126 719 q 117 722 117 721 l 117 726 q 150 812 117 743 q 191 879 167 838 q 225 911 220 911 q 281 918 225 914 q 340 943 300 928 q 371 954 356 951 l 371 954 l 372 954 q 374 953 374 954 l 374 944 l 377 943 q 392 945 389 945 l 393 945 q 390 958 390 955 q 416 966 390 960 q 469 965 424 966 q 475 968 472 968 m 368 -58 q 374 -23 368 -52 q 375 -13 375 -16 l 376 -10 q 374 22 374 3 l 374 35 q 374 49 374 43 q 372 156 373 128 q 372 172 372 164 l 372 179 q 373 211 372 181 q 370 292 373 229 l 371 365 q 370 375 371 372 q 370 397 370 382 q 370 422 370 418 q 370 479 370 469 q 370 500 370 490 q 370 578 370 513 q 372 719 372 642 l 372 726 q 372 760 372 744 q 372 779 372 766 q 372 791 372 791 q 372 813 372 798 q 370 903 372 821 q 370 935 370 909 q 370 958 370 947 l 370 960 q 370 969 370 970 l 371 969 l 373 960 l 374 960 q 374 961 374 960 q 375 996 374 965 q 368 1014 376 1002 l 368 1015 l 368 1017 q 368 1024 368 1019 q 367 1053 369 1027 q 371 1063 367 1063 q 391 1057 387 1056 q 392 1058 391 1059 q 395 1054 393 1057 q 399 1057 397 1054 q 401 1057 400 1057 q 404 1053 401 1056 q 410 1061 406 1050 q 423 1061 413 1063 q 431 1069 428 1069 q 433 1067 432 1069 q 431 1044 431 1055 l 431 1031 q 431 995 431 1028 l 431 992 q 432 944 431 977 q 431 913 431 923 q 434 846 431 906 l 434 840 q 433 780 435 827 q 433 747 433 767 q 433 673 433 701 l 433 668 q 432 593 433 635 q 433 568 432 585 l 433 559 q 433 506 433 526 q 429 477 433 494 q 427 469 427 472 l 427 465 q 429 439 427 456 q 429 432 429 435 l 429 423 q 429 385 429 418 q 429 341 429 376 q 431 201 431 227 q 428 174 431 195 q 428 163 428 170 l 428 157 q 431 123 429 151 q 431 111 431 118 l 431 101 q 431 37 431 66 q 431 21 431 31 q 429 -71 432 -9 l 428 -72 l 427 -72 q 426 -68 427 -69 l 425 -68 q 397 -75 422 -64 q 376 -72 385 -79 l 375 -71 q 368 -58 367 -62 z "},"%":{"ha":1191,"x_min":286,"x_max":943,"o":"m 903 963 q 873 932 899 958 q 865 924 867 926 l 864 922 q 853 893 861 910 l 848 882 q 842 871 845 876 q 804 778 812 802 q 797 764 800 771 l 794 758 q 777 730 793 756 q 751 661 770 715 l 719 598 q 715 589 716 592 q 706 570 712 583 q 696 549 698 552 q 672 499 677 508 q 664 481 668 490 q 631 414 658 470 q 568 292 602 359 l 566 286 q 552 257 558 271 q 544 241 549 252 q 540 231 540 231 q 530 211 536 224 q 496 134 527 204 q 484 106 494 129 q 475 87 479 96 l 474 84 q 469 77 470 76 l 468 77 l 466 84 l 465 84 q 464 83 465 85 q 447 54 463 80 q 455 38 444 49 l 455 37 l 455 35 q 450 29 452 33 q 441 4 449 27 q 429 -4 437 -5 q 385 1 394 2 q 382 0 385 -1 q 378 3 380 1 q 366 1 374 3 q 363 1 365 1 q 358 5 363 2 q 340 -3 353 7 q 309 -3 331 -4 q 286 -9 294 -10 q 286 -8 286 -9 q 298 12 293 3 l 302 23 q 318 54 304 26 l 319 57 q 338 98 326 70 q 351 125 347 117 q 374 183 354 131 l 376 189 q 404 240 380 199 q 418 269 409 251 q 447 332 436 309 l 449 336 q 484 401 462 364 q 492 422 486 408 l 496 430 q 515 476 507 459 q 537 500 520 486 q 545 508 543 505 l 547 512 q 555 534 550 519 q 558 540 557 538 l 562 547 q 575 581 564 552 q 593 618 579 589 q 648 739 638 718 q 666 762 650 744 q 671 772 669 766 l 673 777 q 680 806 675 783 q 684 817 682 811 l 688 825 q 716 881 703 856 q 722 895 719 886 q 767 974 734 921 l 768 975 l 769 975 q 772 972 770 972 l 773 971 q 840 977 780 968 q 888 975 871 981 l 890 974 q 903 963 905 966 m 418 728 q 408 731 414 728 q 393 733 402 733 l 392 733 q 381 733 388 733 q 365 742 374 734 q 351 752 361 749 q 342 755 342 753 q 336 763 340 755 q 324 783 324 776 q 323 791 324 784 l 324 791 q 318 795 324 791 q 315 803 317 795 q 313 806 315 803 q 310 805 313 806 q 309 813 309 805 q 304 826 306 824 q 299 842 299 830 l 299 843 q 303 876 299 850 q 305 890 304 881 q 317 913 309 900 q 323 917 318 915 q 326 925 326 921 l 326 925 q 330 924 328 924 q 337 930 335 924 q 337 932 337 930 q 347 943 337 940 q 377 954 362 949 l 377 957 q 359 951 370 952 l 359 952 q 373 961 366 959 q 392 968 380 966 q 423 971 409 972 q 431 970 431 970 q 444 972 438 973 l 445 972 q 461 967 451 972 q 462 967 462 967 q 467 967 467 967 q 482 959 476 967 q 492 959 488 959 l 493 959 q 499 956 496 959 q 515 946 507 949 q 518 944 518 945 q 519 939 519 940 q 530 934 529 936 q 547 916 541 924 q 557 892 557 893 q 563 886 562 889 q 566 871 566 879 l 566 863 q 568 859 568 862 l 568 857 q 564 824 568 849 q 556 803 559 806 q 547 790 553 798 q 541 783 545 787 q 532 770 536 778 l 518 768 l 518 767 q 519 764 518 766 q 511 754 519 760 q 489 741 499 745 q 481 737 482 738 l 481 737 q 475 739 479 737 l 473 739 q 463 734 469 739 q 462 732 463 732 q 454 733 457 733 q 438 730 448 733 q 418 728 438 729 m 473 785 l 477 784 l 477 787 q 482 789 477 787 q 484 796 484 795 q 495 809 492 800 q 498 823 496 814 q 504 825 504 825 q 502 829 503 827 l 502 837 q 504 851 504 842 q 504 871 504 857 q 494 899 504 879 q 487 903 494 902 q 484 907 486 903 q 478 913 480 910 q 465 923 472 920 l 460 924 l 452 930 l 442 931 q 432 935 437 935 l 431 935 q 427 933 428 935 q 414 930 425 932 q 408 932 412 932 l 408 932 q 382 920 397 932 q 373 907 377 913 q 369 900 370 907 q 365 886 367 890 q 363 877 363 882 q 361 872 363 876 q 366 867 366 872 q 366 858 366 861 q 362 850 366 851 q 361 850 362 849 q 366 823 363 844 q 369 817 367 817 q 374 807 374 812 q 373 803 374 805 q 385 790 377 797 q 395 781 395 781 q 403 776 399 780 q 420 770 419 770 q 439 768 437 768 l 442 768 q 461 775 460 774 q 469 783 465 777 q 473 785 470 785 m 792 9 q 782 12 788 9 q 767 14 776 14 l 766 14 q 754 14 762 14 q 738 23 748 15 q 724 33 734 29 q 715 36 715 35 q 709 44 713 36 q 696 64 696 57 q 696 72 696 65 l 696 72 q 690 76 696 73 q 687 85 690 76 q 686 87 687 85 q 682 86 686 87 q 681 94 682 86 q 676 108 678 106 q 671 123 671 111 l 671 125 q 675 158 671 132 q 677 172 677 163 q 690 195 682 182 q 695 199 690 197 q 699 208 699 203 l 699 208 q 703 207 700 208 q 710 212 708 207 q 710 215 710 212 q 720 226 710 223 q 750 237 735 232 l 750 240 q 732 235 743 236 l 732 235 q 746 245 739 242 q 766 251 753 249 q 798 254 783 255 q 804 254 804 254 q 818 256 812 256 l 819 256 q 836 250 825 256 q 837 250 837 250 q 842 250 841 250 q 857 242 850 250 q 867 242 863 243 l 868 242 q 874 239 871 242 q 890 229 883 232 q 893 227 893 228 q 895 221 895 222 q 905 216 904 218 q 923 198 916 206 q 933 174 933 175 q 939 169 938 172 q 941 153 941 161 l 941 145 q 943 140 943 144 l 943 138 q 940 106 943 132 q 932 84 935 87 q 923 71 928 79 q 916 64 920 68 q 907 52 912 59 l 893 48 l 893 48 q 895 44 894 47 q 886 35 895 40 q 864 22 874 26 q 857 18 857 18 l 857 18 q 849 19 854 18 l 848 20 q 838 15 843 20 q 837 13 837 13 q 828 14 831 14 q 812 11 822 14 q 792 9 812 9 m 848 66 l 851 65 l 851 68 q 857 71 851 69 q 859 78 859 77 q 870 90 867 82 q 873 105 871 95 q 879 107 879 106 q 877 111 878 109 l 877 118 q 879 132 879 124 q 879 153 879 139 q 869 181 879 161 q 862 186 869 184 q 858 190 861 186 q 853 196 855 193 q 840 206 846 203 l 835 206 l 827 213 l 817 214 q 806 217 811 217 l 804 217 q 802 216 802 217 q 788 212 799 215 q 782 215 786 215 l 781 215 q 756 203 771 216 q 746 189 750 196 q 742 182 743 189 q 738 169 741 172 q 736 159 736 163 q 734 154 736 159 q 739 149 739 154 q 739 140 739 142 q 736 132 739 133 q 734 132 735 132 q 740 104 736 125 q 742 99 741 99 q 747 88 747 94 q 746 84 747 86 q 758 71 751 78 q 769 62 769 62 q 777 57 772 61 q 795 51 793 51 q 814 49 812 49 l 816 49 q 836 56 834 55 q 843 64 839 58 q 848 66 845 66 z "},"'":{"ha":275,"x_min":92,"x_max":193,"o":"m 98 1010 q 118 1006 100 1013 q 127 1009 123 1013 q 129 1011 127 1010 q 135 1013 130 1013 q 152 1017 143 1013 q 155 1006 152 1007 l 157 1010 q 159 1006 157 1002 q 161 1010 159 1008 q 166 1015 163 1020 q 176 1008 172 1010 q 179 1008 178 1007 l 179 1008 q 182 1013 179 1008 q 191 1015 184 1014 q 188 1005 193 1014 q 180 979 182 992 q 173 942 174 945 l 173 928 q 169 915 173 922 q 166 905 169 915 q 160 879 161 889 q 157 861 159 863 q 154 853 156 858 q 153 838 153 844 q 150 835 149 838 q 151 827 151 829 q 146 823 151 823 l 149 821 q 139 819 147 818 q 128 818 135 814 q 125 817 126 817 l 118 818 q 119 838 119 823 q 117 851 119 846 q 116 866 117 857 q 111 886 115 871 q 104 926 109 905 l 99 930 q 99 955 103 931 q 96 989 98 969 q 92 1010 92 994 q 98 1010 98 1009 z "},"(":{"ha":441,"x_min":50,"x_max":389,"o":"m 315 1097 q 345 1090 345 1095 l 345 1089 l 340 1084 l 340 1082 q 342 1080 340 1080 l 361 1080 q 389 1075 380 1080 q 376 1040 389 1073 q 334 1000 376 1038 q 313 1006 317 1006 q 310 1004 310 1006 l 310 1002 q 315 985 310 1000 l 315 984 q 254 896 275 933 q 233 854 237 854 l 224 854 q 220 842 220 854 l 220 814 q 193 705 204 760 q 186 667 189 667 q 172 669 180 667 q 169 665 169 667 l 169 661 q 184 633 184 648 l 184 629 q 182 592 184 613 q 186 566 186 570 q 184 526 184 533 q 191 448 184 506 l 191 446 q 184 452 185 452 l 184 451 q 206 343 206 361 l 206 341 q 197 325 197 330 q 197 318 197 321 q 220 287 219 297 q 233 226 229 239 q 252 168 244 168 q 262 151 259 161 q 281 87 267 87 q 294 61 294 74 q 323 -10 304 14 q 357 -66 357 -64 l 357 -67 q 356 -78 357 -71 q 363 -87 356 -80 q 389 -114 389 -96 l 389 -120 q 387 -122 389 -122 l 323 -122 q 281 -76 307 -109 q 258 -39 264 -45 q 252 -41 253 -39 q 250 -41 251 -41 q 195 34 220 -11 q 197 45 195 38 q 188 56 197 49 q 158 98 180 57 q 147 140 152 135 q 132 146 136 143 q 84 279 84 259 l 84 287 q 94 305 84 294 q 73 316 94 308 q 54 427 54 401 q 58 482 54 433 q 58 488 58 483 q 50 501 50 498 l 50 585 q 63 653 50 631 q 74 734 74 698 q 87 772 74 764 q 105 793 105 779 q 104 806 104 805 q 119 842 104 811 q 138 886 130 882 q 158 922 157 905 q 178 949 168 949 q 205 984 184 951 q 220 1025 215 1025 l 233 1025 q 260 1040 254 1040 q 275 1062 271 1046 q 315 1097 302 1082 z "},")":{"ha":446,"x_min":50,"x_max":389,"o":"m 124 -122 q 94 -115 94 -120 l 94 -114 l 98 -108 l 98 -107 q 96 -105 98 -105 l 78 -105 q 50 -99 58 -105 q 63 -65 50 -97 q 105 -25 63 -63 q 126 -31 122 -31 q 129 -28 129 -31 l 129 -27 q 124 -10 129 -24 l 124 -8 q 184 80 164 42 q 205 121 202 121 l 215 121 q 219 134 218 121 l 219 161 q 246 271 235 215 q 253 308 251 308 q 267 307 258 308 q 270 310 270 309 l 270 315 q 254 342 254 328 l 254 347 q 257 383 254 362 q 252 409 252 406 q 254 449 254 442 q 248 528 254 470 l 248 530 q 254 524 254 524 l 254 524 q 233 632 233 614 l 233 634 q 242 651 242 646 q 241 658 241 654 q 219 689 220 679 q 206 749 210 736 q 186 808 195 808 q 177 825 180 814 q 158 888 172 888 q 145 914 145 901 q 116 985 134 961 q 82 1042 82 1039 l 82 1042 q 83 1053 82 1046 q 75 1062 83 1055 q 50 1089 50 1071 l 50 1095 q 52 1097 50 1097 l 115 1097 q 158 1051 132 1084 q 180 1014 174 1020 q 186 1017 186 1014 q 189 1016 188 1017 q 244 941 218 986 q 242 931 244 938 q 251 920 242 927 q 281 878 259 918 q 292 836 287 841 q 307 829 302 833 q 355 696 355 717 l 355 689 q 345 670 355 681 q 366 660 345 668 q 385 549 385 575 q 380 493 385 543 q 381 487 380 492 q 389 475 389 477 l 389 391 q 376 323 389 345 q 365 241 365 278 q 352 203 365 211 q 334 182 334 196 q 334 170 334 171 q 319 134 334 164 q 301 90 309 94 q 281 54 282 71 q 261 27 271 27 q 233 -8 255 24 q 219 -50 224 -50 l 205 -50 q 179 -65 184 -65 q 164 -87 168 -71 q 124 -122 137 -107 z "},"*":{"ha":741,"x_min":247,"x_max":500,"o":"m 385 1081 l 385 1081 q 393 1078 386 1081 q 423 1073 405 1076 q 426 1069 424 1069 q 429 1069 429 1069 q 431 1068 431 1069 l 431 1068 q 418 1053 425 1059 q 414 1047 414 1048 l 414 1047 q 417 1046 414 1046 q 418 1045 418 1045 q 412 1034 416 1041 l 413 1034 q 406 1019 406 1022 q 398 1006 406 1016 q 397 1004 397 1004 l 398 1004 l 398 1004 q 399 1004 399 1004 q 391 989 399 1003 q 388 975 388 978 l 388 975 q 397 983 391 975 q 410 995 408 992 q 411 996 411 996 q 410 996 410 996 l 410 996 q 416 1000 410 998 q 420 1006 418 1002 q 441 1025 428 1013 q 444 1032 442 1031 q 456 1042 451 1034 q 458 1045 457 1045 q 465 1044 461 1044 l 466 1044 q 471 1037 467 1044 q 479 1023 479 1025 q 484 1016 481 1016 q 485 1014 484 1015 q 484 1013 484 1013 l 484 1013 q 486 1011 486 1013 q 486 1008 486 1008 q 490 1004 486 1006 q 495 993 494 996 l 495 991 q 500 957 495 984 l 500 957 q 494 958 495 958 q 486 957 490 957 l 483 957 q 471 960 481 957 l 470 960 l 469 958 l 438 954 q 435 957 437 954 q 434 957 434 957 q 425 953 433 957 q 400 950 400 953 q 411 947 408 950 q 418 946 412 947 l 425 946 q 430 943 425 946 q 440 942 431 943 q 446 944 445 944 q 449 941 446 944 q 465 937 464 938 q 465 936 465 936 l 466 936 q 471 937 467 936 q 491 936 476 936 q 498 933 498 935 q 499 931 499 933 q 494 913 498 926 q 492 910 494 910 q 488 907 488 909 q 488 903 488 904 q 484 896 484 897 q 484 893 484 895 q 474 879 484 892 q 469 877 469 879 l 469 876 q 471 874 469 876 l 471 873 q 451 850 471 871 q 445 848 450 850 q 441 854 444 848 q 439 859 441 854 q 434 863 437 862 q 428 871 433 863 q 416 889 419 886 q 410 899 411 894 q 408 907 408 905 q 402 913 408 911 q 388 930 397 921 q 387 922 387 930 q 390 911 390 917 q 391 907 391 909 l 391 903 q 401 867 401 867 q 399 864 399 865 l 399 863 q 405 856 399 863 q 410 840 408 842 q 412 837 412 838 q 401 832 412 835 q 396 833 397 833 l 395 833 q 391 830 395 833 q 378 829 383 829 q 376 831 376 831 l 368 829 q 344 830 344 829 q 319 837 340 832 q 317 838 317 838 l 317 839 q 326 854 324 849 q 332 865 330 865 q 335 868 335 867 l 335 872 q 342 886 336 874 q 347 900 345 900 q 351 904 349 900 q 355 909 355 907 l 354 912 q 361 928 358 924 q 361 930 361 929 l 361 931 q 349 919 357 928 q 347 916 349 919 q 347 914 347 914 l 347 913 l 346 913 q 343 915 346 913 l 342 915 q 333 905 334 908 q 330 899 332 901 l 330 899 q 328 900 329 899 q 321 895 326 900 q 311 884 321 895 q 305 879 308 884 q 296 868 300 872 q 287 861 289 861 q 281 868 281 865 q 277 873 279 873 q 273 878 275 873 q 264 888 264 886 l 264 891 q 260 902 264 892 q 254 921 258 910 l 253 921 l 252 921 q 251 926 251 921 q 248 936 249 930 q 252 937 250 937 q 256 937 256 937 q 264 937 260 937 l 268 937 l 268 938 q 266 941 266 940 l 266 941 l 267 941 l 275 940 l 275 940 q 285 944 278 940 q 287 945 286 945 l 287 945 q 293 942 288 945 l 293 942 q 309 945 308 945 q 311 947 309 947 q 319 947 313 947 q 342 952 342 951 q 347 954 347 953 q 329 956 347 955 q 315 960 322 957 l 315 960 q 309 957 314 960 l 308 957 q 300 960 301 960 q 299 958 300 958 l 299 958 q 288 961 296 958 q 284 961 286 961 l 282 961 q 263 962 279 961 q 260 962 260 962 l 260 962 l 258 964 l 257 964 q 252 962 252 962 q 248 964 252 963 l 247 965 l 247 966 q 254 991 247 968 q 255 998 255 994 q 260 1001 256 998 q 266 1005 261 1002 q 267 1006 267 1006 q 265 1008 265 1008 q 271 1021 269 1019 q 275 1029 274 1025 q 279 1029 276 1029 q 292 1049 290 1049 q 296 1053 293 1053 l 296 1053 q 300 1049 297 1053 q 304 1042 301 1049 q 313 1031 307 1038 q 328 1010 316 1025 l 336 1001 l 336 1001 q 332 1000 336 1000 l 332 999 q 340 992 337 993 q 342 996 340 992 l 342 996 q 355 980 351 987 q 361 975 360 975 l 361 975 q 361 981 361 977 q 358 991 359 983 q 353 1003 358 997 q 351 1017 352 1015 q 344 1029 344 1027 q 345 1033 345 1031 q 345 1033 345 1033 q 342 1033 342 1033 q 331 1057 340 1036 q 324 1069 330 1061 l 324 1069 q 333 1071 324 1070 q 341 1074 335 1072 q 362 1078 355 1078 q 363 1077 363 1078 q 363 1076 363 1076 q 363 1075 363 1075 l 365 1075 q 372 1078 366 1075 q 381 1080 379 1078 q 385 1081 382 1081 z "},"+":{"ha":751,"x_min":195,"x_max":570,"o":"m 201 412 q 237 406 208 408 q 275 404 266 403 q 279 404 277 404 l 298 406 q 287 406 283 404 q 319 407 291 408 l 342 406 q 345 406 345 406 q 352 406 347 406 q 360 406 359 406 q 378 406 376 407 q 385 407 382 407 q 410 406 390 406 q 456 405 431 405 l 458 405 q 469 405 464 405 q 475 405 471 405 q 479 406 479 406 q 486 406 481 406 q 516 408 489 406 q 526 408 517 408 q 533 408 530 408 l 534 408 q 537 408 537 408 l 537 408 l 534 404 l 534 404 q 534 404 534 404 q 545 402 535 404 q 544 412 547 402 l 552 411 l 562 414 q 565 403 570 416 q 564 391 566 393 q 563 385 563 389 q 563 384 563 385 q 562 381 562 382 q 562 376 562 379 q 562 374 562 375 q 560 371 562 374 q 562 363 559 368 q 560 349 562 360 q 562 340 563 343 q 562 339 562 339 q 554 340 557 340 l 550 340 q 538 340 549 340 l 537 340 q 522 339 532 340 q 511 339 515 339 q 490 336 509 339 l 488 336 q 469 337 484 336 q 458 338 465 337 q 434 336 443 336 l 433 336 q 408 338 422 336 q 400 337 406 338 l 397 338 q 380 336 387 336 q 372 340 376 336 q 369 342 370 342 l 368 342 q 359 341 365 342 q 357 342 358 342 l 355 341 q 341 340 353 341 q 328 340 338 340 q 282 338 290 338 q 257 338 281 338 q 253 337 256 337 l 250 337 q 229 338 239 336 q 224 337 227 337 q 195 340 214 336 l 195 340 l 195 341 q 196 343 195 342 l 196 344 q 197 375 197 348 q 201 399 203 386 l 201 400 q 201 412 205 408 m 343 187 q 350 224 347 195 q 352 261 353 252 q 352 267 352 264 l 349 286 q 350 274 352 270 q 349 306 347 277 l 350 328 q 350 332 350 331 q 350 339 349 334 q 349 347 349 346 q 349 366 349 363 q 349 372 349 369 q 349 397 349 376 q 351 443 351 418 l 351 446 q 351 456 351 451 q 351 462 351 458 q 350 466 350 466 q 350 473 350 468 q 348 503 350 476 q 348 513 348 505 q 348 520 348 517 l 348 521 q 348 524 347 524 l 348 524 l 351 521 l 352 520 q 352 521 353 520 q 354 532 352 522 q 343 531 354 534 l 345 539 l 340 549 q 353 552 339 557 q 366 551 363 553 q 373 550 368 549 q 374 549 373 550 q 377 548 376 549 q 383 549 379 548 q 385 548 384 549 q 388 547 385 548 q 396 549 391 546 q 412 547 400 549 q 422 549 418 549 q 422 548 422 549 q 422 541 422 545 l 422 537 q 422 526 422 536 l 422 524 q 422 509 422 519 q 422 498 422 502 q 426 477 422 496 l 426 475 q 425 456 426 471 q 424 445 425 452 q 425 421 425 430 l 425 420 q 424 395 426 409 q 425 387 424 393 l 424 385 q 427 367 426 374 q 421 359 427 363 q 419 356 419 357 l 419 355 q 420 346 419 352 q 420 344 420 345 l 420 341 q 422 328 420 340 q 422 315 422 326 q 423 269 423 277 q 424 244 424 267 q 425 239 425 242 l 425 237 q 424 216 425 225 q 425 211 425 214 q 422 182 425 201 l 421 182 l 420 182 q 418 182 420 182 l 417 183 q 384 184 413 184 q 357 187 372 190 l 356 188 q 343 187 347 191 z "},",":{"ha":424,"x_min":131,"x_max":279,"o":"m 178 92 q 197 87 182 92 q 197 78 197 83 l 197 78 q 197 74 197 76 q 200 71 199 71 q 205 79 202 71 q 220 80 216 80 l 222 80 q 222 79 222 80 q 221 79 221 79 q 222 79 222 79 l 225 79 q 231 79 227 79 q 250 64 239 73 q 259 53 259 54 q 273 19 267 37 q 275 13 275 14 q 275 1 275 3 q 277 -11 275 -8 q 279 -14 279 -13 l 279 -14 q 278 -18 279 -17 q 275 -22 275 -20 q 232 -64 261 -50 q 218 -70 227 -66 q 199 -81 208 -78 q 190 -83 195 -83 q 167 -82 186 -83 q 151 -83 152 -83 l 149 -83 q 141 -79 142 -83 q 136 -71 140 -75 q 131 -65 135 -68 l 131 -62 q 132 -62 131 -62 q 140 -62 136 -62 l 142 -62 q 157 -56 149 -62 q 170 -48 161 -56 q 180 -38 179 -40 q 187 -23 181 -35 q 189 -15 189 -18 q 182 -1 189 -11 q 179 1 181 1 l 179 1 l 175 0 l 175 0 q 164 7 172 0 q 155 17 161 11 q 155 18 155 18 l 155 18 q 142 24 144 18 q 140 35 141 26 q 137 41 140 35 q 135 48 136 46 q 136 51 136 48 q 144 72 140 65 q 159 87 149 81 q 178 92 173 92 z "},".":{"ha":424,"x_min":161,"x_max":277,"o":"m 222 111 l 224 111 q 230 111 227 111 q 235 105 231 109 l 245 105 q 245 105 245 105 l 245 100 q 262 94 262 94 q 269 82 267 83 q 277 68 277 68 l 277 53 l 272 47 l 272 32 q 263 18 271 26 q 254 9 257 11 q 242 2 248 5 q 233 -1 237 0 q 229 -1 231 -1 q 209 -1 221 -1 l 209 -1 q 210 -3 210 -2 l 210 -3 q 205 -6 210 -6 q 197 -5 197 -5 q 197 -5 197 -5 l 197 -4 q 199 -1 197 -3 q 193 -2 195 -2 q 186 2 189 -2 q 176 12 179 8 q 172 20 174 15 l 171 20 l 171 20 l 169 18 l 168 18 q 166 24 167 18 l 166 28 q 167 42 166 42 q 172 41 170 41 q 172 41 172 41 l 172 41 q 172 42 172 41 q 173 45 173 45 l 173 45 q 169 49 173 48 l 168 49 q 161 47 165 49 q 161 56 161 52 q 169 74 161 67 q 185 91 179 84 q 195 100 193 98 q 203 105 199 103 q 216 110 212 109 q 222 111 219 111 z "},"/":{"ha":642,"x_min":-87,"x_max":532,"o":"m 530 960 q 500 929 526 954 q 492 920 494 923 l 491 918 q 480 890 488 907 l 475 879 q 469 867 472 872 q 431 774 439 799 q 424 761 427 768 l 421 755 q 404 727 420 753 q 378 657 397 711 l 346 595 q 342 586 343 589 q 333 567 339 580 q 323 545 325 549 q 299 496 304 505 q 291 478 295 486 q 258 410 285 467 q 195 289 229 356 l 193 283 q 179 254 185 267 q 171 237 176 248 q 167 227 167 227 q 157 208 163 221 q 123 130 154 201 q 111 103 121 125 q 102 83 106 92 l 101 81 q 96 73 97 73 l 95 73 l 93 81 l 92 81 q 91 80 92 81 q 74 50 90 77 q 82 35 71 45 l 82 33 l 82 32 q 77 26 79 30 q 68 1 76 24 q 56 -7 64 -8 q 12 -3 21 -1 q 9 -3 12 -4 q 5 0 7 -2 q -7 -2 1 0 q -9 -2 -8 -2 q -15 1 -10 -1 q -33 -6 -20 3 q -64 -6 -42 -7 q -87 -13 -79 -14 q -87 -12 -87 -13 q -75 9 -80 -1 l -71 20 q -55 51 -69 22 l -54 54 q -35 95 -47 66 q -22 122 -26 113 q 1 180 -19 127 l 3 185 q 31 237 7 195 q 45 265 36 248 q 74 329 63 305 l 76 333 q 111 398 89 361 q 119 419 113 404 l 123 427 q 142 473 134 456 q 164 497 147 483 q 172 505 170 502 l 174 509 q 182 530 177 515 q 185 536 184 534 l 189 544 q 202 578 191 549 q 220 615 206 585 q 275 736 265 714 q 293 759 277 741 q 298 769 296 763 l 300 774 q 307 803 302 779 q 311 814 309 808 l 315 822 q 343 878 330 852 q 349 891 346 883 q 394 970 361 918 l 395 971 l 396 971 q 399 968 397 969 l 400 968 q 467 974 407 965 q 515 971 498 978 l 517 970 q 530 960 532 963 z "},":":{"ha":424,"x_min":138,"x_max":263,"o":"m 201 275 l 203 275 q 205 274 203 274 l 206 274 q 218 275 217 275 l 218 275 q 223 272 223 274 l 223 272 l 222 271 l 227 271 q 237 266 231 271 q 244 256 241 261 q 247 247 247 251 l 247 245 q 247 239 247 243 q 252 236 249 239 q 252 232 252 236 q 253 227 253 230 l 253 227 q 250 211 253 218 q 247 208 249 209 l 247 196 q 240 185 245 192 q 231 178 234 179 q 220 172 226 174 q 208 168 215 170 q 192 164 197 164 l 191 164 q 173 168 182 164 q 168 171 171 169 l 168 171 l 168 171 q 168 172 168 172 q 170 171 169 172 q 172 173 172 172 q 168 178 172 175 q 165 179 167 179 l 164 179 q 163 179 164 179 q 163 178 163 179 l 163 177 l 163 176 l 163 176 l 159 176 q 154 182 154 181 q 143 205 143 197 l 143 207 q 143 212 143 209 q 138 218 138 216 q 139 220 138 220 q 141 219 140 219 q 147 224 143 219 q 144 227 144 226 l 144 228 q 149 232 144 229 q 154 235 152 235 l 154 235 q 155 232 155 235 l 156 232 q 159 244 157 240 q 160 245 159 245 q 164 249 164 245 q 161 257 164 251 l 161 257 q 163 259 161 258 q 180 270 176 270 q 181 270 180 270 l 182 270 q 184 269 184 270 l 184 268 q 183 267 183 267 l 183 264 l 187 264 l 191 267 q 191 273 191 272 q 201 275 191 275 m 204 764 q 209 759 209 759 q 213 755 210 755 q 222 759 216 755 l 227 759 l 227 759 q 224 749 224 753 q 231 743 224 743 q 238 744 234 743 q 248 738 243 741 q 254 730 253 733 q 263 713 258 724 l 263 705 q 260 704 263 705 q 258 701 258 703 q 258 699 258 700 q 260 694 258 696 q 261 690 261 692 q 256 669 261 680 q 245 659 251 662 l 233 659 q 227 659 228 659 l 227 659 l 227 659 l 227 650 q 218 641 218 641 q 208 640 212 640 l 208 640 q 204 642 205 640 l 203 642 l 202 642 q 194 641 196 641 l 193 641 q 183 642 185 642 q 177 641 180 642 q 161 651 170 645 q 151 665 154 658 q 145 682 146 677 l 146 682 q 150 685 149 682 q 151 686 151 686 l 151 687 q 149 694 151 688 l 149 695 q 150 700 149 698 q 144 706 144 705 l 144 707 q 146 720 145 720 q 151 728 150 728 l 159 736 l 168 736 l 168 745 q 168 745 168 745 l 172 745 q 178 751 178 751 q 186 755 186 755 l 195 755 l 195 755 q 201 760 195 758 q 204 764 203 761 l 204 764 z "},"<":{"ha":751,"x_min":205,"x_max":577,"o":"m 205 372 l 205 372 q 219 389 205 377 q 222 396 221 390 q 250 424 223 397 l 260 431 l 261 431 q 263 431 262 431 l 263 431 q 283 450 267 433 q 317 474 294 459 q 323 477 321 477 q 326 475 325 475 l 327 475 q 353 494 331 475 q 380 507 368 500 l 380 507 q 381 507 381 507 l 381 506 l 380 504 l 382 503 q 393 512 384 504 q 474 545 471 545 q 475 546 475 546 l 475 547 q 473 549 473 548 l 473 549 q 506 556 477 551 q 515 558 511 558 q 536 552 536 556 q 555 549 536 551 q 572 543 558 548 l 572 543 q 557 532 571 543 q 541 525 549 526 q 528 515 537 525 q 516 507 526 514 q 511 505 513 505 q 509 505 510 505 q 502 503 502 504 l 503 501 q 484 490 501 501 l 483 490 l 481 491 q 464 480 467 485 q 456 475 458 475 l 456 475 q 453 479 454 476 q 452 478 452 479 q 452 475 452 477 q 430 460 444 471 q 406 444 412 450 q 391 436 398 436 q 378 432 388 434 q 370 425 370 431 q 363 416 370 420 q 339 398 345 401 q 335 395 336 395 l 335 395 q 333 398 333 397 l 332 398 q 320 386 325 387 q 313 382 316 386 q 305 375 305 378 q 321 371 317 372 q 324 366 321 371 l 329 363 l 329 363 q 332 364 331 364 l 332 364 q 363 340 349 349 q 372 334 372 334 l 372 332 q 372 325 372 328 q 373 323 372 325 q 373 321 373 322 l 373 321 q 379 331 376 321 l 380 332 q 400 318 387 326 q 417 311 408 313 q 421 308 421 309 q 420 306 420 307 q 438 301 420 304 q 448 294 443 300 q 486 277 450 292 q 510 268 497 271 q 523 263 515 267 l 524 259 q 544 253 528 257 q 577 238 555 245 l 577 237 l 577 236 q 557 227 576 234 q 548 228 551 228 l 547 227 q 549 224 549 224 q 532 220 549 222 q 518 214 531 220 l 517 214 l 517 214 q 518 216 517 215 l 518 216 q 509 218 518 218 l 502 218 q 483 221 486 218 q 476 224 479 224 l 476 224 q 475 221 476 222 l 474 221 q 469 226 471 221 q 448 232 468 227 q 431 240 439 237 q 415 245 425 243 q 410 252 413 245 l 408 252 q 406 245 407 245 q 385 258 405 245 l 370 264 l 370 265 q 377 267 377 266 q 367 271 377 269 q 364 268 366 269 q 294 303 333 281 q 271 318 277 313 q 267 326 268 325 q 255 329 255 327 l 235 345 q 224 355 224 352 q 225 360 225 359 q 224 361 225 361 l 224 361 q 222 359 224 361 q 216 362 221 361 q 205 372 205 372 z "},"=":{"ha":751,"x_min":203,"x_max":582,"o":"m 572 446 q 561 454 570 446 q 557 456 559 456 l 557 456 q 546 455 553 455 l 542 455 q 538 456 539 455 q 502 453 511 454 q 497 453 499 454 l 494 453 q 484 456 494 454 q 457 452 478 456 l 433 454 q 430 453 431 454 q 422 454 428 454 q 414 453 416 454 q 395 454 399 454 q 389 454 392 454 q 363 455 385 454 q 317 458 342 457 l 314 458 q 303 458 309 458 q 297 458 301 458 q 293 458 293 458 q 286 458 291 458 q 256 457 283 458 q 245 457 254 457 q 238 456 241 456 l 237 457 q 234 458 234 457 l 234 458 l 237 461 l 237 462 q 237 463 237 463 q 226 464 235 462 q 219 455 224 465 l 219 455 l 218 454 q 216 456 218 456 q 206 454 215 456 q 203 459 203 454 q 206 484 206 480 q 205 486 205 485 q 207 489 206 488 q 206 496 207 492 q 206 497 206 496 q 208 500 207 497 q 205 509 209 504 q 205 526 205 513 q 203 537 203 532 q 204 538 203 537 q 212 536 208 536 l 216 536 q 228 536 217 536 l 229 536 q 245 536 233 536 q 255 536 252 536 q 277 538 257 536 l 279 538 q 298 536 283 538 q 309 535 302 536 q 334 536 325 536 l 336 536 q 360 534 346 536 q 368 534 363 534 l 371 534 q 389 535 382 535 q 398 530 393 535 q 401 527 399 527 l 402 527 q 410 528 405 527 q 413 528 412 528 l 416 528 q 429 529 418 528 q 443 528 431 529 q 489 529 481 530 q 498 526 491 530 q 502 525 499 525 l 504 525 q 515 530 506 526 q 519 530 517 530 l 522 530 q 543 528 534 530 q 549 528 545 528 q 578 524 559 529 l 579 524 l 579 523 q 578 521 578 522 l 578 520 q 579 484 576 515 q 577 457 580 468 l 577 456 q 572 446 574 446 m 574 297 q 563 305 572 297 q 559 307 561 307 l 559 307 q 548 306 555 306 l 544 306 q 539 307 541 306 q 504 304 513 305 q 498 304 501 304 l 496 304 q 486 306 496 304 q 459 302 480 307 l 435 304 q 432 304 433 304 q 425 304 429 304 q 416 304 418 304 q 397 304 401 304 q 391 304 394 304 q 365 306 387 305 q 319 309 344 308 l 316 309 q 305 309 310 309 q 299 309 303 309 q 295 309 295 309 q 288 309 292 309 q 258 308 285 309 q 248 308 256 308 q 240 307 243 307 l 239 307 q 236 309 236 307 l 236 309 l 239 312 l 239 312 q 239 313 239 313 q 227 315 237 313 q 221 306 226 315 l 220 306 l 220 305 q 218 307 220 307 q 208 305 217 307 q 205 309 205 304 q 208 334 208 330 q 208 336 208 334 q 209 339 208 337 q 208 345 209 341 q 208 347 208 346 q 210 350 209 347 q 207 358 211 353 q 208 375 207 363 q 205 385 205 381 q 205 386 205 386 q 214 385 210 385 l 218 385 q 229 385 218 385 l 231 384 q 246 385 235 384 q 257 384 254 384 q 279 387 259 384 l 281 387 q 300 385 285 387 q 311 384 304 385 q 336 385 327 385 l 337 385 q 362 382 348 385 q 370 382 364 382 l 373 382 q 391 384 385 384 q 400 378 395 384 q 403 376 401 376 l 404 376 q 412 376 407 376 q 415 376 414 376 l 418 376 q 431 378 420 376 q 445 377 433 378 q 491 378 483 378 q 500 374 493 378 q 504 374 501 374 l 505 374 q 517 378 507 374 q 521 378 519 378 l 524 378 q 545 377 536 378 q 551 377 547 377 q 581 373 560 378 l 581 372 l 581 372 q 580 370 580 371 l 579 369 q 581 334 578 365 q 579 308 582 318 l 578 306 q 574 297 576 296 z "},">":{"ha":751,"x_min":205,"x_max":577,"o":"m 577 372 q 567 362 576 372 q 560 359 561 361 q 558 361 558 361 l 558 361 q 557 360 557 361 q 559 355 557 359 q 547 345 559 352 l 527 329 q 515 326 527 327 q 512 318 515 325 q 488 303 505 313 q 418 268 450 281 q 415 271 417 269 q 406 267 406 269 q 412 265 406 266 l 412 264 l 398 258 q 376 245 377 245 q 374 252 375 245 l 373 252 q 368 245 370 245 q 351 240 357 243 q 334 232 343 237 q 313 226 314 227 q 308 221 311 221 l 307 221 q 306 224 306 222 l 306 224 q 300 221 302 224 q 281 218 296 218 l 273 218 q 264 216 264 218 l 264 216 q 265 214 265 215 l 265 214 l 264 214 q 250 220 251 220 q 233 224 233 222 q 235 227 233 224 l 235 228 q 224 227 231 228 q 205 236 205 234 l 205 237 l 205 238 q 239 253 227 245 q 258 259 254 257 l 259 263 q 272 268 267 267 q 296 277 286 271 q 334 294 333 292 q 344 301 339 300 q 362 306 362 304 q 361 308 362 307 q 365 311 361 309 q 382 318 374 313 q 402 332 396 326 l 403 331 q 409 321 406 321 l 410 321 q 409 323 410 322 q 410 325 410 325 q 410 332 410 328 l 410 334 q 420 340 410 334 q 450 364 433 349 l 450 364 q 453 363 451 364 l 454 363 l 458 366 q 461 371 461 371 q 477 375 466 372 q 469 382 477 378 q 463 386 466 386 q 450 398 457 387 l 449 398 q 448 395 449 397 l 447 395 q 444 398 446 395 q 420 416 437 401 q 412 425 412 420 q 404 432 412 431 q 391 436 394 434 q 377 444 385 436 q 353 460 370 450 q 330 475 338 471 q 331 478 330 477 q 329 479 330 479 q 327 475 328 476 l 326 475 q 319 480 324 475 q 301 491 315 485 l 299 490 l 298 490 q 280 501 281 501 l 280 503 q 274 505 280 504 q 271 505 272 505 q 266 507 269 505 q 254 515 256 514 q 241 525 245 525 q 224 532 234 526 q 210 543 211 543 l 210 543 q 227 549 224 548 q 245 552 245 551 q 267 558 245 556 q 277 556 271 558 q 309 549 305 551 l 309 549 q 307 547 309 548 l 307 546 q 308 545 307 546 q 389 512 311 545 q 401 503 399 504 l 401 504 l 401 506 l 401 507 q 402 507 401 507 l 402 507 q 429 494 415 500 q 456 475 452 475 l 457 475 q 460 477 458 475 q 465 474 460 477 q 498 450 488 459 q 519 431 516 433 l 519 431 q 522 431 520 431 l 523 431 l 532 424 q 560 396 559 397 q 563 389 562 390 q 577 372 577 377 l 577 372 z "},"?":{"ha":816,"x_min":-30,"x_max":621,"o":"m 208 1057 q 224 1057 217 1059 q 233 1059 224 1057 l 235 1059 q 298 1067 260 1057 q 311 1072 300 1067 q 312 1069 312 1069 q 325 1074 315 1069 q 341 1073 341 1076 l 341 1072 q 338 1067 338 1068 q 376 1065 344 1065 q 445 1046 427 1056 l 459 1050 q 467 1047 463 1051 l 499 1029 l 499 1029 q 494 1025 499 1028 l 495 1024 q 542 1007 532 1013 q 564 987 557 993 q 592 960 591 976 q 591 944 592 958 l 591 942 q 594 934 591 940 q 611 913 610 921 q 607 899 611 912 q 617 882 608 891 l 617 881 q 612 882 614 880 l 612 882 l 612 870 q 618 869 612 870 q 612 851 618 867 l 612 850 q 619 842 612 847 l 619 838 q 618 833 620 837 q 621 818 618 830 q 614 810 614 811 q 615 800 614 806 q 612 783 613 785 q 606 773 610 776 q 599 764 600 772 q 584 725 599 749 q 559 679 565 688 q 536 664 549 669 q 522 643 527 659 q 491 605 517 631 q 492 614 491 606 l 492 615 q 491 616 493 616 l 488 616 q 456 589 479 612 q 426 560 429 561 q 419 559 423 559 q 412 554 414 558 q 294 506 399 547 q 254 489 290 505 l 250 488 q 234 488 243 486 q 225 485 229 486 q 222 480 223 481 l 222 480 q 195 483 202 483 q 189 479 195 483 q 186 481 186 478 l 180 479 q 174 479 178 479 q 169 473 170 476 q 157 461 162 470 l 157 461 l 153 462 q 152 461 153 462 q 145 419 153 452 q 141 412 141 416 l 142 397 q 142 383 142 393 q 145 380 144 380 q 144 372 144 375 l 144 371 q 146 356 144 363 l 151 357 q 151 345 151 353 q 178 321 168 319 q 184 313 183 312 q 185 315 184 314 l 202 311 q 229 305 223 309 l 229 307 l 245 314 q 250 313 248 314 q 267 321 252 314 q 286 354 286 337 q 278 372 286 361 q 257 385 271 384 q 258 391 256 388 q 246 394 250 395 q 237 387 237 389 q 218 366 229 385 q 223 351 220 350 q 233 342 224 352 l 233 340 q 228 340 231 340 q 207 348 207 342 q 201 363 204 357 l 201 366 q 213 397 201 378 l 216 398 l 219 398 q 221 401 220 399 q 241 414 220 407 l 243 414 q 283 408 261 418 q 286 410 283 408 q 288 408 286 410 q 302 389 298 391 q 313 357 308 391 l 313 353 q 302 323 313 345 q 304 321 302 323 q 299 319 304 320 q 282 296 293 303 q 279 302 280 296 l 275 301 q 274 299 274 300 q 275 292 274 296 q 241 276 248 277 l 240 275 q 236 276 236 275 q 196 275 209 273 q 182 281 183 281 q 140 292 160 279 l 140 293 q 144 296 145 295 q 143 296 144 296 q 122 302 131 294 q 105 321 108 313 q 90 338 104 323 q 76 372 81 347 q 77 389 76 375 q 75 391 76 392 q 71 406 71 391 l 71 412 q 70 437 69 425 q 67 442 68 443 l 71 450 q 77 474 75 473 q 81 512 79 507 q 98 529 87 516 l 97 530 q 95 530 96 529 l 95 532 l 113 553 l 115 554 q 135 553 120 553 q 161 552 150 549 l 181 557 q 189 560 184 558 l 189 561 l 189 562 l 190 563 l 191 564 l 205 563 q 208 565 207 564 q 225 574 220 572 q 245 576 231 575 l 287 592 l 293 593 q 308 605 294 594 l 338 625 q 342 625 338 625 l 347 637 q 362 654 361 648 q 394 686 368 656 q 409 721 410 701 q 420 749 420 739 l 434 774 q 433 783 433 782 q 439 789 433 787 q 452 839 451 797 q 446 871 452 856 q 413 894 429 898 l 412 894 q 415 904 415 903 q 403 918 412 909 q 396 932 399 932 q 375 948 379 949 l 375 947 q 379 932 375 943 q 378 931 378 932 q 355 943 372 933 q 331 963 339 958 q 280 983 302 983 q 206 982 252 994 l 199 979 l 195 978 l 195 975 q 179 966 196 973 q 173 969 174 966 l 141 961 l 140 961 q 140 963 140 962 l 140 964 q 113 958 123 960 l 108 957 q 31 913 75 948 q 20 893 25 911 q 2 872 10 886 l 3 868 l 1 868 q -18 905 -4 869 l -18 906 q -13 930 -13 926 q -3 944 -9 941 q 3 957 3 945 q 21 981 3 965 q 50 1002 35 998 q 87 1022 81 1021 q 127 1031 113 1028 l 165 1041 q 174 1046 174 1043 q 192 1053 174 1048 l 208 1057 m 197 61 q 194 79 194 74 q 195 80 195 79 q 193 84 195 81 l 194 87 q 197 94 194 88 l 195 95 q 208 101 197 96 l 208 100 q 205 98 206 98 q 203 91 203 95 q 206 82 203 86 l 206 79 q 208 80 207 80 l 208 79 q 207 77 208 78 l 207 77 l 208 77 q 213 73 213 73 l 213 72 q 217 69 213 71 l 226 63 q 236 61 226 62 l 239 61 q 251 64 248 62 l 254 68 l 254 68 l 255 71 l 255 72 q 254 73 254 72 l 254 74 q 256 80 256 79 q 255 83 256 82 q 254 92 254 90 l 254 94 q 251 98 254 96 q 252 99 252 98 q 251 105 252 101 q 248 110 250 109 l 248 114 l 245 113 q 244 115 245 113 q 239 117 239 117 l 239 119 q 235 123 237 123 l 236 126 q 235 127 236 127 q 229 128 230 128 q 222 126 227 128 q 222 128 222 126 q 219 127 220 127 l 212 127 q 210 129 211 129 l 207 126 q 198 125 207 125 q 189 121 192 123 q 185 119 186 119 q 180 114 183 119 q 176 116 178 116 q 170 110 174 116 q 164 104 164 104 l 165 102 l 165 101 q 163 100 163 101 l 163 98 q 161 95 162 96 q 157 88 159 90 q 156 83 157 87 l 157 81 l 157 80 q 155 77 155 77 q 157 74 155 75 q 156 73 157 73 l 156 68 q 159 52 157 52 l 159 54 l 159 54 l 159 52 q 166 38 161 45 l 170 35 l 169 33 l 173 30 q 177 26 176 28 q 192 22 183 24 l 188 20 l 191 20 q 206 16 203 17 q 217 14 215 14 q 231 16 227 14 q 251 22 239 16 q 241 14 249 17 q 237 12 239 13 q 232 9 235 10 q 198 1 215 1 q 188 1 193 1 l 185 1 l 184 1 q 178 3 183 1 l 176 3 q 165 7 173 3 q 159 10 159 10 q 149 16 159 13 l 149 16 l 150 16 l 149 17 q 134 25 138 25 q 132 24 132 25 q 124 35 130 28 q 116 43 118 42 q 111 54 113 45 q 109 62 109 60 l 107 62 l 106 61 l 106 62 q 100 73 104 63 q 99 77 99 74 q 97 84 97 81 l 97 86 l 100 86 q 100 87 100 86 q 97 90 97 89 q 98 96 98 92 l 97 113 q 99 117 97 115 q 100 115 100 117 q 100 116 100 115 q 104 120 104 117 l 104 133 q 104 138 104 138 q 107 135 106 138 l 107 136 q 111 139 107 138 q 106 145 109 142 q 109 151 106 146 q 112 155 112 153 l 112 157 q 117 165 114 161 l 118 165 l 119 164 q 121 168 120 167 q 135 182 130 177 q 146 186 141 186 q 148 185 147 185 q 149 186 149 185 q 148 189 148 189 l 148 190 l 149 191 q 159 197 155 197 q 176 203 174 203 q 182 202 178 203 l 182 203 l 179 205 q 182 205 179 205 q 197 209 195 209 l 201 209 q 210 212 208 212 l 211 212 l 213 212 q 216 212 215 212 l 233 212 l 235 212 l 237 212 q 239 214 238 212 l 241 214 q 248 212 245 212 q 251 212 248 212 q 257 209 254 212 q 262 207 258 207 l 261 204 l 262 204 q 269 205 267 205 q 288 189 273 205 q 292 182 289 186 q 294 178 292 180 q 298 173 298 174 l 295 170 q 296 170 295 170 q 300 168 299 170 q 307 153 307 158 l 307 151 q 308 148 307 149 l 311 138 q 309 135 310 135 l 310 131 q 313 123 313 125 l 313 121 q 311 114 313 119 q 309 95 311 108 q 304 81 304 82 l 304 80 q 304 75 304 77 q 298 63 302 70 q 285 52 290 55 q 278 47 282 47 q 269 45 274 46 q 264 40 267 43 q 260 37 263 37 q 251 35 256 35 q 241 31 247 31 l 241 31 q 239 30 239 31 l 235 31 l 235 31 l 231 33 l 227 33 q 215 37 224 33 l 217 37 l 216 38 l 208 41 q 203 45 203 44 q 201 47 201 47 q 197 61 197 58 m 163 988 q 176 987 170 989 q 184 989 176 987 l 184 991 q 238 996 207 989 q 250 999 240 996 q 250 998 250 998 q 260 1002 252 998 q 275 1001 274 1003 l 275 1000 q 271 997 271 997 q 303 995 276 994 q 361 980 346 987 l 373 983 q 380 981 377 984 l 407 967 l 407 966 q 404 964 407 966 l 404 963 q 443 950 435 954 q 462 934 456 939 q 486 913 485 925 q 484 901 485 911 l 484 899 q 487 893 485 897 q 501 878 500 882 q 498 867 502 876 q 507 853 499 860 l 507 852 q 503 852 505 852 l 502 852 l 503 843 q 507 842 503 844 q 503 829 507 840 l 503 827 q 509 821 503 826 l 509 819 q 508 814 509 818 q 510 802 509 813 q 505 797 505 798 q 506 789 505 793 q 503 776 503 777 q 498 768 503 770 q 492 761 493 767 q 479 730 492 749 q 459 695 464 702 q 440 684 450 687 q 428 667 432 679 q 403 638 424 659 q 404 646 402 639 l 404 646 q 403 647 404 647 l 400 646 q 372 625 392 644 q 348 604 351 604 q 342 602 345 603 q 336 598 338 602 q 237 561 325 593 q 203 548 234 560 l 201 547 q 187 547 195 545 q 180 544 182 545 q 177 541 178 541 l 176 541 q 155 543 161 543 q 150 540 155 543 q 147 541 147 540 l 142 541 q 137 541 140 540 q 133 536 133 538 q 123 526 127 533 l 122 526 l 119 527 q 119 526 119 526 q 113 494 119 519 q 109 489 109 490 l 110 477 q 110 467 111 473 q 113 464 112 463 q 112 458 113 460 l 113 456 q 114 445 113 450 l 119 446 q 118 436 118 443 l 109 394 l 110 396 q 113 399 113 397 q 112 399 112 399 q 95 402 102 397 q 80 418 82 411 q 62 418 80 419 q 55 458 59 437 q 55 471 55 460 q 54 472 55 473 q 50 483 51 471 l 50 488 q 50 507 49 498 q 47 512 48 512 l 51 517 q 56 536 53 536 q 58 566 57 562 q 72 578 64 569 l 72 579 q 70 580 71 578 l 70 581 l 85 598 l 86 598 q 104 597 91 597 q 125 597 117 595 l 142 601 q 149 604 145 602 l 149 604 l 149 605 l 150 606 l 151 606 l 163 606 q 165 606 165 606 q 179 614 174 612 q 196 615 184 614 l 231 628 l 236 629 q 248 638 237 629 l 273 654 q 277 654 274 654 l 282 663 q 293 675 293 671 q 320 701 298 677 q 333 728 334 712 q 342 749 342 741 l 354 769 q 353 776 353 775 q 357 780 353 779 q 369 819 368 787 q 363 844 368 833 q 336 862 349 865 l 334 861 q 337 869 337 869 q 326 881 335 873 q 321 891 323 892 q 303 904 307 905 l 303 903 q 307 892 304 900 q 306 890 306 892 q 286 899 301 892 q 267 916 273 912 q 223 931 241 931 q 161 930 200 939 l 155 928 l 151 926 l 153 924 q 138 918 153 923 q 134 920 134 918 l 106 914 l 106 914 q 106 916 106 915 l 106 916 q 83 911 92 913 l 79 910 q 15 877 52 904 q 5 861 9 876 q -9 845 -2 855 l -9 842 l -11 842 q -27 870 -15 843 l -26 871 q -30 891 -24 900 q -15 901 -20 898 q -9 910 -9 903 q 6 930 -9 917 q 30 945 18 943 q 62 961 56 960 q 94 968 83 966 l 126 976 q 134 980 134 978 q 149 985 134 982 l 163 988 z "},"@":{"ha":1432,"x_min":180,"x_max":1198,"o":"m 771 1003 l 774 1003 q 782 994 779 1003 l 787 994 q 934 974 871 994 q 978 950 971 950 q 989 954 980 950 l 989 954 q 1076 900 998 954 q 1088 890 1088 890 l 1088 888 l 1083 883 q 1112 869 1087 878 q 1146 847 1119 863 q 1170 815 1170 819 l 1168 814 l 1166 814 q 1166 815 1166 814 q 1163 814 1165 814 l 1163 813 q 1177 774 1167 808 q 1194 734 1194 743 q 1189 698 1189 702 q 1198 680 1189 693 q 1198 676 1198 679 l 1198 673 l 1194 639 q 1187 593 1194 618 q 1177 577 1177 586 q 1138 490 1177 537 q 1097 456 1099 456 q 1081 464 1083 464 l 1080 464 l 1080 463 l 1084 446 l 1084 445 q 1001 389 1053 418 q 943 361 962 369 l 943 361 q 963 329 956 329 q 968 326 968 329 q 965 311 965 313 q 980 277 965 308 q 977 271 977 273 q 985 267 985 269 l 985 267 l 987 268 q 999 247 989 268 q 1011 237 1011 243 q 1040 205 1013 234 l 1044 199 l 1044 199 q 1042 197 1044 197 q 1010 200 1016 200 l 1008 200 q 1004 197 1006 197 q 985 200 993 199 q 975 197 984 200 l 974 197 q 972 198 972 197 q 974 200 974 200 l 974 201 l 971 202 q 909 198 966 202 q 905 203 909 203 q 882 197 882 200 q 842 193 882 195 l 841 194 q 852 222 841 211 l 853 225 q 842 256 848 241 l 841 260 q 849 267 841 264 l 849 267 q 848 268 849 268 l 841 268 q 829 288 836 268 q 810 330 815 321 l 804 329 l 791 329 q 778 333 789 329 q 770 325 778 332 q 764 330 770 326 l 764 332 l 750 332 q 740 327 746 332 q 713 332 721 332 q 700 332 707 332 q 697 335 698 335 l 696 335 q 682 331 694 331 l 669 331 q 655 335 665 331 l 641 335 q 627 313 627 316 q 628 309 628 311 q 625 305 627 305 q 624 306 625 306 q 610 268 618 287 q 603 254 610 262 l 597 230 l 597 227 q 604 212 600 224 q 612 201 612 205 l 612 199 q 609 197 612 199 l 587 196 q 571 199 573 199 q 568 195 571 197 q 553 203 560 195 q 550 204 551 203 q 531 199 538 204 q 523 200 527 199 q 500 199 511 199 l 496 199 q 487 203 492 203 l 484 203 q 471 203 479 203 q 465 199 471 199 l 444 199 q 442 200 442 199 q 453 219 448 207 q 474 249 474 240 q 494 290 488 264 q 497 294 496 294 q 499 291 498 291 l 500 294 q 498 295 498 294 l 498 296 l 513 316 l 513 317 l 539 361 q 541 368 541 367 q 541 373 541 371 q 548 380 541 375 l 561 406 l 560 407 l 561 412 l 560 415 q 566 426 560 423 q 583 448 583 444 q 592 485 588 473 q 608 516 604 502 q 616 521 608 519 l 617 524 l 617 524 l 616 526 q 639 574 616 530 q 668 635 659 619 q 682 676 672 635 q 696 694 684 681 l 696 694 l 692 703 q 700 715 692 705 l 700 718 l 699 722 q 712 741 712 736 l 711 748 q 741 758 711 752 q 747 758 745 758 q 748 758 747 758 l 747 760 l 747 762 q 753 763 748 762 q 753 762 753 762 q 762 766 757 762 l 764 766 q 774 761 774 766 q 779 751 779 755 l 779 748 q 792 715 792 722 q 806 681 792 707 q 834 610 815 673 l 834 595 l 836 595 l 838 597 q 870 524 861 555 q 865 520 865 521 q 871 500 871 503 q 889 485 882 494 q 905 439 897 468 q 974 486 929 446 q 968 498 974 487 l 968 498 q 983 508 968 504 q 1012 522 983 509 q 1015 525 1013 522 q 1005 531 1005 530 l 1005 532 q 1017 565 1009 538 q 1020 569 1019 569 l 1021 569 q 1028 567 1024 568 q 1051 613 1033 567 q 1058 661 1058 638 q 1053 704 1058 671 l 1053 722 q 1043 741 1053 738 q 1024 768 1036 741 q 998 812 1004 797 q 962 838 987 825 q 935 852 946 847 q 911 869 915 869 q 906 862 907 862 q 772 878 848 878 l 713 872 q 688 874 692 873 q 671 872 686 874 q 650 865 668 872 l 646 866 q 606 844 640 866 q 555 817 555 827 q 543 806 550 800 q 507 785 510 785 q 479 771 488 781 q 449 733 468 750 q 420 692 427 712 q 406 684 416 684 q 376 640 395 669 q 348 618 370 634 q 330 583 340 613 q 310 505 318 549 q 307 473 307 477 l 313 475 q 315 474 315 475 l 315 473 q 305 418 315 469 l 305 415 q 320 313 305 373 l 321 312 q 326 314 324 314 q 335 270 330 309 q 394 182 353 227 q 426 146 418 159 q 447 137 431 143 q 490 111 478 114 q 507 112 502 112 q 522 94 514 112 q 625 54 559 73 q 756 33 704 33 q 779 42 777 42 l 780 42 q 793 33 783 42 l 793 33 q 970 67 867 33 q 1002 74 1002 71 l 1002 75 l 999 78 l 999 79 q 1029 94 999 80 q 1095 134 1064 113 q 1127 150 1120 143 l 1127 152 q 1122 160 1122 157 l 1122 161 q 1153 196 1149 193 q 1170 226 1170 209 q 1185 261 1170 229 q 1194 287 1192 277 l 1196 287 q 1184 222 1196 264 q 1164 163 1179 191 q 1126 104 1152 132 q 1116 96 1116 104 q 1104 85 1116 89 q 1051 56 1064 56 q 1019 38 1048 56 q 975 22 991 26 q 956 23 969 22 q 945 12 950 23 q 886 -3 939 9 q 779 -17 813 -17 q 738 -25 772 -17 q 731 -26 738 -26 l 730 -26 q 697 -17 725 -26 q 563 4 654 -17 q 526 23 543 8 l 522 24 l 521 24 q 513 19 515 19 q 431 52 479 31 q 370 83 370 73 q 355 98 370 90 q 297 150 333 113 q 272 169 291 160 q 259 182 259 176 q 264 193 264 191 l 264 193 q 233 238 264 197 q 221 251 227 251 q 211 273 217 251 q 195 330 195 317 q 203 366 203 363 l 202 367 q 192 355 193 355 q 186 420 188 361 q 188 452 186 441 q 180 494 180 488 l 180 495 q 181 496 180 496 l 182 496 q 192 494 190 494 q 217 602 204 583 q 241 638 235 625 q 237 648 241 639 l 237 648 q 282 724 250 674 q 312 767 311 760 q 325 792 321 792 q 336 791 334 791 q 382 842 336 791 q 412 861 397 857 q 458 890 420 865 q 465 916 466 905 q 533 955 522 947 q 676 985 551 966 q 762 998 762 991 q 771 1003 766 1003 m 664 411 q 665 410 665 411 l 689 412 q 709 407 709 412 q 713 406 712 407 l 718 407 q 728 406 721 407 q 755 407 743 407 q 766 403 766 403 q 774 408 774 406 l 774 411 q 764 444 768 418 q 736 509 736 503 q 726 548 730 536 l 724 548 q 717 530 723 547 q 664 411 678 456 z "},"A":{"ha":1041,"x_min":0,"x_max":1044,"o":"m 530 1021 l 539 1021 q 568 974 545 1015 q 589 931 571 954 q 611 902 589 926 q 629 833 618 890 q 655 765 636 812 q 668 742 665 749 q 661 735 667 735 l 654 735 q 652 732 654 735 q 665 688 661 688 l 667 688 q 676 692 667 690 q 680 694 676 693 q 694 657 683 681 q 710 623 703 623 q 720 616 715 623 q 737 604 737 610 q 748 546 741 595 q 755 517 748 530 q 779 471 757 507 q 816 379 816 406 q 820 348 817 348 l 821 348 q 825 353 823 353 l 826 353 q 869 297 826 347 q 903 232 895 252 q 897 235 899 235 q 892 228 892 233 l 892 224 q 922 165 892 205 q 943 123 932 151 q 984 60 975 71 q 1010 24 989 60 l 1042 -6 l 1044 -10 l 1042 -11 l 1041 -11 l 983 -5 l 978 -5 q 952 -6 954 -6 l 949 -6 q 926 10 939 -6 q 916 14 920 13 q 894 7 902 7 q 838 8 874 7 q 827 7 837 8 q 809 8 821 8 l 804 8 q 798 2 798 7 l 794 1 l 705 1 q 704 3 704 1 q 718 59 718 45 l 718 61 q 702 123 718 76 q 670 180 681 154 q 648 226 652 224 q 630 238 644 226 l 624 238 l 594 232 q 551 238 557 238 l 546 238 q 534 228 542 238 q 500 220 530 226 l 498 220 q 496 222 496 220 q 499 237 496 223 l 499 238 q 482 239 492 239 q 423 235 433 239 q 413 232 421 233 q 386 239 409 232 l 367 239 q 355 233 355 239 q 340 211 350 227 q 322 182 322 197 q 306 123 311 123 q 285 59 294 123 l 285 51 q 291 40 285 40 q 301 31 291 39 q 309 2 304 28 l 308 1 l 279 1 q 229 1 259 1 q 218 1 225 1 l 217 3 q 219 7 217 5 l 217 8 l 209 8 q 196 4 196 8 q 186 1 196 1 l 171 1 q 142 3 142 1 q 142 12 142 9 q 121 19 139 15 q 94 1 113 1 q 71 2 91 1 q 52 -5 64 2 l 1 -5 q 0 -3 0 -5 q 48 35 42 29 l 71 85 q 85 96 75 90 q 113 147 98 129 q 130 167 130 159 l 174 270 q 177 269 176 270 q 194 286 194 279 q 193 293 193 290 l 193 295 q 195 304 195 302 l 195 305 l 192 310 q 224 359 192 315 q 239 396 228 368 q 254 406 253 405 q 256 414 256 410 l 256 414 q 251 412 253 412 q 250 414 250 414 q 292 508 250 427 q 339 566 306 532 q 330 576 330 575 q 357 643 344 622 q 406 728 365 659 q 425 786 416 744 q 449 838 442 838 l 453 838 l 454 838 q 457 846 457 844 l 457 848 q 454 854 454 852 q 459 884 457 861 q 481 892 459 890 q 486 894 481 893 l 479 930 q 495 949 479 932 q 518 1009 501 962 q 530 1021 524 1021 m 496 601 q 470 551 477 554 q 451 495 465 540 q 442 490 448 490 q 427 441 437 481 q 403 365 403 378 q 401 360 402 365 q 425 361 410 361 l 443 361 q 484 355 471 361 l 486 355 l 535 360 q 554 348 547 349 l 559 348 q 581 359 562 354 l 582 359 q 559 456 566 412 q 547 473 559 463 q 526 547 543 484 q 497 601 514 577 l 496 601 z "},"B":{"ha":784,"x_min":0,"x_max":782,"o":"m 186 981 l 192 981 q 199 977 197 981 q 202 977 202 977 q 210 978 209 977 l 220 977 l 258 979 l 266 979 q 342 970 273 979 l 343 970 q 369 977 348 970 l 375 977 q 410 975 404 975 q 431 966 414 966 q 452 960 436 963 q 484 957 452 958 l 490 959 q 518 957 513 957 l 519 957 q 549 937 532 937 q 583 931 573 932 q 607 903 591 928 q 629 882 610 903 q 663 832 635 875 q 682 800 682 814 q 680 791 680 793 q 697 763 680 787 q 705 711 705 755 q 705 682 705 703 q 705 680 705 681 q 705 679 705 679 l 701 627 q 702 625 702 625 q 682 608 685 617 l 687 582 l 687 581 q 665 552 671 559 q 726 472 708 508 q 782 292 782 373 q 766 229 782 250 q 747 185 747 201 l 748 162 q 739 140 748 144 q 701 97 733 135 q 668 59 689 85 q 649 50 661 59 l 646 50 q 636 62 644 50 q 633 62 635 62 q 621 60 629 62 q 631 48 631 51 q 621 34 629 34 q 601 22 615 28 l 600 22 q 571 23 582 23 q 547 16 562 23 q 536 14 543 14 q 513 16 521 16 q 456 7 492 16 q 425 9 446 8 q 410 1 410 9 q 408 0 408 0 l 404 0 q 379 9 400 0 q 367 11 374 11 l 348 11 q 342 10 345 11 q 339 11 340 11 q 290 9 326 9 l 289 9 q 216 12 245 12 l 170 12 q 157 22 166 12 q 146 24 155 23 q 134 12 144 24 q 99 23 130 12 l 95 23 q 76 16 76 23 q 47 11 76 11 l 1 9 l 0 11 q 31 54 7 38 q 50 80 42 65 q 57 98 57 90 l 56 102 l 56 106 q 67 130 56 115 q 68 134 67 130 q 59 136 66 135 l 58 137 q 64 181 58 181 q 71 186 71 181 l 71 199 q 78 421 75 237 l 79 421 l 78 422 l 78 425 q 79 431 78 427 q 78 431 79 431 l 79 436 l 79 444 l 89 453 q 98 471 98 467 q 81 473 97 472 l 78 475 q 81 602 81 533 l 81 631 q 82 657 81 640 q 73 677 77 661 l 73 679 q 79 682 73 680 q 82 691 82 686 q 81 705 82 697 q 83 720 83 715 q 82 784 82 771 q 73 789 82 785 q 72 795 72 792 q 73 850 73 838 l 73 856 q 73 867 73 861 q 74 885 74 876 q 49 940 74 903 q 26 960 42 945 q 17 972 18 968 l 18 972 q 78 968 21 972 q 92 968 85 968 q 100 958 95 958 l 104 958 q 121 976 112 958 q 159 967 127 967 l 171 967 q 186 981 180 981 m 363 841 q 334 843 338 843 l 297 843 q 298 824 298 830 l 298 805 q 289 776 298 776 q 282 728 289 772 q 279 688 279 703 q 288 643 279 682 q 289 634 289 640 l 289 623 q 290 592 289 611 q 281 574 290 585 q 273 566 281 568 q 271 564 272 566 q 269 538 269 544 q 273 529 270 529 l 273 529 l 279 533 l 279 531 l 279 481 q 280 413 279 456 q 274 398 280 401 l 274 380 q 272 373 272 374 q 290 365 275 370 q 290 363 290 363 q 289 357 289 359 l 289 328 q 290 315 289 321 q 283 281 290 281 l 279 281 l 279 267 q 283 248 279 262 l 283 192 q 285 150 283 169 l 289 150 q 290 149 290 150 q 292 150 291 150 q 346 140 332 150 q 372 138 359 138 l 392 138 q 433 137 406 138 l 435 136 q 437 137 436 137 l 440 137 q 465 142 450 137 q 487 151 476 142 q 517 166 494 155 q 546 197 536 182 q 564 227 564 209 q 567 239 567 231 q 565 249 567 241 q 575 267 569 251 q 580 283 580 273 l 579 286 q 598 309 598 297 l 598 315 q 593 328 595 328 q 594 338 594 334 l 594 342 q 591 357 594 349 q 592 366 591 359 l 591 374 l 591 379 q 591 391 591 389 l 591 394 q 581 428 588 420 q 580 429 580 428 q 581 434 581 432 q 561 461 581 453 q 555 463 558 463 l 554 463 q 541 462 549 463 q 519 467 535 464 l 515 467 q 499 463 509 467 q 479 452 490 463 q 465 452 469 452 q 445 444 463 452 q 404 450 437 449 q 389 462 397 450 q 374 473 376 473 q 356 485 367 474 q 340 501 356 490 q 336 511 339 507 l 336 511 l 338 525 q 334 548 334 545 l 334 549 q 343 576 343 557 q 360 601 354 601 q 388 610 382 605 q 399 609 395 609 q 417 612 410 612 l 418 610 l 418 601 q 399 574 407 591 q 397 566 398 574 q 407 551 400 564 q 433 536 419 536 q 448 541 440 536 q 459 539 449 541 l 463 539 q 485 546 484 542 q 490 553 489 553 l 499 551 q 508 566 503 551 q 530 585 524 566 q 532 588 530 588 l 537 588 q 538 597 538 591 l 538 599 q 548 618 545 606 q 552 645 552 624 q 547 701 550 701 q 541 719 547 708 l 527 755 q 519 770 526 755 l 511 784 q 496 801 503 795 q 469 820 490 812 q 441 827 458 825 q 431 838 441 827 q 408 845 429 838 q 372 848 388 848 q 368 842 371 848 q 363 841 368 842 z "},"C":{"ha":781,"x_min":0,"x_max":777,"o":"m 500 964 l 512 963 q 522 959 522 962 q 528 954 522 956 q 583 951 563 953 l 602 950 q 621 950 610 949 q 654 943 654 945 q 659 926 656 926 l 660 926 q 690 936 674 924 q 741 918 724 927 q 756 905 754 909 l 756 888 q 755 817 756 861 q 763 807 755 812 l 764 804 q 763 789 764 797 q 764 764 764 777 q 761 760 763 760 q 756 762 758 762 l 755 761 q 756 736 756 743 l 755 735 q 686 790 704 787 q 619 813 667 800 q 604 823 608 817 q 589 829 589 824 q 584 832 585 832 q 571 833 576 832 l 566 833 l 566 832 q 567 828 567 830 q 566 827 567 827 l 526 829 q 519 824 526 824 q 500 831 500 828 l 502 836 q 491 840 502 839 q 474 840 483 840 l 471 840 q 465 832 467 841 q 441 823 465 828 l 440 821 l 440 820 l 441 818 l 441 816 q 435 815 435 815 q 416 824 429 816 l 412 824 q 400 818 406 825 q 328 751 353 798 q 288 699 316 728 l 284 696 q 283 697 284 697 q 295 718 289 719 q 297 730 297 722 q 296 741 297 732 q 274 713 292 739 q 258 680 258 686 q 245 616 246 621 q 225 597 229 600 q 224 594 224 596 l 224 590 q 225 584 224 587 q 222 581 224 581 l 222 581 l 218 581 l 218 549 q 212 546 218 547 l 212 541 l 212 522 q 218 505 212 506 q 225 494 225 500 q 224 473 224 479 q 226 470 224 470 l 229 471 l 230 471 q 231 470 231 471 l 231 460 q 225 452 231 454 q 222 447 222 452 q 244 364 222 436 q 258 328 248 349 l 258 327 q 271 288 258 302 q 309 242 279 273 q 325 220 316 237 q 340 198 340 205 q 344 193 343 193 q 348 194 345 193 q 381 174 374 180 l 401 156 q 429 153 419 155 q 446 159 446 153 q 450 159 448 160 q 505 137 473 156 l 510 136 q 522 141 515 136 l 526 141 l 528 141 q 529 140 529 141 l 529 136 q 537 134 534 134 l 545 134 q 547 132 547 133 l 550 133 l 569 132 q 648 157 572 132 q 660 170 652 159 q 665 172 662 170 q 679 170 671 170 l 680 170 q 688 175 686 169 q 705 181 701 181 l 707 181 q 717 174 710 180 l 728 172 l 730 173 l 729 174 l 729 178 q 728 186 729 182 q 743 204 728 195 q 774 234 743 205 l 775 234 l 775 233 q 777 212 775 226 q 776 181 776 194 q 770 159 776 179 q 769 153 770 157 q 776 135 769 151 q 770 125 776 134 q 769 121 769 123 l 769 65 q 737 52 767 61 q 650 14 727 46 q 551 7 606 12 q 546 -5 548 -5 q 534 4 540 3 l 533 4 q 522 -3 524 5 q 513 -3 519 -4 l 511 -3 q 487 -1 489 -1 l 486 0 q 467 -5 480 0 q 462 -5 465 -5 l 454 -5 q 416 7 450 -5 q 262 52 283 42 q 249 56 262 55 q 243 56 245 56 q 166 134 174 133 l 165 132 q 191 89 182 105 l 192 85 l 191 85 q 140 140 181 86 q 118 186 130 159 q 90 201 116 189 q 67 237 73 219 q 31 324 31 318 q 20 352 31 351 q 12 368 16 355 q 7 395 7 389 q 8 411 8 408 q 1 420 8 414 q 1 423 1 422 l 1 426 q 2 448 2 447 l 1 459 q 8 475 1 463 l 8 481 q 1 504 8 485 l 1 507 q 8 515 8 512 q 7 533 8 519 l 6 533 l 2 530 l 1 532 q 0 566 0 557 q 3 573 1 573 l 4 573 q 13 570 5 573 l 14 570 l 15 572 l 15 574 q 7 577 15 576 q 7 583 7 581 q 24 623 7 602 q 28 644 28 631 q 27 679 28 656 q 64 734 28 696 l 85 768 q 178 867 103 787 l 197 867 q 273 920 231 896 q 304 930 295 931 l 305 930 q 307 928 306 930 l 307 925 l 319 922 q 323 924 323 922 l 323 925 q 323 936 323 928 l 326 937 q 328 936 327 936 l 329 936 l 328 939 l 328 941 q 350 945 328 943 q 357 947 350 946 l 357 950 l 355 952 q 359 954 355 954 q 382 951 374 952 l 387 951 q 399 957 391 951 l 403 956 l 408 950 l 412 949 l 418 949 q 440 954 434 947 q 449 961 446 960 q 463 960 458 960 q 471 965 467 962 q 500 964 489 964 z "},"D":{"ha":858,"x_min":0,"x_max":860,"o":"m 1 972 l 11 972 q 85 971 43 972 q 100 972 92 972 q 102 962 101 970 q 112 959 105 959 q 138 966 135 959 q 150 972 142 972 l 286 972 q 294 961 294 972 q 300 960 300 960 q 326 966 323 966 q 357 966 350 966 q 409 967 401 967 q 454 956 433 967 q 471 954 462 954 q 491 955 473 954 q 551 931 503 955 q 624 899 620 903 l 626 897 l 626 895 q 614 872 619 892 l 614 870 q 621 866 621 867 l 621 854 q 623 854 622 854 q 635 867 631 854 q 651 885 645 880 l 652 885 l 661 883 q 665 884 663 884 l 666 884 q 667 882 667 884 q 666 870 666 873 q 706 835 666 861 q 749 787 734 819 q 768 760 762 765 l 770 762 l 771 762 q 785 747 781 756 q 803 734 803 740 l 803 733 q 801 722 803 730 q 818 694 801 718 q 842 606 833 666 q 856 576 842 600 q 860 555 860 567 l 860 555 q 854 543 860 553 l 854 541 q 854 524 854 534 q 854 507 854 513 q 859 495 854 500 q 860 474 860 481 l 860 431 l 854 412 l 854 393 l 852 393 q 845 400 852 395 l 843 400 l 842 391 l 842 384 q 848 370 842 379 q 849 361 849 366 q 829 331 849 353 q 817 289 825 326 q 806 246 814 281 q 746 167 798 229 q 722 153 741 157 q 698 141 698 146 q 671 105 682 127 q 645 94 671 100 q 587 62 602 75 q 538 41 574 54 l 534 41 q 522 47 529 41 l 517 47 q 495 31 506 47 q 492 29 494 31 l 491 29 q 484 39 484 29 q 479 41 481 41 q 448 19 463 41 q 389 12 439 12 q 332 0 377 12 l 331 0 q 271 9 284 9 q 222 17 245 9 q 215 18 219 18 l 212 18 q 185 18 201 18 q 163 5 180 18 q 160 0 163 1 l 159 0 q 150 5 156 0 q 144 6 147 6 l 100 6 q 58 0 90 6 l 57 0 q 40 5 54 0 q 31 6 36 6 l 12 6 l 12 7 q 50 54 50 46 q 63 104 59 71 q 76 129 66 111 q 77 140 77 136 q 76 181 77 149 q 77 216 77 202 q 65 237 77 227 l 64 240 l 64 243 q 71 252 64 245 q 70 356 70 326 q 68 377 70 363 q 81 394 68 380 q 82 402 82 399 l 82 465 q 76 485 82 470 l 76 487 q 82 503 76 489 q 81 517 81 511 l 81 522 q 87 538 81 528 l 87 545 q 79 562 87 555 q 71 589 71 572 q 70 589 70 589 l 71 593 q 68 633 71 595 q 76 666 68 640 q 77 699 76 678 q 66 726 77 714 q 63 739 64 729 l 64 743 l 64 766 q 58 778 64 770 l 58 779 q 59 873 58 793 q 54 888 59 888 q 52 905 52 888 q 39 932 47 926 q 0 971 3 954 l 1 972 m 298 843 q 294 837 296 843 q 287 824 287 831 l 287 702 q 277 690 287 696 q 275 684 275 687 l 275 684 q 287 667 275 677 l 287 665 q 281 656 287 663 q 280 652 280 654 l 280 643 q 281 626 280 633 q 280 610 280 621 l 280 606 q 291 598 280 598 q 293 596 293 597 l 293 594 q 277 560 293 591 q 275 549 275 553 q 281 536 281 538 l 281 532 q 280 529 281 529 l 281 526 l 281 511 q 280 488 281 502 q 286 475 280 484 q 287 445 287 456 l 287 425 q 281 399 281 406 l 281 398 q 287 393 287 393 l 287 339 q 288 290 287 323 q 281 273 288 287 l 281 268 q 288 250 281 266 q 287 239 287 243 l 287 237 q 280 218 280 229 l 288 195 l 288 195 q 287 186 287 188 q 294 165 294 169 q 293 155 293 159 l 293 152 l 298 153 l 307 153 q 315 146 311 153 l 321 146 q 332 153 324 153 q 355 152 342 153 q 400 165 360 152 l 401 165 q 420 163 406 165 q 455 178 433 168 q 513 210 494 191 q 538 218 520 215 q 551 237 548 224 q 593 299 552 247 q 603 342 598 299 q 614 363 606 357 q 621 377 621 373 q 620 397 620 389 q 623 401 621 401 l 624 400 q 627 411 625 402 l 625 446 q 637 503 625 454 q 640 527 639 515 q 618 617 640 541 q 612 640 614 640 q 608 645 608 640 q 614 661 608 647 l 614 672 q 613 699 614 682 q 614 702 614 700 l 585 702 l 561 747 q 529 779 538 778 q 505 787 510 781 q 418 832 458 827 q 321 844 370 844 q 298 843 309 843 z "},"E":{"ha":701,"x_min":-6,"x_max":712,"o":"m 105 979 q 113 976 113 979 l 119 976 q 139 977 129 976 l 168 974 l 174 974 q 179 972 177 972 l 183 974 l 255 974 l 258 976 l 331 976 q 354 968 351 968 q 420 970 412 970 l 507 970 q 509 972 509 970 q 561 972 556 972 q 620 972 571 972 q 639 972 631 972 q 640 972 639 972 q 648 976 644 976 l 668 976 q 680 977 674 976 q 691 976 683 976 l 701 976 l 702 975 q 700 940 700 956 l 700 920 q 705 911 700 918 q 700 859 704 859 q 698 855 698 859 l 698 839 q 701 832 698 837 q 709 796 707 803 q 712 779 712 787 l 712 770 q 711 769 712 769 q 626 819 632 817 l 616 819 q 603 817 612 819 l 598 817 q 587 821 589 821 l 529 821 q 492 815 498 821 q 489 814 490 814 q 476 821 488 814 q 469 822 473 822 l 469 822 q 459 818 465 818 q 451 819 458 818 l 450 818 q 441 825 441 818 l 437 825 l 432 825 q 350 819 354 825 l 348 819 q 302 821 327 820 q 270 818 270 820 q 267 764 267 801 l 267 758 q 271 750 271 753 l 271 690 q 271 690 271 690 l 271 688 q 262 685 271 688 q 259 667 259 670 q 271 652 260 663 l 271 651 q 269 617 271 637 l 279 617 q 293 620 282 620 q 298 617 298 620 q 330 614 321 614 l 340 614 q 351 612 347 612 l 359 612 q 399 623 395 623 q 405 622 404 622 q 515 619 453 622 q 578 642 561 642 q 578 642 578 642 q 560 595 566 614 q 606 570 598 573 q 612 572 611 572 q 658 546 616 571 q 673 537 673 538 q 624 509 671 531 q 612 503 618 503 q 604 507 609 505 q 559 480 559 486 q 577 443 559 478 q 580 431 580 433 l 580 430 l 579 430 q 519 453 523 453 l 517 453 q 512 451 515 453 l 486 451 q 475 459 478 459 l 473 459 q 440 457 467 459 l 439 457 q 425 459 429 457 q 413 451 420 454 q 338 448 402 451 q 332 455 338 449 l 269 453 q 264 413 264 425 q 274 389 271 404 q 273 380 273 384 l 273 379 q 280 304 280 327 l 280 304 q 263 270 263 290 l 263 269 q 271 251 263 254 q 271 250 271 251 q 271 153 271 235 l 271 153 q 309 157 276 153 q 332 153 309 153 l 342 153 q 342 151 342 153 l 344 153 l 359 153 q 404 159 398 159 q 416 160 405 159 q 423 157 419 160 l 425 157 q 443 166 430 157 q 460 160 453 160 q 473 159 472 159 q 546 161 534 161 q 558 167 547 161 l 564 167 l 575 163 q 588 165 582 165 l 591 165 q 675 209 592 165 q 694 218 677 209 l 696 218 l 696 209 q 690 186 696 201 q 675 149 682 149 l 675 147 q 675 127 675 129 q 681 117 681 122 q 680 117 681 117 l 681 113 l 681 111 q 680 106 681 106 l 681 98 l 681 72 q 674 61 681 70 q 673 25 673 40 q 673 -1 673 -1 l 672 -2 l 659 -2 q 625 -1 648 -2 l 625 -1 q 624 -1 624 -1 q 610 -1 614 -1 l 606 -1 q 604 0 604 -1 q 600 -1 602 -1 q 593 4 593 3 q 593 3 593 4 q 545 5 570 5 l 524 5 q 522 5 523 5 q 521 5 521 5 q 509 5 514 5 l 490 5 q 451 6 478 5 q 449 8 451 7 l 410 8 l 406 7 l 406 8 l 404 7 l 334 7 q 302 9 304 9 l 283 0 q 222 -4 281 0 q 220 -1 222 -3 q 161 -8 178 -7 q 157 -6 158 -6 q 137 -12 157 -9 q 104 -18 130 -16 q 87 -24 99 -24 l 86 -24 q 81 -21 83 -24 q 70 -24 74 -24 q 64 -23 68 -24 q -5 -35 10 -35 q -5 -35 -5 -35 q 31 20 24 8 q 45 49 39 42 l 58 110 q 52 181 58 162 l 52 182 q 58 237 58 214 l 58 258 q 56 321 58 286 l 67 324 q 68 341 68 338 q 58 386 68 365 q 56 402 56 393 q 58 429 56 408 q 56 445 57 434 q 59 470 57 460 q 58 517 58 499 l 58 542 q 56 555 58 544 q 71 594 71 580 q 69 598 69 595 l 69 626 q 61 631 69 631 q 63 697 63 657 l 63 699 q 59 705 63 701 q 62 733 59 709 q 56 770 62 739 q 62 817 62 785 l 45 901 q 30 930 41 901 l -6 971 q 29 975 -6 974 q 85 974 62 974 q 94 979 86 974 l 105 979 z "},"F":{"ha":691,"x_min":0,"x_max":698,"o":"m 102 979 l 117 979 q 125 976 119 979 q 151 977 129 976 l 180 973 l 182 973 q 189 971 186 973 q 195 973 193 973 l 266 973 l 270 977 l 342 977 q 367 966 344 977 q 425 970 393 970 l 471 970 q 490 968 478 970 q 500 972 490 972 l 574 972 q 598 971 586 972 q 616 972 600 972 l 625 972 l 630 976 l 642 976 q 645 977 644 976 l 648 976 q 671 977 667 977 q 684 976 674 977 q 688 977 686 977 l 688 975 q 686 928 686 949 l 686 916 q 690 909 690 910 q 689 863 690 903 q 684 851 689 863 l 684 834 q 690 813 690 827 q 698 779 690 811 l 698 766 l 697 764 q 610 815 612 815 l 604 815 q 582 812 600 815 q 570 817 574 817 l 568 817 q 558 817 560 817 q 545 817 551 817 l 530 817 q 475 811 475 817 q 470 810 472 810 q 452 819 456 819 q 441 814 445 814 l 429 814 q 420 822 422 814 l 418 821 l 404 821 q 401 822 402 821 q 365 817 365 819 l 362 815 q 321 817 334 817 l 309 817 q 274 812 274 817 q 265 781 265 789 l 265 781 q 283 747 265 772 l 283 682 q 274 678 283 681 q 270 651 270 661 q 278 611 275 633 l 290 611 q 290 610 290 611 q 302 613 294 613 l 307 613 q 311 610 311 613 q 344 608 336 608 l 353 608 q 366 606 362 606 l 373 606 q 376 616 374 613 l 498 612 q 561 635 543 635 l 562 633 q 543 587 553 615 l 589 562 q 597 564 596 564 l 650 533 l 658 530 q 613 502 658 522 q 598 493 601 493 q 588 496 597 493 l 587 496 q 547 476 574 492 q 543 469 543 472 l 543 469 q 560 432 557 440 q 564 419 564 420 l 563 419 q 502 442 505 442 l 497 442 l 494 439 l 468 439 q 456 450 459 450 q 421 446 438 449 l 404 449 q 393 439 401 445 q 390 440 391 439 l 352 438 q 344 445 347 445 q 281 444 328 445 q 277 405 277 412 q 286 377 286 388 l 286 366 q 292 298 292 316 l 292 294 q 275 262 275 281 l 275 261 q 282 242 275 246 q 283 240 283 241 q 283 142 283 168 q 292 82 283 119 q 340 31 296 75 q 349 16 347 20 q 349 15 349 16 q 318 18 338 17 q 281 15 286 16 q 279 16 279 15 q 234 10 277 16 q 224 9 231 10 l 223 10 q 222 9 222 10 q 189 12 204 10 q 153 7 163 7 l 144 7 q 127 8 140 7 l 77 0 l 75 0 q 62 7 73 0 q 60 7 61 7 q 54 6 57 6 l 52 6 q 21 11 43 6 q 12 9 17 11 q 1 13 1 11 q 37 52 30 39 q 50 71 41 64 q 75 157 71 153 l 77 172 q 67 248 67 241 q 81 271 81 262 l 81 274 q 77 281 81 278 q 79 353 77 292 q 84 359 81 353 l 84 360 q 66 393 84 366 q 68 406 68 401 l 68 424 q 71 477 68 440 q 68 494 68 486 l 68 507 q 71 517 68 513 q 68 543 69 528 q 78 580 68 557 q 81 611 81 596 q 80 623 81 612 q 69 627 69 625 q 71 699 71 666 q 64 764 71 736 l 64 766 q 71 844 71 785 q 66 876 66 863 q 60 891 60 890 l 60 895 l 60 899 q 52 913 60 901 q 43 924 47 924 q 20 947 39 924 q 0 971 6 962 q 36 974 11 974 l 63 974 q 71 973 66 974 q 77 974 73 974 l 90 974 q 92 973 91 974 q 102 979 95 973 z "},"G":{"ha":948,"x_min":0,"x_max":945,"o":"m 385 968 l 386 968 q 408 956 393 956 l 424 956 q 464 960 464 956 l 464 961 q 461 964 464 962 q 463 966 461 966 q 505 967 472 966 q 534 962 528 967 q 546 958 538 958 q 593 959 553 958 q 604 954 604 959 q 640 937 606 951 q 727 889 698 911 q 798 828 747 878 q 840 766 840 782 l 840 764 q 838 763 840 763 l 838 763 q 782 803 832 763 q 730 831 737 831 q 659 847 698 840 q 599 860 613 860 l 599 859 q 601 854 601 855 l 600 853 q 528 855 559 855 q 487 850 487 855 q 432 840 487 845 q 423 831 423 838 q 333 785 358 808 q 293 749 323 782 q 265 720 293 747 q 252 705 257 715 q 247 696 248 705 q 240 681 240 687 l 225 675 q 224 667 224 670 q 226 648 226 650 q 215 639 226 639 q 205 616 209 639 l 203 614 q 205 603 205 611 l 205 602 q 201 467 205 593 q 209 423 201 432 q 231 411 220 411 l 232 411 l 240 412 l 240 410 q 240 387 240 389 q 248 370 240 382 q 288 305 250 347 q 323 277 314 286 q 328 257 326 274 q 334 254 332 254 l 335 254 q 343 256 342 256 q 380 233 350 255 q 409 214 409 216 l 409 211 q 421 210 414 210 l 423 210 q 454 210 452 210 l 456 210 q 462 203 461 210 l 463 203 l 469 203 q 515 203 485 203 q 524 210 522 203 l 525 210 q 557 210 546 210 l 557 210 q 572 210 563 210 q 580 203 574 210 l 583 203 q 602 220 587 203 q 623 233 616 227 l 623 235 q 619 243 623 237 l 619 245 q 626 249 619 248 q 643 248 632 248 q 661 256 650 248 l 663 256 q 686 267 677 256 l 685 271 q 726 300 685 278 q 748 337 748 314 q 760 358 753 358 q 768 357 766 357 q 771 363 771 357 q 771 402 771 390 l 771 440 q 756 480 771 451 q 739 504 750 497 q 712 539 712 514 q 697 557 708 557 q 677 554 682 554 l 675 554 q 658 570 664 570 q 614 572 646 572 q 548 565 548 572 q 547 562 547 564 l 547 555 q 543 553 547 553 q 528 555 530 555 q 490 522 500 544 q 475 511 490 513 l 475 511 q 465 517 468 511 l 465 560 q 483 585 470 578 q 496 608 486 588 q 515 625 503 614 q 519 630 517 630 q 546 629 526 630 q 548 630 547 630 q 546 643 547 635 l 547 644 l 551 644 q 644 652 590 652 q 661 651 657 651 l 682 653 q 695 651 690 651 l 697 651 q 718 652 705 651 q 720 650 720 651 q 718 644 718 646 l 726 643 l 727 643 l 727 644 q 726 650 727 646 l 727 651 l 750 651 q 761 643 754 643 l 762 643 q 779 644 773 644 q 779 643 779 643 l 779 640 q 808 625 779 627 q 854 591 819 625 q 879 560 865 572 q 907 520 898 547 q 933 448 919 470 q 945 401 945 428 q 939 334 945 334 q 931 283 936 326 q 905 231 931 279 q 862 143 874 167 q 836 123 845 123 q 795 99 805 106 l 783 78 q 720 54 773 71 q 700 39 714 50 q 650 33 690 33 q 625 25 633 31 q 606 8 609 8 q 482 0 515 0 l 475 0 q 390 17 437 0 l 390 18 q 393 35 390 22 q 390 45 391 45 q 368 45 382 45 q 347 53 358 45 q 334 54 341 54 q 315 54 329 54 l 315 34 q 328 31 315 31 l 341 31 q 355 25 351 31 q 353 24 355 24 l 347 24 q 306 23 334 24 q 297 26 297 24 l 297 27 q 302 45 300 37 q 306 47 306 46 l 306 47 q 303 56 306 49 l 303 57 q 306 60 304 60 l 306 61 q 278 71 290 61 q 277 74 277 73 l 277 79 q 278 90 277 83 q 269 96 273 90 q 252 98 269 98 q 242 91 247 98 l 238 90 l 233 90 q 233 91 233 90 l 233 93 q 233 98 233 93 l 195 98 q 172 115 172 113 q 174 127 174 123 q 155 133 170 133 q 106 182 142 140 q 66 252 85 217 q 54 273 54 264 l 54 275 q 54 288 54 282 q 31 341 54 304 q 8 446 21 371 q 9 462 9 454 l 9 463 q 2 469 9 467 q 0 483 1 472 q 5 517 0 517 q 9 526 9 524 l 9 528 q 7 540 9 535 q 13 572 9 572 q 50 602 50 588 l 50 602 q 37 623 50 606 q 31 627 31 623 l 31 631 q 43 652 31 637 q 60 690 48 665 q 62 699 60 691 q 59 720 59 715 q 79 749 59 729 q 106 794 106 787 l 106 799 l 104 818 q 106 823 105 823 q 119 823 114 823 q 136 839 123 823 q 151 854 138 839 q 173 854 159 854 q 189 854 184 854 q 239 904 198 854 q 292 930 264 930 q 336 947 294 930 q 384 966 358 956 q 385 968 384 968 m 314 964 l 314 963 q 304 956 309 956 q 300 958 304 956 q 266 944 288 951 q 256 935 262 943 l 255 935 q 248 936 254 935 q 241 928 241 930 l 240 928 q 277 951 240 939 l 277 956 l 280 959 l 291 958 q 314 964 298 959 m 229 937 l 232 937 q 233 935 233 936 l 233 922 q 231 920 233 920 q 216 921 229 920 l 216 922 q 206 915 210 922 q 202 926 206 919 l 202 926 q 206 929 203 929 q 214 928 214 928 q 224 935 221 928 q 229 937 224 935 m 206 915 l 206 914 q 203 905 203 905 l 189 905 q 190 900 190 902 q 157 882 190 897 q 150 875 152 879 q 129 868 149 874 l 129 869 q 157 889 134 875 q 186 913 176 911 q 190 913 189 913 q 201 912 199 912 q 206 915 203 913 m 105 831 l 105 831 q 80 798 85 812 q 65 783 73 789 l 63 783 l 63 783 q 69 793 66 792 l 68 796 l 68 800 q 71 802 68 801 q 78 801 77 801 q 98 831 93 818 l 105 831 z "},"H":{"ha":900,"x_min":0,"x_max":909,"o":"m 229 979 q 253 972 253 979 q 256 972 254 972 q 278 972 275 972 q 334 972 323 972 q 342 972 338 972 l 342 971 l 342 963 q 321 939 326 950 q 307 922 315 938 q 300 890 301 922 q 294 802 296 882 q 296 783 296 787 l 296 775 q 290 732 296 732 q 283 722 283 732 q 285 681 283 708 q 283 622 283 631 q 290 599 283 606 l 290 593 q 289 579 289 581 l 289 574 q 294 571 290 572 q 315 572 310 572 q 327 570 323 572 q 366 571 352 571 l 378 571 q 414 574 389 571 l 418 574 l 437 568 l 441 568 q 484 574 484 570 q 499 584 489 584 q 513 578 513 581 l 512 574 q 518 571 512 572 q 564 574 549 574 q 586 572 581 572 l 610 572 l 616 571 l 616 572 l 616 605 q 614 637 614 635 l 616 650 q 611 680 611 673 q 620 705 616 705 l 625 704 l 626 705 l 626 706 q 628 755 626 723 q 617 791 628 783 q 616 798 616 795 q 617 831 616 813 q 616 847 617 834 l 615 847 l 609 842 l 608 842 q 606 855 606 842 l 606 861 q 606 904 606 877 q 591 938 602 927 q 568 971 568 965 l 568 972 q 608 970 576 972 l 665 972 l 666 971 l 666 970 l 664 963 q 669 962 667 962 q 701 962 692 962 q 702 963 701 963 l 701 967 l 701 968 q 733 975 701 972 q 791 969 791 973 q 800 962 791 962 q 827 962 806 962 q 833 964 833 962 l 833 965 l 829 970 l 829 970 q 847 973 829 973 q 890 972 853 973 l 890 971 l 890 963 q 859 934 873 949 q 850 920 850 922 q 852 915 852 917 q 843 907 852 913 q 841 899 841 902 l 841 898 q 842 871 841 889 q 833 866 840 869 q 831 853 831 863 q 832 770 832 784 l 832 728 q 823 721 832 724 q 822 718 823 720 q 821 675 821 689 q 826 605 826 613 q 822 470 826 575 q 825 454 823 454 l 831 455 q 833 450 833 452 q 832 407 832 419 l 834 392 q 831 302 831 329 l 831 290 q 831 283 831 286 q 831 278 831 281 l 831 264 q 833 256 831 256 l 838 260 l 840 260 q 842 258 842 259 l 842 96 q 855 60 842 84 l 855 57 q 852 51 852 54 l 852 50 q 881 33 854 47 q 909 4 909 7 q 909 3 909 4 q 843 2 874 2 l 786 6 q 769 10 777 10 q 697 3 704 3 l 693 3 q 692 5 692 3 q 694 14 694 12 l 692 15 q 677 13 678 13 q 665 14 669 14 q 668 5 668 7 q 615 0 668 2 q 568 4 602 0 q 598 45 575 21 q 611 103 611 64 l 611 136 q 616 181 611 143 l 615 240 q 619 273 615 273 q 626 279 626 273 q 627 283 626 279 q 626 307 626 295 l 626 309 l 625 309 q 617 305 619 305 l 616 307 l 616 308 q 627 328 616 309 q 627 338 627 332 q 600 400 627 382 q 545 424 569 424 q 532 425 535 425 q 461 418 467 418 l 460 418 q 450 425 456 425 l 448 425 l 398 420 l 394 420 q 345 425 386 420 q 328 417 332 425 q 319 414 328 414 l 294 414 l 294 412 q 294 375 294 382 q 294 334 294 357 l 294 316 q 289 302 294 313 l 289 300 q 294 294 289 300 l 294 290 q 292 210 294 268 q 296 205 296 208 l 291 162 l 291 151 q 298 106 291 106 q 304 98 303 106 q 303 75 303 83 q 312 53 303 53 q 342 25 324 37 q 345 18 345 20 q 341 3 343 3 q 294 3 332 3 q 236 8 284 3 l 159 3 l 152 3 q 135 9 138 3 l 126 9 l 71 5 q 20 3 38 3 l 20 4 q 48 40 28 25 q 60 66 54 47 q 68 82 68 75 q 66 104 68 96 q 71 113 68 113 q 78 111 75 111 q 79 115 79 113 q 78 130 78 127 q 81 133 79 133 q 87 130 86 130 q 90 163 89 130 q 79 194 90 186 q 78 198 79 198 l 79 201 q 80 238 79 210 q 77 328 79 267 q 85 347 77 340 q 89 372 89 355 q 88 436 89 387 q 83 446 88 437 l 83 448 l 88 530 l 88 533 q 98 541 88 534 l 98 543 q 82 563 98 548 q 77 582 77 569 q 79 618 79 600 l 79 654 q 79 709 79 675 q 71 724 79 724 q 68 728 68 726 q 66 799 66 772 l 66 808 q 69 855 69 821 l 69 858 q 65 871 69 869 l 61 870 q 57 884 57 875 l 61 907 q 51 920 58 920 q 22 947 45 933 q 1 969 7 956 l 0 972 l 1 972 l 20 972 q 41 971 31 972 q 81 974 71 972 l 90 974 q 127 971 127 974 q 134 967 127 968 q 158 972 143 972 q 189 972 165 972 l 197 972 q 217 977 213 972 q 229 979 217 979 z "},"I":{"ha":379,"x_min":0,"x_max":366,"o":"m 37 975 q 62 972 42 975 l 81 972 q 94 968 88 968 l 118 968 q 131 962 120 968 q 149 958 139 958 q 178 958 172 958 q 195 975 189 975 l 206 975 q 213 971 209 971 q 262 975 236 971 q 267 970 263 970 q 320 971 289 970 q 355 967 355 970 q 317 924 319 924 q 304 909 311 924 q 298 899 298 903 q 298 891 298 894 q 291 862 291 877 q 288 845 288 850 q 294 770 288 787 q 289 742 289 745 q 294 736 290 742 l 294 734 l 290 717 l 291 708 l 288 618 q 289 614 289 618 q 279 606 279 607 q 279 595 279 605 q 277 586 277 588 l 277 566 l 280 564 l 280 553 q 277 549 277 551 l 277 533 q 280 528 280 530 l 280 517 q 281 513 280 515 l 280 512 q 281 511 280 511 q 280 498 280 503 l 280 471 q 272 456 272 458 l 272 450 q 288 420 272 441 l 289 414 l 289 349 q 286 339 286 341 l 286 287 q 286 275 286 283 q 297 261 286 274 l 297 253 l 294 243 q 296 231 295 232 q 295 229 295 230 q 300 208 296 220 l 300 152 q 303 110 300 116 q 302 109 303 109 q 317 53 308 65 q 347 29 328 41 q 366 1 363 15 q 365 0 365 1 q 275 4 305 4 l 272 4 q 262 3 268 4 q 252 9 252 3 q 243 13 248 13 l 233 13 q 215 4 222 13 l 209 1 l 183 3 q 182 2 182 3 l 178 3 l 168 3 q 168 3 168 3 l 163 1 l 157 1 q 146 4 149 1 l 140 4 l 126 2 q 107 10 126 7 l 106 10 q 79 3 98 10 q 67 4 72 4 l 66 4 l 60 2 q 1 8 54 2 l 0 9 l 29 31 q 54 71 52 55 q 60 97 60 87 l 60 118 q 60 121 60 120 q 60 121 60 121 q 71 273 66 188 l 70 277 q 76 293 70 284 l 77 296 q 64 311 77 303 l 64 314 q 71 321 64 317 q 74 332 74 326 l 74 333 q 73 357 74 341 l 74 357 l 73 358 q 74 378 74 372 q 65 387 74 378 q 63 392 63 391 q 75 444 75 410 l 75 458 q 75 467 75 462 l 75 468 l 74 474 q 75 475 74 475 l 71 509 q 71 509 71 509 q 70 518 70 517 l 71 519 q 68 530 69 528 q 70 530 68 530 q 68 547 68 541 l 68 556 q 72 571 68 559 l 72 597 q 68 608 68 606 l 68 615 q 73 628 72 622 l 72 635 l 72 655 q 73 683 72 677 q 72 715 72 696 l 72 760 q 73 770 72 763 q 63 844 71 793 q 72 851 63 847 l 73 854 q 58 885 58 876 q 60 898 59 887 q 27 952 60 909 q 12 974 12 963 l 14 975 l 20 975 q 37 975 29 975 z "},"J":{"ha":543,"x_min":0,"x_max":545,"o":"m 355 972 l 408 972 q 409 970 409 972 q 408 968 408 968 l 419 968 q 425 968 422 968 q 430 968 427 968 l 437 968 q 444 972 440 970 q 461 967 452 968 q 465 950 465 953 q 484 961 474 952 q 500 968 490 965 l 504 968 l 510 968 l 510 971 l 511 972 l 523 972 q 543 967 538 967 q 545 965 545 966 q 534 960 544 963 q 510 925 518 951 q 503 810 503 887 q 500 791 502 810 q 500 772 500 789 q 497 768 500 768 q 496 765 496 766 l 496 751 q 500 739 500 743 l 500 736 q 500 711 500 725 q 504 696 500 706 q 499 669 504 669 q 489 664 489 668 l 488 659 q 503 656 490 657 q 504 654 504 655 q 503 631 503 631 l 500 628 q 500 627 500 627 l 500 624 l 500 618 q 504 613 500 615 q 503 601 503 605 q 505 562 503 578 q 504 506 504 531 l 504 484 q 503 473 504 480 q 508 454 503 471 l 508 452 q 504 428 508 441 l 504 418 q 500 409 500 410 q 505 398 505 401 q 505 393 505 395 q 500 378 505 392 q 500 375 500 377 q 500 368 500 374 q 481 238 488 238 q 467 189 475 213 q 453 172 453 177 q 455 161 454 171 q 441 144 455 158 q 439 126 439 138 l 414 92 q 397 81 405 81 q 384 63 391 81 q 355 45 373 54 q 345 34 345 41 q 330 22 345 32 q 306 14 330 18 q 286 6 288 10 q 273 0 278 0 l 168 0 q 131 8 138 0 q 125 11 129 11 l 121 11 q 119 10 120 11 q 83 25 98 16 q 53 52 68 38 q 36 65 41 56 q 26 83 33 79 q 6 122 20 86 q 4 138 5 122 q 0 141 0 140 l 0 146 q 4 166 0 153 q 3 174 3 172 q 4 184 3 179 l 3 198 q 14 220 3 205 q 18 263 16 220 q 31 283 24 268 q 47 300 39 298 l 53 300 l 53 302 q 94 352 53 325 q 147 372 132 372 q 175 383 149 372 q 192 385 185 385 l 193 385 q 176 363 193 382 q 165 352 170 352 q 157 338 157 352 q 123 291 127 305 q 113 226 113 264 l 113 208 q 118 179 113 199 q 145 140 118 156 q 152 131 152 133 q 151 129 151 130 l 153 128 l 162 128 q 168 129 164 128 q 182 121 170 129 q 192 121 191 121 q 201 129 193 121 l 212 129 q 215 136 214 136 l 239 136 q 244 151 239 140 q 273 165 257 155 q 300 219 287 185 q 306 239 306 229 q 306 254 306 243 q 317 306 306 256 q 317 309 317 307 q 315 321 317 317 q 316 332 316 328 l 316 334 q 319 345 316 335 l 319 346 q 312 351 319 347 l 312 351 q 319 362 312 359 q 323 374 323 369 l 323 375 l 323 378 l 319 378 l 319 400 q 320 457 319 431 q 319 503 319 469 l 319 506 q 323 514 319 507 q 316 530 316 528 q 313 567 313 560 l 313 616 q 305 675 313 631 l 305 677 q 306 778 306 745 q 313 787 313 785 l 313 789 q 313 795 313 790 l 308 795 q 302 802 302 797 q 302 813 302 806 q 299 848 299 833 l 299 876 q 295 892 295 888 l 295 893 q 296 895 295 895 q 299 894 297 894 l 299 895 q 295 899 295 895 q 296 909 296 906 q 285 939 296 922 q 254 967 285 940 l 254 968 l 310 968 q 327 968 316 968 q 330 964 330 964 l 332 964 q 335 968 332 967 q 353 968 347 968 l 355 968 l 355 969 l 355 972 z "},"K":{"ha":867,"x_min":10,"x_max":882,"o":"m 322 979 q 346 972 341 979 q 348 970 348 972 q 328 948 348 966 q 302 896 302 912 l 302 893 q 303 878 302 887 q 287 842 288 846 q 285 829 286 829 l 286 821 l 286 794 q 294 749 288 749 q 297 748 296 749 q 298 726 298 734 l 298 717 q 292 686 298 703 q 291 678 292 684 q 292 604 292 634 l 292 595 l 292 595 q 317 619 315 618 q 338 642 329 622 q 368 686 347 663 q 414 732 404 716 q 490 811 414 736 q 507 844 503 838 q 555 897 549 884 q 580 933 558 901 q 579 934 580 934 l 580 941 l 580 945 q 577 968 580 951 l 577 970 q 578 972 577 972 l 583 972 l 583 972 l 581 977 l 582 977 l 585 977 q 608 971 597 971 l 616 971 q 644 972 626 971 q 654 967 648 972 q 661 966 659 966 q 764 972 680 966 q 793 971 777 971 l 794 971 q 823 977 805 971 l 827 977 q 831 971 829 977 l 841 971 q 859 972 847 971 l 860 970 l 860 967 q 776 913 813 941 q 665 818 712 862 q 593 728 627 777 q 469 592 541 665 q 432 555 468 592 q 461 499 432 552 q 471 471 465 489 q 492 456 486 463 q 518 429 500 449 q 543 393 528 420 q 600 299 583 321 q 631 262 618 271 q 657 234 657 245 q 692 192 657 227 q 741 125 718 162 q 798 59 760 96 l 869 7 l 882 -7 l 882 -7 q 877 -12 877 -11 q 863 -12 872 -12 q 836 -13 840 -13 q 791 -7 817 -13 l 790 -7 l 762 -13 l 736 -13 q 733 -11 734 -13 l 733 -10 l 734 -9 q 732 -7 732 -7 q 711 -7 714 -7 q 702 -13 705 -12 q 686 -12 687 -12 q 668 -13 669 -13 q 642 -4 643 -4 q 633 -1 642 -2 q 602 -7 629 -1 q 579 -7 586 -7 q 511 -7 518 -7 q 510 -6 511 -6 q 522 22 522 14 q 453 149 522 56 q 388 246 393 239 q 363 283 368 267 q 347 313 355 313 q 334 326 334 319 q 301 383 334 337 q 286 397 293 397 q 279 271 286 357 l 279 264 q 289 239 279 246 q 292 233 292 236 q 285 214 285 216 q 292 173 285 197 q 292 151 292 164 l 290 104 q 297 65 290 81 q 326 28 297 47 q 353 0 348 8 l 353 -1 l 235 -1 q 222 5 233 -1 l 222 5 q 215 -1 215 5 l 214 -1 l 168 -1 q 160 -6 163 -1 q 157 -7 159 -7 q 144 -2 153 -7 q 142 -1 143 -2 q 113 -2 124 -2 l 94 -2 q 64 -1 83 -2 q 56 -7 60 -1 l 12 -7 q 10 -5 10 -7 q 35 12 14 -2 q 63 75 56 41 q 66 102 65 83 q 66 121 66 116 q 72 196 66 138 l 72 197 q 71 210 72 200 q 91 224 71 216 q 100 234 98 231 q 96 240 96 237 l 73 240 q 72 241 72 240 l 72 248 q 71 261 72 254 q 77 294 77 293 q 78 298 78 294 q 77 353 78 306 l 84 403 q 78 436 84 425 l 78 477 q 72 519 78 498 l 72 521 q 77 540 72 528 q 77 556 77 551 q 77 616 77 589 l 77 636 q 77 673 77 651 q 83 696 77 678 q 83 704 83 700 q 77 728 83 706 q 77 737 77 735 l 78 754 q 77 769 77 762 l 77 795 q 71 835 73 820 q 84 857 71 847 l 84 859 q 72 865 72 864 l 72 869 q 73 902 72 882 q 48 933 73 909 q 22 970 47 938 l 22 972 q 42 970 26 970 q 83 972 58 970 q 119 966 83 968 q 145 960 134 960 l 163 960 q 291 977 208 960 q 322 979 315 979 z "},"L":{"ha":781,"x_min":0,"x_max":775,"o":"m 245 975 q 267 970 256 975 q 290 968 275 968 l 334 968 q 345 966 345 968 q 327 945 334 958 q 301 894 301 918 q 288 851 301 871 q 282 830 282 844 q 288 778 282 826 q 288 764 288 770 l 288 752 q 294 713 288 744 l 294 709 q 293 682 294 692 l 294 644 q 282 581 294 614 q 281 568 281 573 l 281 564 l 285 466 q 279 439 285 444 l 278 435 l 278 433 q 290 357 278 397 q 294 342 290 355 l 294 341 q 283 327 294 334 q 282 296 282 306 l 282 283 q 288 257 282 269 l 288 249 q 282 227 282 231 q 283 142 283 177 q 382 132 331 132 l 384 132 l 407 136 q 416 138 410 136 q 465 132 430 138 l 472 132 q 541 147 479 132 q 623 184 606 161 q 644 149 637 170 q 683 87 651 127 q 715 54 686 85 q 721 52 719 52 q 726 54 724 54 q 737 35 730 54 q 754 22 739 30 q 775 1 775 5 q 773 1 774 1 l 743 7 l 741 7 q 709 5 713 5 q 696 10 703 5 q 694 10 695 10 q 649 12 665 12 l 623 12 q 597 8 597 12 q 591 5 597 6 q 578 10 587 5 l 570 12 q 526 10 550 12 q 424 12 500 10 q 262 10 322 10 q 245 2 252 10 q 237 0 241 0 q 212 6 212 0 q 201 12 212 9 q 189 10 197 12 q 117 12 130 12 q 78 10 110 12 q 60 12 71 12 l 58 12 q 28 4 51 12 q 1 1 10 1 l 0 2 q 35 34 5 9 q 50 58 44 45 q 64 81 64 72 q 62 87 62 85 l 62 90 q 72 109 62 99 q 74 120 74 117 q 73 150 73 139 l 73 156 q 73 164 73 160 q 79 201 79 190 q 73 267 78 223 l 73 273 l 75 333 q 68 363 75 343 q 67 368 67 363 q 73 376 67 370 l 80 450 q 83 464 83 455 l 83 536 q 85 570 83 544 q 79 582 85 577 q 78 593 78 586 q 79 629 78 606 q 73 702 73 692 l 73 757 q 73 793 73 770 q 79 808 73 795 l 79 812 q 68 826 79 817 l 66 836 q 68 867 68 858 q 58 913 62 884 q 22 962 58 929 q 16 969 17 966 l 17 970 l 62 970 q 73 970 66 970 q 87 966 79 970 q 94 965 91 965 l 115 970 q 129 970 121 970 q 239 975 155 970 l 242 975 l 245 975 z "},"M":{"ha":964,"x_min":0,"x_max":962,"o":"m 910 981 l 912 981 l 912 966 q 915 894 912 940 l 915 878 l 903 853 l 903 851 q 914 804 908 814 q 915 801 915 804 q 921 588 915 707 l 920 583 l 925 546 q 913 523 922 536 q 909 511 911 519 q 914 403 910 498 l 924 391 q 924 385 924 387 q 924 356 924 379 q 926 341 926 346 l 926 334 q 920 325 926 328 q 910 311 910 325 q 905 289 905 298 l 905 282 q 911 236 905 275 q 917 195 911 221 q 909 186 917 194 l 909 168 q 910 161 909 165 l 909 160 q 910 157 909 159 q 909 146 909 150 l 909 140 q 914 132 909 138 q 915 128 914 130 l 914 117 q 930 41 914 71 q 958 12 930 36 l 962 6 q 960 5 961 5 q 900 13 909 5 q 888 14 895 14 l 880 8 q 843 9 875 8 q 800 7 824 9 q 799 8 799 7 l 794 7 l 783 7 l 778 7 l 778 7 l 777 7 q 714 3 735 6 l 713 5 q 742 47 713 12 q 751 67 749 59 q 751 180 751 149 q 755 196 755 193 q 749 207 755 199 l 749 216 q 751 250 749 218 q 748 408 749 327 q 755 534 753 511 q 751 568 753 560 q 724 542 747 568 l 720 541 l 714 541 q 689 513 709 532 q 664 481 687 504 q 643 475 650 481 q 629 457 641 475 q 586 410 586 416 q 580 400 585 410 q 555 409 577 400 l 555 409 q 536 391 549 408 q 526 378 532 388 q 504 362 514 366 q 477 332 477 334 q 475 328 475 329 l 473 328 q 450 351 460 334 q 427 371 434 363 l 427 391 q 407 406 414 404 q 383 397 385 397 q 349 439 372 418 q 325 467 328 458 q 300 479 317 479 q 275 506 283 492 q 257 526 275 509 q 249 539 252 532 l 248 538 l 243 538 q 218 562 237 538 q 212 566 217 562 q 207 531 207 543 q 214 405 209 509 q 212 246 214 324 q 214 213 214 216 l 214 204 q 207 193 207 196 l 212 176 q 212 64 212 151 q 239 20 213 52 q 250 1 250 6 q 249 0 249 1 q 185 4 228 3 l 185 5 q 184 4 184 5 l 179 5 l 169 5 l 164 5 q 163 5 163 5 q 118 6 140 6 q 81 5 90 5 q 72 12 76 12 q 52 5 66 12 q 1 2 31 2 l 0 4 q 32 37 32 33 q 49 113 49 68 l 49 114 l 47 125 q 53 135 47 130 l 53 142 q 52 155 53 147 l 53 156 q 52 157 53 157 l 53 164 l 53 183 q 45 193 45 191 q 53 248 51 212 q 58 279 58 264 l 58 286 q 49 319 52 319 q 37 330 37 324 l 37 338 q 39 354 37 342 q 38 384 38 376 q 49 399 38 390 l 49 400 q 54 508 52 480 q 39 538 51 519 q 37 545 37 541 q 43 578 43 578 l 42 586 q 47 799 47 701 q 60 848 54 810 l 60 849 q 47 875 60 851 l 47 891 q 51 962 51 937 l 51 979 l 52 979 q 73 964 60 975 q 104 950 92 950 q 128 951 117 951 q 183 899 140 932 q 241 844 185 897 q 338 760 288 809 q 350 751 350 754 q 348 731 348 738 l 348 728 q 410 667 383 701 l 439 641 q 471 635 453 641 q 479 617 471 631 q 493 639 488 625 q 516 643 509 643 q 534 654 527 643 q 585 706 549 667 l 614 731 l 614 734 q 612 755 614 739 q 641 779 624 761 q 725 849 687 821 q 808 925 773 897 q 835 954 823 938 l 836 954 q 859 953 845 954 q 901 975 875 953 q 910 981 901 977 z "},"N":{"ha":838,"x_min":77,"x_max":913,"o":"m 632 979 q 661 977 654 977 l 710 977 q 751 973 724 973 l 751 973 q 779 977 768 973 l 913 977 l 913 976 q 886 954 911 972 q 864 925 879 945 q 849 859 856 925 l 849 838 q 850 814 849 828 q 844 809 847 809 l 844 804 l 844 787 q 851 779 851 783 q 854 715 854 724 q 853 708 853 709 q 854 695 854 703 q 846 684 854 691 l 846 683 q 857 651 855 683 l 857 650 q 856 616 857 641 q 857 585 857 596 q 853 571 853 574 l 853 565 q 854 533 853 538 q 853 500 853 513 q 854 394 853 475 l 853 391 q 854 389 854 390 q 853 351 853 360 q 844 338 844 340 l 844 323 q 842 307 842 309 q 853 288 845 299 q 854 285 853 286 q 851 271 851 275 l 851 232 q 849 218 849 222 l 849 145 q 855 119 849 119 q 863 111 863 117 q 851 73 857 111 q 856 67 852 73 q 853 33 854 60 l 857 17 l 857 -21 q 852 -77 857 -77 q 844 -49 850 -75 q 825 -11 841 -37 q 784 54 825 -5 q 739 121 739 120 q 707 165 715 149 q 680 186 698 176 q 672 202 672 190 q 650 213 672 205 q 637 236 647 216 q 591 279 601 277 q 568 298 574 289 l 568 321 q 534 360 564 330 q 484 406 493 404 q 460 397 463 397 q 426 439 448 418 q 400 469 406 457 l 391 477 q 370 484 374 477 q 349 512 353 503 q 327 538 328 530 l 320 538 q 295 562 314 538 q 290 565 294 562 q 284 531 286 557 q 292 405 286 509 q 288 247 291 323 q 291 212 291 218 l 291 204 q 284 193 284 196 l 288 176 q 290 64 288 151 q 317 20 290 52 q 327 1 327 5 l 325 0 q 263 4 294 4 l 262 5 q 261 4 261 5 l 257 5 l 246 5 l 241 5 q 241 5 241 5 q 197 6 216 6 q 159 5 165 5 q 150 12 152 12 l 149 12 q 130 5 142 12 q 78 3 111 3 l 77 4 q 108 35 108 33 q 126 115 126 66 l 126 116 q 125 125 125 125 q 130 136 125 130 l 130 137 q 130 155 130 149 q 130 176 130 163 l 130 183 q 123 192 123 191 q 130 248 129 218 q 135 281 135 264 l 135 286 q 127 319 135 292 q 113 331 113 324 q 116 354 114 342 q 115 382 115 376 q 125 398 115 391 q 126 400 126 399 q 131 508 129 479 q 115 541 131 513 l 115 545 q 120 578 120 578 q 119 587 119 585 q 125 799 125 702 q 135 837 135 821 q 137 849 136 837 q 125 874 136 854 l 125 890 q 128 963 128 936 l 128 978 l 130 978 q 150 963 138 975 q 181 949 170 949 q 205 950 194 950 q 263 895 221 928 q 317 844 281 879 q 400 774 357 814 q 425 755 414 759 q 427 751 427 753 q 425 731 425 737 l 425 727 q 484 672 447 713 q 517 641 515 641 q 547 635 530 641 q 593 579 547 623 q 670 513 635 541 q 703 480 684 502 l 703 522 q 701 557 703 527 q 702 583 701 564 q 701 592 702 585 q 702 608 702 599 q 689 643 702 616 q 704 688 704 661 l 704 705 q 696 748 704 748 q 685 764 685 758 q 689 772 685 766 q 692 793 692 785 l 692 814 l 694 821 l 694 822 q 687 834 694 825 l 687 863 q 675 925 682 913 q 632 978 665 951 l 632 979 z "},"O":{"ha":935,"x_min":0,"x_max":932,"o":"m 518 972 q 551 962 531 972 q 604 956 574 956 l 610 956 q 647 958 623 956 q 703 924 670 952 q 749 886 718 898 q 783 873 783 879 q 804 843 787 873 q 845 766 845 792 q 848 734 846 760 l 846 734 q 865 720 846 730 q 878 685 868 720 q 882 677 878 685 q 895 680 883 677 q 899 647 896 680 q 915 595 907 605 q 932 535 932 581 l 932 530 q 918 397 932 503 q 909 345 912 378 q 868 250 897 302 q 850 233 867 243 q 840 202 840 218 l 839 201 q 825 204 833 204 q 799 180 806 204 q 800 172 799 180 q 763 127 800 140 q 661 84 713 104 l 661 71 q 722 91 687 87 l 723 90 q 675 53 700 62 q 610 24 650 35 q 500 7 550 7 q 475 8 476 8 q 429 0 448 0 l 426 0 q 368 20 403 0 q 366 21 366 21 q 347 19 349 19 q 295 49 317 19 q 260 47 275 47 l 258 47 q 236 60 245 47 q 182 99 208 88 q 172 108 172 103 q 167 127 168 123 q 132 144 134 139 q 68 216 91 185 q 33 306 35 304 q 16 330 17 319 q 5 393 5 359 l 6 422 q 0 439 0 427 l 0 448 q 11 576 0 476 q 39 661 26 647 q 69 714 51 680 q 93 743 77 726 q 124 793 108 763 l 172 807 l 172 808 q 167 821 169 810 q 197 859 167 837 q 271 914 238 895 q 298 931 296 928 l 298 932 q 321 924 304 932 l 327 924 q 362 945 343 924 q 366 951 364 951 q 396 949 383 949 q 450 962 415 949 q 518 972 450 968 m 327 742 l 316 745 l 316 732 q 296 724 315 730 q 288 696 290 697 q 251 645 262 678 q 240 587 245 625 q 220 579 220 580 q 227 564 226 570 l 227 534 q 220 477 220 511 q 220 397 220 452 q 255 288 220 366 q 279 270 255 275 q 292 256 283 270 q 309 230 302 244 q 353 194 332 205 l 372 194 l 400 166 l 434 166 q 469 153 453 153 l 475 153 q 485 157 483 153 q 531 174 494 163 q 554 164 540 164 l 556 164 q 642 216 590 164 q 675 269 661 241 q 690 296 686 269 q 705 351 696 337 q 709 389 709 371 q 716 408 710 390 q 702 428 702 408 q 701 463 701 453 q 711 496 701 490 q 716 497 713 497 q 698 604 709 519 q 690 625 696 625 q 673 665 673 642 q 675 682 673 673 q 635 730 661 705 q 597 766 598 766 q 572 786 585 770 q 510 808 515 808 q 444 813 452 813 l 435 813 q 368 783 374 787 q 344 750 358 772 q 327 742 337 742 z "},"P":{"ha":759,"x_min":29,"x_max":787,"o":"m 420 975 l 426 968 q 441 966 431 966 l 466 966 q 532 956 521 956 q 551 956 534 956 q 578 947 564 956 q 593 945 586 945 l 614 945 q 635 936 625 945 q 647 928 647 928 q 648 916 648 924 q 637 906 637 907 q 652 903 647 903 q 662 916 654 903 q 665 916 663 916 l 667 916 q 688 905 680 905 q 728 851 688 903 q 755 819 745 826 q 759 808 759 814 l 759 805 q 756 772 756 776 q 781 715 756 761 q 787 684 787 699 l 787 661 q 725 452 787 568 q 688 404 709 428 q 637 372 659 377 q 578 357 611 357 q 412 393 512 357 l 385 401 q 351 441 385 406 q 338 476 340 459 q 345 478 340 477 q 361 470 347 478 q 370 467 368 467 l 375 468 q 405 465 387 465 l 480 468 q 511 467 488 468 q 553 522 531 467 q 570 573 563 557 q 578 595 578 583 q 577 623 578 616 l 581 653 q 555 701 581 667 q 551 713 551 707 l 551 721 q 552 730 551 726 q 494 814 552 753 q 440 836 471 836 l 437 836 q 370 837 418 836 q 335 826 353 837 l 309 826 q 308 815 309 821 q 309 703 309 745 l 309 693 q 319 684 319 693 q 319 670 319 676 q 319 613 319 620 q 320 608 320 610 q 302 601 318 606 q 297 583 297 599 l 297 582 q 307 572 297 575 q 309 561 309 568 q 308 448 309 471 q 309 437 309 445 l 307 436 l 302 440 q 297 429 297 439 q 302 402 297 402 q 311 391 308 402 q 319 372 319 385 q 318 343 319 359 q 319 330 319 336 q 309 283 319 324 q 308 275 308 278 q 319 194 313 221 q 323 183 319 183 q 330 154 330 174 l 330 144 q 328 81 330 130 q 343 34 328 47 q 386 -5 380 2 q 388 -12 388 -11 l 387 -12 l 316 -12 q 273 -13 301 -12 q 260 -3 264 -13 q 254 -1 254 -1 q 245 -3 245 -3 q 236 -12 245 -12 l 231 -13 q 218 -2 230 -13 l 212 -2 q 168 -1 194 -2 q 159 -2 163 -2 q 134 9 142 9 l 133 9 q 111 4 111 9 q 109 -2 111 -2 l 94 -1 q 43 -1 60 -1 q 30 -2 41 -1 l 29 -1 q 58 26 37 9 q 81 56 72 38 q 90 85 90 77 q 89 102 90 100 q 90 122 90 113 q 87 179 87 176 q 98 186 87 184 q 99 191 99 188 q 98 208 99 200 q 100 244 100 222 l 100 248 q 98 270 100 260 q 99 286 99 278 q 89 296 99 293 l 89 297 q 100 320 91 304 q 98 334 100 334 q 99 357 99 349 l 99 429 q 98 503 99 456 q 103 506 100 506 l 117 506 q 119 508 119 506 q 103 531 113 526 q 98 536 100 531 q 99 576 98 542 q 98 657 99 602 q 100 740 100 734 q 98 772 100 743 q 99 793 99 783 l 98 799 l 92 799 q 89 836 89 799 l 89 841 q 98 844 89 844 l 98 848 q 89 866 98 850 l 89 869 q 90 884 89 874 q 65 924 82 906 q 41 959 49 933 q 39 965 39 964 l 41 966 l 105 966 q 115 957 111 966 q 134 955 119 955 q 166 966 136 955 l 170 966 q 182 955 178 955 q 201 965 193 955 l 205 966 l 263 966 q 325 968 282 966 q 350 966 332 968 q 351 966 351 966 l 354 966 q 380 965 377 965 q 413 975 391 965 l 420 975 z "},"Q":{"ha":967,"x_min":-173,"x_max":1148,"o":"m 295 972 q 303 968 300 968 l 304 968 q 313 970 306 968 q 328 962 317 962 q 351 966 336 964 q 375 970 351 968 q 379 972 375 970 q 395 970 391 970 l 401 970 l 412 967 q 429 968 423 968 q 440 966 439 966 l 443 966 q 450 966 446 966 q 469 949 460 964 l 501 936 q 608 871 552 913 q 653 835 635 850 q 681 808 653 831 q 712 768 712 771 q 754 692 751 711 q 751 684 751 686 q 770 651 751 680 q 775 635 775 643 q 767 622 768 627 q 775 601 773 610 q 773 585 773 588 q 779 565 777 585 q 789 540 781 556 q 789 535 789 538 q 783 507 783 522 q 797 494 783 505 l 797 492 q 793 457 794 472 q 794 450 794 452 l 794 427 q 785 387 794 422 l 785 386 q 794 396 793 396 l 797 396 q 782 341 790 361 q 769 311 776 331 l 764 298 q 742 271 747 283 q 734 260 740 264 q 732 267 733 261 l 731 267 q 730 261 731 261 q 728 269 728 262 q 728 277 728 274 l 728 277 q 723 267 723 274 l 723 261 q 726 254 726 257 q 710 211 720 254 q 682 190 701 200 q 660 157 672 168 q 638 136 639 136 q 628 120 635 124 q 615 104 628 118 q 608 100 612 100 q 602 100 608 100 q 591 94 597 94 l 591 94 q 618 85 594 94 l 618 85 q 623 93 621 85 l 625 94 q 655 80 630 94 q 740 49 667 80 q 844 -24 796 22 q 861 -48 858 -43 q 859 -53 859 -50 l 859 -54 q 892 -94 882 -75 q 907 -122 907 -111 q 922 -132 909 -124 q 962 -162 938 -143 q 1037 -195 985 -184 q 1058 -203 1058 -197 q 1061 -204 1058 -203 q 1131 -176 1112 -191 l 1148 -163 l 1148 -165 q 1075 -222 1115 -222 l 1069 -222 q 1059 -229 1067 -222 q 1048 -234 1049 -234 q 1007 -229 1042 -231 q 992 -217 998 -229 q 977 -210 983 -210 q 974 -219 975 -219 q 916 -192 957 -214 q 896 -182 903 -192 q 888 -170 895 -182 q 826 -119 873 -160 q 755 -73 784 -87 q 744 -68 755 -72 q 733 -72 740 -69 q 728 -62 729 -72 q 704 -39 726 -62 l 701 -39 q 698 -41 701 -41 l 698 -48 l 696 -50 q 619 -22 668 -37 l 615 -22 q 570 -24 581 -24 q 568 -23 569 -23 l 568 -22 l 569 -18 l 565 -18 q 545 -18 548 -18 q 488 -13 537 -18 l 482 -13 q 439 -21 467 -13 l 438 -21 q 412 -10 436 -21 q 383 -20 390 -20 q 332 -1 342 -1 l 291 1 q 273 -3 278 -3 q 258 0 271 -3 l 250 -1 q 219 3 245 1 q 181 14 183 11 q 179 23 179 18 q 172 22 176 22 q 106 55 153 22 q 102 64 102 60 q 106 66 104 66 q 138 58 111 66 q 159 55 154 57 q 165 56 163 56 q 179 54 172 56 l 196 56 l 201 55 q 218 57 204 55 q 227 56 224 56 q 243 57 237 57 l 245 56 q 263 59 247 58 q 272 68 263 61 q 287 68 285 68 q 298 78 288 68 q 313 73 304 75 q 330 84 325 84 l 337 84 q 340 88 339 84 l 346 87 q 359 94 359 91 q 359 96 359 95 q 393 106 375 106 q 400 104 397 106 l 402 104 q 448 145 410 104 q 494 185 456 145 q 539 233 503 185 q 555 254 550 250 q 577 289 555 256 q 604 358 597 336 q 618 427 615 392 q 608 484 608 479 q 609 487 608 486 q 604 514 604 498 q 595 522 601 519 q 584 553 591 553 q 569 573 581 562 l 549 609 q 538 628 545 609 q 523 640 533 637 q 517 649 520 640 q 513 652 515 649 l 513 658 q 487 680 513 672 q 449 714 470 700 q 406 734 434 723 l 393 744 q 387 742 389 742 q 378 749 381 749 q 368 747 374 747 q 338 760 366 747 q 330 761 331 761 q 307 758 315 760 q 300 760 303 760 q 271 751 288 760 l 269 751 q 262 758 263 758 q 240 747 260 758 q 205 741 233 745 q 191 730 199 739 q 152 710 181 724 q 146 694 149 707 q 123 685 140 690 q 121 683 123 684 l 122 679 l 122 675 q 92 652 115 675 q 83 642 83 650 q 56 604 83 622 q 40 566 40 584 q 31 522 40 536 q 22 504 22 505 l 22 502 q 26 487 22 495 q 19 479 24 487 q 13 478 16 479 l 13 477 q 22 451 20 461 l 22 444 q 22 440 22 441 l 28 416 q 21 396 21 399 l 21 395 q 37 360 21 391 q 58 302 43 332 q 78 273 68 292 q 101 247 81 271 q 141 229 109 237 q 153 219 143 219 l 157 219 l 156 223 l 157 224 q 187 215 170 218 q 190 210 190 211 l 193 210 q 212 201 201 210 q 219 202 217 202 l 222 202 q 244 194 224 202 q 281 204 262 194 q 289 201 284 204 q 291 203 289 203 q 315 202 298 203 q 357 207 326 205 q 376 221 365 212 l 384 221 q 420 256 410 243 q 439 277 431 270 l 443 277 q 448 264 446 277 q 425 189 448 237 q 392 146 414 168 q 344 117 372 130 l 339 117 q 330 122 334 117 q 315 130 323 122 l 314 130 l 315 129 l 315 127 q 312 125 315 125 l 313 120 q 305 107 313 111 l 304 107 q 304 108 304 107 q 235 81 259 84 l 235 81 q 227 90 233 81 q 224 90 224 90 q 218 77 221 90 q 208 76 212 76 l 199 76 q 190 77 195 76 l 188 77 q 183 80 187 77 l 182 80 q 172 75 177 75 l 170 75 q 151 73 160 75 q 123 77 123 75 q 114 88 114 85 q 96 84 100 84 l 94 84 q 60 96 60 96 q 56 100 60 97 q 44 94 49 95 q 22 117 22 101 q 6 127 21 119 q -18 143 5 131 q -33 153 -22 148 q -35 158 -35 156 l -35 168 q -51 181 -35 176 q -56 179 -52 179 l -56 179 q -89 217 -69 189 q -132 288 -123 258 q -163 384 -147 321 q -170 418 -170 412 q -167 430 -167 430 l -170 435 l -170 462 q -173 475 -170 463 l -173 477 q -167 488 -173 480 q -170 526 -169 488 q -165 578 -168 547 q -168 586 -168 583 q -149 610 -168 589 q -144 628 -146 622 q -133 645 -133 643 q -134 646 -133 646 q -123 683 -130 683 q -116 694 -119 692 q -109 711 -110 700 q -92 747 -92 741 l -77 772 q -71 777 -77 772 l -70 777 q -64 760 -66 760 l -62 760 q -53 785 -53 775 q -54 791 -54 789 q -52 793 -52 791 q -47 791 -50 791 q -33 808 -47 800 q -28 819 -30 808 l 28 867 q 42 877 30 870 q 64 895 45 883 q 97 912 64 899 q 117 926 102 920 q 145 940 127 934 l 146 940 q 157 937 149 940 q 200 954 171 937 q 227 966 208 954 l 250 966 q 252 968 250 968 q 269 967 263 967 l 295 972 z "},"R":{"ha":935,"x_min":0,"x_max":1088,"o":"m 378 981 l 409 981 q 437 972 415 972 q 443 970 440 970 l 448 970 q 466 967 450 970 l 496 967 q 505 970 503 970 l 523 970 q 533 970 527 970 q 541 970 533 970 q 558 955 550 955 q 606 948 558 952 l 614 948 q 642 921 623 948 q 666 900 650 918 q 701 852 674 892 q 722 821 722 828 l 722 815 q 718 804 722 813 l 718 801 q 733 776 718 798 q 739 753 739 766 q 723 632 739 718 q 717 619 722 619 q 699 602 699 611 l 701 576 l 701 574 q 672 539 684 550 q 642 511 665 536 l 640 510 l 631 513 l 630 513 q 617 491 627 513 q 586 481 614 484 q 550 474 568 474 l 540 474 q 511 476 526 474 q 508 475 510 475 l 508 475 q 535 463 514 469 q 544 457 544 459 q 547 448 544 448 l 549 448 q 565 458 558 458 q 629 446 585 454 q 641 435 641 441 q 684 376 651 418 q 699 349 699 353 q 696 338 696 340 q 711 304 703 304 q 729 298 726 304 q 749 271 729 295 l 749 264 q 747 258 749 262 l 747 257 q 760 250 747 254 q 766 230 762 247 q 799 199 774 214 q 828 168 817 185 q 941 82 848 150 q 972 63 951 75 q 978 64 976 64 q 1005 46 980 64 q 1015 43 1010 43 q 1035 34 1023 43 q 1088 5 1053 23 l 1088 3 l 1072 3 q 1031 1 1040 1 l 947 1 q 897 3 940 1 l 893 3 q 889 7 890 7 q 876 7 886 7 q 869 1 876 7 q 867 1 868 1 q 791 16 848 1 q 768 24 774 16 q 732 51 764 29 q 714 66 718 66 l 706 66 q 705 66 705 66 q 705 66 705 66 q 692 66 696 66 l 677 66 q 606 121 648 96 q 561 161 583 134 q 535 185 535 184 q 527 207 532 207 q 488 249 527 210 q 485 255 485 254 l 485 268 q 432 341 485 273 q 416 363 416 360 q 416 368 416 363 l 416 380 q 387 420 412 395 q 372 431 376 423 q 358 459 369 443 q 357 461 357 461 q 357 464 357 463 q 357 474 357 470 l 357 475 q 348 481 355 478 q 319 531 341 496 q 301 565 319 536 l 301 568 q 304 568 302 568 q 381 561 368 561 q 395 570 381 570 l 406 570 q 460 569 425 570 q 494 585 494 572 q 522 659 506 608 q 524 675 524 665 q 497 747 524 703 q 496 750 497 749 q 498 762 498 758 q 467 806 498 772 q 444 823 458 823 q 433 836 441 825 q 390 844 403 844 q 366 845 382 845 q 359 838 361 845 q 355 836 357 836 l 341 836 q 325 837 334 836 l 288 833 q 277 834 283 834 q 273 823 273 831 l 273 823 q 276 787 276 795 l 276 748 l 288 733 l 284 715 l 284 713 q 282 608 284 696 q 271 599 271 604 l 271 560 q 274 559 274 560 l 274 548 q 271 547 274 547 l 271 528 q 274 522 274 525 l 274 465 q 266 450 266 453 l 266 441 q 282 413 266 435 l 283 408 l 283 342 q 281 334 281 335 l 281 285 q 281 282 281 283 q 281 279 281 281 l 281 268 q 292 251 292 257 q 290 239 292 250 l 290 237 q 290 225 290 233 l 290 224 l 296 202 q 308 61 296 79 q 334 34 308 52 q 360 1 360 17 q 298 3 311 3 q 298 5 298 3 l 294 3 l 257 3 l 252 3 q 238 13 249 13 q 215 5 221 13 q 208 0 215 3 q 167 3 208 1 q 165 1 167 1 l 156 1 q 149 5 151 1 l 144 5 q 133 2 139 5 q 125 7 130 2 q 111 9 116 9 l 107 9 l 84 3 q 74 5 75 5 q 68 2 70 2 q 14 7 14 6 l 14 8 q 51 49 46 35 q 62 85 57 58 q 63 91 62 90 q 62 110 62 103 l 62 138 q 63 144 62 140 q 62 147 62 145 q 65 193 65 188 l 65 220 q 66 227 65 222 l 65 228 q 66 242 66 236 l 66 252 q 66 259 66 255 l 65 273 q 72 286 65 279 l 72 289 q 60 303 72 297 l 59 305 l 59 309 q 68 327 68 317 q 67 353 67 340 l 67 370 q 58 381 67 373 l 56 386 q 67 429 67 405 l 67 441 q 59 540 67 448 l 59 555 q 62 566 62 564 l 62 591 q 59 602 59 600 l 59 610 q 62 616 59 614 q 61 673 61 653 l 61 752 q 52 835 61 783 q 52 841 52 839 q 60 850 52 846 q 61 853 60 852 q 47 884 47 874 q 49 897 47 885 q 16 951 49 908 q 0 975 0 963 l 1 975 q 28 976 23 976 q 53 972 52 972 q 68 973 56 972 q 77 970 71 973 q 85 970 83 970 q 99 970 93 970 l 107 970 q 123 962 109 970 q 134 959 129 959 l 157 959 q 173 964 173 959 q 186 975 182 975 q 193 976 189 976 l 193 976 q 203 972 197 976 l 248 975 q 277 979 261 979 q 332 972 286 979 q 361 980 337 972 q 378 981 365 981 z "},"S":{"ha":566,"x_min":0,"x_max":567,"o":"m 366 972 q 442 960 384 972 q 484 938 484 946 l 484 936 q 481 906 481 919 q 476 895 476 899 q 484 823 476 842 l 484 806 q 487 781 487 787 l 487 779 q 481 776 487 777 q 473 787 479 777 q 454 804 463 800 q 439 820 448 806 q 386 848 405 846 q 319 831 386 844 q 298 825 304 825 l 297 825 q 285 829 296 825 l 285 825 q 254 808 261 812 q 239 794 243 794 l 236 797 l 235 797 q 214 770 231 794 l 208 770 l 208 767 q 212 766 210 767 q 203 758 209 758 l 199 758 q 196 755 197 758 q 197 750 196 750 q 197 740 197 743 l 197 720 q 208 668 197 677 q 241 637 220 651 q 264 627 246 632 q 315 598 314 600 l 314 590 q 326 580 317 589 q 330 578 328 578 q 351 581 347 581 l 352 581 q 362 558 355 576 q 410 541 369 551 q 433 524 416 538 q 450 508 446 517 q 446 496 446 499 l 446 481 l 448 481 q 462 491 453 484 q 475 473 469 491 q 500 444 475 471 q 532 402 528 413 l 531 394 q 533 391 532 391 l 538 391 l 542 392 q 552 361 547 387 q 557 331 557 355 q 566 288 566 317 q 567 263 566 288 l 566 262 l 562 262 q 552 283 562 267 l 552 286 q 553 300 552 289 q 545 312 553 302 q 534 336 543 324 l 532 336 q 539 296 539 317 q 540 292 540 296 q 538 291 538 291 l 538 286 q 544 247 544 259 l 544 239 q 532 154 538 209 q 503 114 517 132 l 495 74 l 493 74 l 492 78 l 492 78 q 485 68 485 78 q 441 39 448 39 q 392 26 430 39 q 335 9 353 16 q 326 11 326 10 q 326 10 326 11 l 279 12 q 252 0 257 0 l 251 0 q 239 3 239 1 l 239 3 q 240 6 239 5 q 217 12 240 12 l 214 12 q 182 9 204 12 l 178 9 q 131 13 149 13 q 99 24 126 24 q 86 25 99 24 l 86 26 q 94 39 86 37 q 103 52 103 47 l 101 54 l 100 54 q 64 26 92 54 q 16 38 16 36 l 16 48 q 17 50 16 50 l 21 49 q 33 117 33 94 q 29 123 29 119 q 38 180 29 150 q 47 214 38 184 q 56 233 50 233 q 90 194 62 220 q 92 189 92 192 q 92 187 92 188 q 111 180 106 182 q 142 168 119 174 q 180 161 178 165 q 170 149 170 154 l 170 149 l 172 134 l 176 134 l 176 136 q 184 157 182 157 q 197 163 185 159 q 253 160 208 160 q 287 162 256 160 q 290 161 288 162 q 312 180 301 161 q 330 191 320 191 q 345 201 340 193 q 361 256 361 227 l 361 260 q 327 351 361 297 q 288 380 309 375 q 240 402 258 388 q 230 414 230 407 q 232 424 230 415 q 231 426 231 425 q 224 425 230 426 l 220 425 q 197 431 197 425 q 176 454 197 439 q 117 478 167 458 q 108 483 111 483 q 102 481 103 481 q 43 540 66 506 q 29 570 36 548 q 15 599 24 572 q 8 618 8 612 q 9 628 8 622 q 7 638 7 636 q 9 655 9 648 q 3 663 9 658 q 0 699 0 689 l 0 702 q 19 720 13 711 q 9 724 17 722 q 7 726 7 724 l 7 729 q 41 816 7 747 q 81 882 58 842 q 116 914 111 914 q 172 921 116 918 q 231 946 191 932 q 262 958 247 954 l 262 957 l 263 958 q 264 956 264 958 l 264 947 l 268 947 q 283 948 280 948 l 283 948 q 281 962 281 958 q 307 969 281 963 q 360 968 315 969 q 366 972 363 972 z "},"T":{"ha":768,"x_min":-3,"x_max":772,"o":"m 131 988 q 142 983 132 988 l 144 982 q 159 983 155 983 l 178 978 q 212 979 182 978 q 245 972 242 972 l 271 978 q 277 970 277 978 q 282 966 277 966 q 307 974 293 974 q 403 972 382 972 q 456 974 441 972 q 469 965 469 974 l 470 961 l 471 961 q 482 972 476 961 q 490 975 490 972 q 493 978 490 977 q 515 972 507 972 l 527 972 q 545 977 534 972 q 642 983 621 983 q 656 979 656 983 q 656 978 656 979 q 677 977 671 977 l 687 977 q 705 983 692 977 q 708 983 705 983 q 720 975 717 983 q 734 905 723 962 q 749 885 739 885 q 760 869 760 880 q 758 840 760 862 q 768 809 758 829 q 772 788 772 793 q 770 783 771 783 l 768 783 q 722 823 732 820 q 607 847 675 847 l 570 852 q 567 852 568 852 q 561 858 562 858 l 560 858 q 524 832 551 858 q 515 825 517 825 l 515 824 q 508 809 510 809 l 505 810 q 498 750 502 797 q 493 724 493 736 q 494 694 494 698 q 491 687 494 687 l 489 687 q 487 673 488 686 q 488 621 488 641 q 487 593 488 612 q 496 582 487 582 l 503 582 q 505 580 505 582 q 496 571 505 575 q 492 519 494 571 q 492 517 492 517 l 493 517 q 496 517 495 517 q 499 515 499 517 l 499 507 q 493 486 493 500 l 493 483 q 492 481 493 481 q 489 484 492 482 l 489 483 q 490 477 489 481 q 488 456 488 463 q 493 448 488 453 l 493 405 q 498 394 493 401 q 499 388 499 391 l 499 385 q 498 358 499 377 q 492 347 492 358 q 499 313 492 329 l 499 309 q 498 216 499 285 q 499 176 498 215 q 498 140 498 159 q 498 132 498 134 l 500 134 q 505 104 505 125 l 504 101 l 499 101 q 498 85 498 92 q 509 78 498 81 l 511 73 q 509 45 509 56 q 530 15 512 33 q 558 -9 551 3 q 556 -9 557 -9 q 492 -3 511 -3 l 475 -3 q 416 7 416 -3 q 401 10 416 9 q 382 7 399 10 l 376 7 q 371 -1 371 7 l 369 -1 l 366 -1 q 346 -4 363 -1 l 345 -4 q 285 -5 322 -4 q 273 1 282 -5 l 230 1 q 228 3 228 1 q 246 19 232 12 q 265 49 255 26 q 278 83 278 62 q 288 102 280 91 q 293 144 293 122 l 293 145 q 287 159 293 149 l 287 161 q 293 200 287 167 q 283 217 293 205 q 282 225 282 222 q 287 250 287 244 l 287 252 l 282 293 q 281 334 282 307 q 284 340 282 340 l 286 340 l 291 338 q 294 357 293 338 q 293 394 293 376 l 293 395 l 292 399 q 293 403 293 400 q 286 471 293 413 l 286 479 q 304 487 286 483 q 304 488 304 488 q 291 496 304 492 q 285 517 285 500 q 289 604 287 550 q 287 614 289 608 q 288 629 288 623 l 288 635 q 277 640 288 638 q 275 644 277 642 q 293 675 293 670 l 292 675 l 291 675 q 283 671 286 671 q 282 673 282 671 l 282 676 q 287 688 282 680 l 287 691 q 278 817 287 748 q 260 836 273 829 l 230 847 q 215 848 226 847 q 138 847 158 847 q 120 853 125 853 l 117 853 q 48 834 74 853 q 2 793 14 798 q -2 791 -1 791 l -3 799 q 12 879 -3 825 q 26 899 16 892 q 39 983 30 899 l 41 983 q 119 982 69 983 q 129 981 125 981 l 129 986 q 131 988 129 987 z "},"U":{"ha":919,"x_min":0,"x_max":914,"o":"m 218 974 l 220 974 q 235 962 231 962 l 237 962 q 270 972 245 962 l 273 972 q 317 972 284 972 q 369 972 351 972 l 370 970 q 346 954 359 960 q 319 908 319 926 q 312 854 315 890 q 308 829 308 845 l 308 780 q 300 696 308 755 q 288 677 297 690 l 297 664 l 304 635 q 304 601 304 618 q 298 510 304 531 q 298 502 298 505 q 303 458 303 466 l 303 439 q 308 398 303 422 l 308 390 q 304 388 308 389 q 303 386 304 387 q 319 319 308 351 q 324 294 321 311 q 341 283 341 291 q 345 250 343 283 q 361 218 349 231 q 378 193 378 207 q 416 170 382 182 q 447 150 425 168 q 455 151 452 150 q 473 150 465 150 l 476 150 q 483 144 483 150 l 486 144 l 501 144 l 508 139 l 509 139 q 523 151 509 146 q 536 149 534 149 q 567 161 541 149 q 576 164 569 161 l 578 163 q 609 183 600 172 q 629 194 616 194 q 669 248 661 216 q 680 308 675 268 q 699 340 684 317 q 705 370 705 355 q 704 407 704 390 l 704 526 q 699 576 704 539 l 699 725 q 700 781 699 741 q 694 819 700 789 q 693 838 693 826 l 693 844 q 699 855 693 850 l 699 858 q 690 870 699 862 q 688 876 688 873 q 688 888 688 880 q 672 926 688 906 q 637 971 637 962 l 638 972 l 669 972 q 675 972 671 972 q 697 966 683 972 l 725 966 q 739 965 726 966 l 739 965 q 781 972 750 965 l 782 972 q 806 966 802 966 l 810 966 q 822 971 812 966 q 831 972 826 972 l 913 972 q 914 970 914 971 l 914 962 q 899 949 904 956 q 868 896 869 910 l 868 893 q 869 882 869 883 q 854 854 869 878 q 850 813 850 836 q 858 744 850 761 q 859 741 858 742 l 852 688 l 854 640 l 848 608 q 849 545 848 595 q 848 524 848 524 q 848 518 848 520 l 848 501 q 838 442 848 471 q 850 425 838 437 q 854 406 854 415 q 853 362 854 395 l 852 362 q 853 361 852 361 q 848 341 853 359 l 848 338 q 848 302 848 317 l 848 296 q 823 223 842 275 q 806 197 823 221 q 793 155 802 192 q 788 141 791 141 q 780 138 788 139 l 765 138 q 745 105 751 138 q 690 54 738 91 q 631 24 669 36 q 543 9 566 9 q 498 10 513 10 q 490 3 490 10 q 484 0 488 0 q 404 17 471 0 q 363 25 368 17 q 339 42 359 35 q 264 68 279 60 q 229 100 237 79 q 226 107 229 100 l 227 109 l 229 109 q 260 113 256 109 l 259 113 q 184 129 224 113 q 117 250 141 201 l 92 307 l 92 309 q 97 327 92 313 l 87 491 l 87 493 q 92 530 87 497 q 75 543 75 539 q 74 553 74 549 l 74 563 l 77 606 q 75 636 77 618 q 87 690 75 646 l 87 693 q 75 729 87 699 q 71 814 72 733 q 73 843 72 823 q 67 860 73 860 l 66 863 q 68 892 68 888 q 37 939 68 909 q 14 951 37 942 q 0 971 0 963 l 1 972 l 105 972 q 113 971 109 972 q 116 972 115 972 q 125 966 125 972 q 144 966 138 966 l 147 966 q 170 972 156 966 l 176 972 q 213 971 186 972 q 218 974 215 971 z "},"V":{"ha":987,"x_min":0,"x_max":991,"o":"m 124 975 q 133 969 129 975 l 134 969 l 132 974 l 134 975 q 151 975 134 975 q 160 969 158 975 l 161 969 q 166 975 163 969 l 175 975 l 177 975 q 222 970 222 975 q 242 963 229 963 l 243 963 q 250 969 246 963 q 253 970 252 969 l 258 969 l 260 969 q 271 974 262 969 q 278 975 275 975 l 345 975 q 347 975 346 975 q 350 975 349 975 q 370 974 355 975 l 374 975 l 374 973 q 353 953 374 972 q 335 926 335 937 l 335 918 q 334 915 335 916 q 336 907 335 907 l 338 908 l 340 908 l 342 903 l 342 897 q 340 889 342 895 q 368 829 344 878 q 390 767 390 780 q 398 751 390 751 q 440 628 416 708 q 479 527 467 558 q 510 463 495 497 q 523 448 523 452 q 535 403 524 411 l 536 403 q 558 452 549 403 q 582 523 565 472 q 597 565 597 536 q 614 602 597 570 q 684 750 628 639 q 716 833 699 781 q 728 856 724 854 q 745 863 745 859 q 732 885 732 882 q 735 886 734 886 l 739 885 q 749 911 739 894 l 749 924 l 749 928 l 745 928 l 744 930 l 744 934 q 745 948 744 938 q 724 966 745 954 l 722 969 l 738 969 l 742 975 l 747 975 q 756 975 751 975 q 766 970 762 975 q 768 969 767 969 l 777 969 q 820 963 814 963 q 830 964 826 964 l 858 964 q 878 952 868 964 l 882 951 q 899 953 884 951 q 901 952 900 952 l 901 967 q 903 969 901 969 l 942 969 l 968 975 l 970 975 q 991 968 984 972 l 991 959 q 954 918 959 931 q 926 880 945 900 q 882 820 896 860 q 864 761 870 791 q 846 730 864 760 l 827 681 q 805 637 808 652 q 791 615 801 615 q 777 608 777 611 q 749 527 767 570 q 732 492 736 494 q 721 477 721 486 l 721 476 q 723 465 723 466 q 665 346 723 456 q 653 318 659 321 q 648 307 650 313 q 654 297 654 299 l 653 296 q 651 297 652 296 q 635 296 642 296 q 633 296 633 296 l 633 291 q 640 279 640 286 l 640 274 q 617 222 640 264 q 542 37 572 107 q 520 0 528 9 q 475 50 481 26 q 446 100 469 68 q 442 109 442 106 l 442 111 q 454 131 442 114 l 454 132 q 442 151 450 137 q 422 159 422 156 l 421 165 q 426 172 426 167 q 414 189 426 183 q 393 246 406 203 q 308 420 365 313 q 295 456 302 435 q 271 494 274 479 q 262 509 268 501 q 264 511 262 511 q 278 504 267 511 l 279 504 q 260 545 269 545 q 233 602 251 554 q 222 629 222 619 q 223 633 222 631 q 202 675 221 642 l 202 676 q 207 679 202 678 l 207 680 q 188 713 201 701 q 151 779 163 748 q 80 908 125 844 q 31 955 62 932 q 0 974 28 956 l 0 975 l 47 975 q 57 970 51 975 q 62 969 60 969 q 65 975 63 975 l 66 975 q 94 969 68 975 q 110 975 96 969 q 124 975 115 975 z "},"W":{"ha":1353,"x_min":0,"x_max":1350,"o":"m 1116 981 q 1125 975 1122 981 q 1128 975 1126 975 l 1135 975 q 1181 969 1176 969 l 1185 970 l 1217 970 q 1238 958 1227 970 l 1241 958 q 1258 959 1243 958 q 1260 958 1259 958 l 1260 973 q 1261 975 1260 975 l 1301 975 l 1327 981 l 1329 981 q 1350 975 1333 981 l 1350 964 q 1312 923 1317 937 q 1282 885 1304 905 q 1253 852 1259 865 q 1225 775 1227 797 q 1204 734 1225 769 q 1174 669 1188 685 q 1160 629 1169 661 q 1141 619 1157 623 q 1134 604 1137 619 q 1105 529 1126 578 q 1089 498 1096 498 q 1081 487 1081 492 l 1081 484 q 1083 472 1083 475 q 1027 358 1083 465 q 1011 324 1019 329 l 1009 316 q 1015 307 1015 309 l 1013 306 q 1012 307 1012 306 q 995 304 1002 304 q 993 306 994 306 l 993 300 q 1000 288 1000 294 l 1000 283 q 978 231 1000 274 q 903 48 934 121 q 881 11 892 26 q 837 59 844 35 q 806 111 830 78 q 804 119 804 117 q 814 140 804 124 q 814 142 814 142 q 804 161 812 146 q 784 170 784 166 l 783 174 q 787 183 787 177 q 779 197 787 193 q 758 249 770 202 q 688 394 726 326 q 655 323 661 345 q 645 304 645 312 q 651 295 651 298 l 650 294 q 648 295 648 294 q 631 294 638 294 q 629 294 630 294 l 629 290 q 637 277 637 283 l 637 273 q 614 220 637 263 q 539 37 570 110 q 517 0 529 15 q 473 48 480 24 q 442 100 467 67 q 440 109 440 106 q 450 130 440 113 q 451 132 451 131 q 440 150 448 135 q 420 159 420 155 l 419 163 q 423 172 423 166 q 412 188 423 182 q 391 245 404 203 q 307 418 363 311 q 293 454 300 431 q 270 492 273 476 q 261 507 264 503 q 262 508 261 508 q 277 501 265 508 l 277 501 q 258 542 268 542 q 232 599 249 551 q 221 627 221 616 q 222 629 221 628 q 201 671 216 648 l 201 673 q 206 675 201 674 l 206 677 q 181 718 200 697 q 140 800 165 737 q 76 909 117 852 q 37 945 50 938 l 0 969 l 0 970 l 47 970 q 57 964 50 970 q 62 964 60 964 q 64 970 63 970 l 66 970 q 93 964 68 970 q 109 970 96 964 q 123 970 114 970 q 132 964 128 970 q 134 965 134 964 q 132 969 132 965 l 133 970 q 151 970 134 970 q 159 964 157 970 l 161 964 q 165 970 162 964 l 174 970 l 178 970 q 220 964 220 970 q 240 958 228 958 l 242 958 q 249 964 245 958 q 252 964 250 964 l 256 964 l 259 964 q 269 969 261 964 q 275 970 272 970 l 340 970 q 347 970 342 970 q 368 969 347 970 l 372 970 l 372 968 q 353 950 372 967 q 333 923 333 932 q 332 910 333 911 q 334 902 333 902 l 337 903 l 339 903 l 340 899 l 340 891 q 339 884 340 888 q 362 832 342 873 q 388 762 388 778 q 395 749 388 749 q 420 679 399 745 l 419 679 q 409 670 409 677 q 419 656 410 661 q 429 641 423 654 l 431 641 l 432 642 q 491 496 469 538 q 511 456 507 460 q 521 436 521 453 q 531 401 521 414 q 533 401 532 401 q 555 450 547 401 q 578 519 562 469 q 593 560 593 534 q 610 597 593 568 q 610 600 610 597 l 610 607 q 619 620 616 607 q 642 654 642 633 q 642 663 642 656 q 646 682 642 666 q 647 690 647 686 l 646 691 q 657 715 657 709 q 665 737 662 720 q 684 763 679 746 q 692 785 689 769 q 700 792 700 787 l 700 810 q 707 814 700 810 q 715 839 713 838 q 727 854 723 839 l 728 854 q 747 832 743 842 l 755 812 l 755 804 l 761 779 q 767 762 761 768 l 767 755 q 777 727 771 736 q 787 708 777 722 q 802 680 787 694 q 811 661 802 673 l 811 661 q 802 637 805 648 q 853 509 832 552 q 873 469 870 473 q 884 447 884 463 q 895 412 884 425 q 897 412 895 412 q 919 461 910 412 q 942 530 926 479 q 957 567 957 545 q 972 604 957 579 q 1044 755 993 656 q 1074 833 1059 788 q 1087 861 1084 860 q 1104 870 1104 867 q 1093 891 1093 888 l 1093 892 l 1093 892 l 1099 891 q 1109 918 1099 900 l 1109 931 l 1109 935 l 1105 934 l 1103 936 l 1103 940 q 1105 954 1103 944 q 1084 972 1105 960 l 1082 975 l 1098 975 l 1102 981 l 1106 981 q 1116 981 1111 981 z "},"X":{"ha":1002,"x_min":-42,"x_max":977,"o":"m 25 975 l 26 975 l 49 972 q 101 974 98 974 q 119 961 106 974 l 124 961 l 127 962 l 127 964 l 121 971 l 121 972 q 174 974 160 974 l 175 974 q 251 970 251 972 l 251 969 q 245 962 251 968 l 245 961 l 252 961 q 260 968 256 961 q 289 972 267 972 l 311 972 q 363 972 327 972 l 363 970 l 363 970 q 354 964 362 967 q 353 962 353 963 q 355 956 355 958 q 353 935 355 952 q 353 929 353 935 q 353 912 353 918 q 359 896 353 907 q 382 855 366 866 q 420 795 402 830 q 439 779 431 779 q 459 735 448 774 q 485 688 462 716 l 486 689 l 488 689 q 492 686 492 687 q 526 744 500 690 q 592 826 540 770 q 597 829 595 829 l 599 829 q 612 827 611 827 l 616 829 q 614 842 614 836 l 614 844 q 625 884 614 873 q 627 892 627 890 q 626 920 626 913 l 627 920 q 608 952 623 933 q 596 971 600 961 q 629 974 610 974 l 637 974 q 688 972 682 972 l 707 972 q 715 962 711 972 q 732 960 722 960 l 734 960 q 745 970 741 960 l 747 971 l 797 971 q 844 975 826 971 l 846 975 l 920 972 l 921 970 l 921 962 q 903 954 920 961 q 830 895 883 945 q 781 844 803 864 q 737 767 749 781 q 678 688 695 720 q 645 646 671 673 q 621 604 621 626 q 591 557 615 593 q 587 545 587 549 q 621 503 609 525 q 669 428 669 437 l 669 424 q 665 404 665 408 l 665 403 q 676 389 666 389 q 690 380 686 389 q 714 355 714 363 q 732 306 724 320 q 762 267 753 280 q 879 77 814 176 q 930 31 912 39 q 957 10 949 17 q 971 -12 969 -5 l 977 -12 l 977 -13 l 972 -13 q 941 -7 945 -13 q 926 -1 935 -1 q 850 -2 874 -2 q 838 6 846 -2 q 819 9 831 9 l 819 9 q 784 7 784 9 q 774 -3 784 -3 q 739 3 739 -3 q 727 9 736 9 q 723 7 723 8 q 724 0 723 5 q 718 -2 722 -2 q 669 -3 677 -3 q 627 7 653 -3 q 607 9 615 9 q 577 9 583 9 l 576 10 l 576 19 q 590 57 590 35 l 590 62 q 581 112 590 77 q 563 147 581 130 q 511 243 543 183 q 446 330 494 267 q 445 333 445 332 l 444 333 q 427 323 441 333 q 420 317 425 323 q 393 287 416 316 q 332 195 363 251 l 290 121 q 278 75 278 91 l 284 36 l 284 18 q 281 9 284 9 l 264 9 q 254 18 256 18 q 237 18 243 18 q 220 20 227 20 q 178 13 178 20 q 174 9 174 9 l 171 9 q 160 16 163 9 q 131 19 160 19 l 125 19 q 104 10 117 19 q 99 9 102 9 q 70 18 94 9 l 68 18 l 68 18 l 71 11 l 71 9 l -7 9 q -39 -1 -19 9 q -41 -2 -40 -2 l -42 -1 q -33 16 -42 2 q -14 32 -33 20 q 31 66 20 63 q 64 94 45 75 q 121 158 116 146 q 173 245 142 191 q 213 282 182 257 q 241 334 220 288 q 258 350 252 350 l 260 350 q 270 349 270 349 q 277 358 275 349 l 277 361 q 271 375 277 363 l 270 378 q 330 459 271 390 q 349 486 334 466 q 354 500 354 494 q 327 539 354 512 l 300 581 q 289 609 295 609 q 262 616 282 612 q 185 734 245 660 q 119 830 168 757 q 90 859 91 857 l 90 861 l 91 861 l 101 857 l 101 858 q 74 908 82 897 q 62 917 64 911 q 22 968 39 951 q 20 969 22 968 q 25 975 20 972 z "},"Y":{"ha":1025,"x_min":0,"x_max":1024,"o":"m 0 988 l 7 988 q 36 982 33 988 q 50 977 43 977 q 127 977 101 977 q 114 968 130 977 q 132 966 120 966 q 165 969 165 966 q 176 978 165 978 q 232 976 211 978 q 244 972 214 966 q 281 979 275 979 q 326 968 295 979 q 342 966 336 966 q 372 966 366 966 l 373 965 l 373 958 q 363 941 373 957 q 359 919 359 928 l 359 914 q 369 864 359 899 q 387 829 369 846 q 439 732 408 791 q 510 640 448 718 q 511 636 511 637 l 512 636 q 529 631 521 616 q 557 659 546 653 q 578 684 560 660 q 648 787 614 725 q 686 854 657 805 q 705 907 698 884 q 699 954 699 941 l 699 964 q 701 973 699 973 l 719 973 q 728 964 727 964 q 746 964 740 964 q 762 962 756 962 q 804 969 804 962 q 809 973 808 973 l 812 973 q 822 966 819 973 q 851 963 822 963 l 857 963 q 878 972 866 963 q 883 973 880 973 q 912 964 888 973 l 913 964 l 913 964 l 911 972 l 912 973 l 991 973 q 1022 984 1000 973 l 1023 984 l 1024 983 q 1015 966 1024 981 q 996 951 1015 962 q 954 917 962 920 q 882 851 942 912 q 827 772 849 815 q 794 720 804 729 q 745 664 751 689 q 718 626 727 626 l 716 626 q 706 627 706 627 q 699 618 701 627 l 699 616 q 706 599 699 613 l 706 598 q 654 526 705 587 q 625 493 640 505 q 618 477 618 486 q 618 471 618 471 q 612 456 618 465 q 609 439 610 452 q 602 420 602 430 l 602 413 q 601 410 602 411 q 607 397 607 399 l 607 334 q 604 325 604 327 l 604 275 q 604 264 604 271 q 615 250 604 262 l 615 242 l 612 233 q 613 221 613 222 q 612 219 612 220 q 618 199 614 210 l 618 140 q 620 115 618 120 l 619 114 q 621 106 620 106 q 620 104 621 104 q 637 48 626 56 q 667 24 643 40 q 681 1 680 10 q 680 0 680 1 q 606 4 630 3 l 604 3 l 600 4 l 591 4 q 581 3 586 4 q 571 9 571 3 q 563 12 568 12 l 553 12 q 536 4 543 12 l 530 1 l 506 3 q 505 2 505 3 l 500 3 l 491 3 q 490 3 490 3 l 487 1 l 481 1 q 471 4 472 1 l 465 4 l 451 2 q 433 9 451 7 l 431 9 q 407 3 425 9 q 393 4 399 4 q 387 2 389 2 q 331 7 382 2 l 330 9 l 358 30 q 381 64 379 52 q 387 85 381 66 q 387 94 387 88 l 387 113 q 388 116 387 115 l 387 117 q 397 262 394 180 l 397 266 q 403 279 397 273 l 404 283 q 392 298 404 290 l 392 300 q 397 307 392 304 q 401 319 401 311 l 401 326 q 400 336 401 330 l 401 338 q 400 340 400 339 q 401 341 400 341 q 400 343 401 342 q 401 361 401 355 l 392 372 q 391 376 391 374 q 402 425 402 393 l 402 432 q 403 433 402 433 l 402 435 l 402 442 l 401 446 l 402 448 q 387 474 401 458 q 378 487 387 475 q 353 501 378 492 q 353 507 353 505 q 334 543 353 517 q 310 562 318 553 q 312 572 312 568 l 312 573 q 301 587 310 587 q 290 597 290 587 q 265 635 290 611 q 248 664 252 652 q 220 700 243 675 q 99 897 162 800 q 46 947 70 932 q 6 987 15 964 l 0 987 l 0 988 z "},"Z":{"ha":961,"x_min":0,"x_max":964,"o":"m 134 987 q 159 978 137 987 l 165 978 q 176 982 170 982 q 217 974 197 974 l 220 974 l 226 970 l 227 972 q 224 978 227 972 l 227 979 l 228 979 q 300 969 234 979 q 315 968 304 968 l 321 968 q 366 974 351 968 l 391 974 q 416 977 410 977 l 425 977 q 463 976 444 977 q 511 980 505 980 q 538 979 525 979 l 565 979 q 566 977 566 979 q 551 971 566 975 l 548 968 l 549 968 q 564 968 555 968 q 627 970 611 970 l 659 970 q 662 979 660 979 l 718 979 q 729 971 724 971 q 747 975 745 975 q 766 974 758 974 l 768 974 l 863 979 q 891 972 868 979 l 892 972 l 918 974 q 924 977 918 975 l 926 977 q 935 970 931 970 l 945 970 l 954 974 l 962 974 l 964 972 q 940 934 958 957 q 936 923 936 927 l 936 907 q 911 873 936 903 q 872 813 890 845 l 872 812 q 871 793 872 804 q 872 791 872 792 q 836 738 856 779 q 776 639 814 705 q 754 612 759 612 q 737 609 737 610 l 737 608 q 746 595 746 597 q 745 592 746 595 q 746 587 746 589 q 728 560 739 583 q 723 558 724 558 q 715 559 716 559 l 715 540 q 659 457 687 508 q 646 412 651 444 q 623 398 642 398 q 608 386 614 398 q 562 321 574 340 q 573 310 562 315 l 575 304 q 551 273 559 295 q 487 193 544 256 q 471 168 479 181 q 476 165 473 168 l 479 165 q 526 170 526 168 q 540 168 530 170 q 562 169 551 169 l 565 169 q 630 163 576 169 l 631 163 q 655 165 635 163 q 684 163 680 163 l 705 163 q 711 151 708 163 q 739 165 715 151 q 752 166 748 166 l 760 166 l 814 163 l 815 163 q 848 171 825 163 q 879 180 871 174 q 922 222 882 180 l 924 222 q 926 220 924 220 l 925 211 l 925 209 q 926 202 925 207 q 913 146 926 188 q 914 117 914 127 l 914 114 q 901 111 914 112 q 892 76 892 106 q 880 34 892 74 q 876 12 877 12 l 875 12 q 839 17 842 17 l 784 11 q 733 24 745 11 l 731 25 q 726 20 731 24 l 718 20 q 708 19 708 20 q 693 20 699 20 l 644 20 q 632 28 635 28 l 627 28 q 606 21 613 21 q 545 28 583 21 q 497 22 536 28 l 455 22 q 436 30 452 22 q 425 31 431 31 l 424 31 q 373 28 380 28 l 370 28 q 361 25 363 28 l 357 25 q 342 33 355 25 l 338 33 l 300 28 l 214 25 q 172 19 197 22 q 147 11 159 13 q 134 12 144 11 q 51 2 91 5 q 43 0 48 0 q 0 7 26 0 l 0 8 q 57 40 42 28 q 95 56 74 56 l 100 56 q 104 68 101 68 q 134 85 117 69 q 204 157 168 112 l 208 157 l 229 157 q 230 157 230 157 q 233 157 231 157 q 217 170 231 160 l 217 171 q 264 210 251 196 l 294 248 q 345 329 328 294 q 351 344 351 340 q 342 357 345 352 q 359 369 351 360 q 393 433 374 391 q 418 469 417 464 q 410 482 410 479 l 410 483 q 452 531 439 509 q 477 590 452 546 q 494 616 486 616 q 496 615 495 615 l 498 615 q 522 662 505 621 q 566 732 541 696 q 589 765 582 765 q 597 784 594 765 q 606 798 600 794 q 648 848 618 808 q 658 861 650 848 l 657 861 q 621 844 627 844 q 610 850 618 850 q 572 849 574 850 q 558 857 562 849 l 558 858 q 562 873 562 869 l 562 875 l 560 875 q 547 850 557 875 l 544 848 l 541 848 q 526 856 535 856 l 525 856 q 514 850 517 850 l 508 850 q 471 856 491 856 q 368 843 428 856 q 355 838 361 838 q 338 839 341 839 q 302 823 330 838 q 292 806 298 820 q 285 804 288 804 q 267 829 282 804 l 218 888 q 156 962 174 943 q 134 985 138 979 l 134 987 z "},"\\":{"ha":386,"x_min":-90,"x_max":530,"o":"m -87 960 q -75 970 -90 963 l -73 971 q -25 974 -56 978 q 42 968 35 965 l 43 968 q 46 971 45 969 l 47 971 l 48 970 q 93 891 81 918 q 99 878 96 883 q 127 822 113 852 l 131 814 q 136 803 134 808 q 142 774 140 779 l 144 769 q 149 759 146 763 q 167 736 165 741 q 222 615 177 714 q 240 578 236 585 q 253 544 251 549 l 257 536 q 260 530 258 534 q 269 509 265 515 l 271 505 q 278 497 272 502 q 300 473 295 483 q 319 427 308 456 l 323 419 q 332 398 329 404 q 366 333 353 361 l 368 329 q 397 265 379 305 q 412 237 406 248 q 439 185 435 195 l 441 180 q 464 122 461 127 q 477 95 468 113 q 496 54 490 66 l 497 51 q 513 20 511 22 l 517 9 q 530 -12 522 -1 q 529 -13 530 -13 q 507 -6 521 -14 q 475 -6 484 -7 q 457 1 462 3 q 452 -2 452 -1 q 450 -2 450 -2 q 437 0 441 0 q 433 -3 435 -2 q 430 -3 431 -4 q 386 -7 421 -1 q 374 1 378 -8 q 365 26 366 24 q 360 32 363 30 l 360 33 l 360 35 q 368 50 371 45 q 351 80 353 77 q 350 81 351 81 l 349 81 l 347 73 l 347 73 q 341 81 345 73 l 340 83 q 332 103 336 92 q 319 130 321 125 q 285 208 288 201 q 275 227 279 221 q 271 237 275 227 q 263 254 266 248 q 250 283 257 267 l 247 289 q 184 410 214 356 q 151 478 157 467 q 143 496 147 486 q 119 545 138 505 q 109 567 117 549 q 100 586 103 580 q 96 595 99 589 l 64 657 q 38 727 45 711 q 21 755 22 753 l 18 761 q 12 774 16 768 q -27 867 3 799 q -33 879 -30 872 l -38 890 q -49 918 -46 907 l -50 920 q -58 929 -52 923 q -87 960 -84 954 z "},"^":{"ha":688,"x_min":231,"x_max":515,"o":"m 238 813 q 231 828 231 813 q 232 840 231 833 q 236 866 234 856 q 241 877 241 876 l 240 880 l 240 881 q 243 891 240 884 q 258 915 250 905 q 277 934 263 921 l 277 934 q 277 933 277 934 q 279 927 279 927 l 279 927 q 286 940 280 928 q 294 947 286 942 q 325 964 310 958 q 372 976 353 976 q 420 966 389 976 q 440 956 425 965 q 454 951 444 954 q 466 942 461 949 q 477 926 471 933 q 490 912 490 916 q 489 911 490 912 q 486 905 486 906 q 488 903 487 903 l 488 903 q 492 905 491 905 l 492 905 q 496 897 493 905 q 515 829 515 861 l 515 819 q 511 814 515 814 q 497 814 499 814 q 488 814 496 814 q 487 814 488 814 q 484 824 486 816 q 474 846 479 836 q 469 857 470 852 q 465 868 467 868 l 465 868 l 465 868 q 463 862 463 862 l 463 862 q 448 874 453 871 q 426 887 431 884 q 420 893 421 890 q 415 901 418 901 l 414 901 q 407 901 413 901 q 406 901 407 901 q 404 898 404 901 q 399 889 403 889 q 393 892 398 889 q 364 895 377 895 l 363 895 q 361 895 362 895 q 360 895 361 895 l 358 895 q 335 894 351 895 q 309 889 315 894 q 304 881 307 888 q 299 873 302 875 l 298 873 q 296 874 298 873 q 289 879 290 879 l 288 879 q 287 876 287 878 l 287 876 q 289 870 288 872 l 289 870 q 280 863 289 867 q 273 859 275 861 q 267 827 267 844 q 267 816 267 823 l 267 815 q 265 814 267 814 l 265 814 q 248 814 252 814 q 239 813 241 813 l 238 813 z "},"_":{"ha":694,"x_min":61,"x_max":637,"o":"m 628 -277 q 572 -269 616 -273 q 515 -267 528 -266 q 507 -267 511 -267 l 477 -270 q 496 -270 502 -267 q 447 -271 490 -273 l 412 -269 q 406 -269 408 -269 q 395 -269 403 -270 q 383 -270 385 -270 q 355 -270 359 -271 q 345 -271 349 -271 q 306 -270 338 -270 q 236 -269 275 -269 l 233 -269 q 216 -269 224 -269 q 207 -269 213 -269 q 201 -269 201 -269 q 190 -269 197 -269 q 144 -271 186 -269 q 130 -271 142 -271 q 118 -272 123 -272 l 117 -272 q 112 -271 112 -273 l 112 -271 l 117 -268 l 117 -267 q 117 -267 117 -267 q 100 -265 115 -267 q 101 -277 97 -265 l 89 -275 l 73 -279 q 69 -266 61 -281 q 70 -252 68 -255 q 72 -244 73 -250 q 73 -243 72 -244 q 75 -240 73 -241 q 74 -233 75 -237 q 75 -232 74 -233 q 77 -228 75 -231 q 74 -219 79 -224 q 76 -201 73 -215 q 74 -191 73 -195 q 75 -190 74 -190 q 86 -191 81 -191 l 92 -191 q 110 -191 94 -191 l 112 -191 q 136 -190 119 -191 q 151 -190 146 -190 q 184 -186 154 -190 l 188 -186 q 217 -188 193 -186 q 233 -189 223 -188 q 270 -187 256 -187 l 272 -187 q 309 -189 288 -186 q 321 -188 313 -189 l 326 -189 q 353 -186 342 -186 q 366 -192 359 -186 q 370 -194 368 -194 l 372 -194 q 385 -193 376 -194 q 388 -193 387 -193 l 392 -193 q 412 -191 395 -193 q 433 -191 416 -191 q 503 -189 490 -189 q 541 -189 505 -189 q 548 -188 544 -188 l 553 -188 q 584 -189 570 -187 q 592 -188 587 -188 q 637 -191 607 -187 l 637 -192 l 637 -193 q 635 -195 636 -193 l 635 -196 q 633 -233 633 -201 q 628 -261 625 -245 l 627 -262 q 628 -277 622 -273 z "},"`":{"ha":694,"x_min":277,"x_max":436,"o":"m 278 854 q 288 872 277 858 q 289 882 291 877 q 288 884 289 883 q 289 892 287 886 q 292 910 291 900 q 292 913 293 912 l 292 913 q 290 917 292 914 q 287 921 288 919 q 285 928 285 928 q 294 935 291 932 q 295 938 296 937 l 295 938 q 292 943 295 939 q 294 947 292 945 l 294 947 q 303 942 298 947 q 319 925 309 933 q 346 900 344 902 l 358 893 q 367 883 362 890 q 374 876 367 883 q 393 857 384 863 q 406 845 404 848 q 412 834 408 843 q 418 829 414 832 q 424 825 421 827 q 430 823 429 824 q 435 818 434 821 l 435 818 q 432 807 436 815 q 429 797 429 799 q 429 793 429 793 q 427 791 429 791 q 410 793 422 789 q 398 802 404 796 q 387 808 395 804 q 368 813 381 810 q 334 825 353 819 q 309 834 321 829 q 294 842 297 840 q 279 852 290 846 q 278 854 278 854 z "},"a":{"ha":897,"x_min":0,"x_max":904,"o":"m 459 882 l 467 882 q 491 841 472 877 q 509 804 494 823 q 529 779 509 800 q 545 719 534 769 q 567 661 551 701 q 578 640 576 647 q 572 635 577 635 l 566 635 q 564 632 566 635 q 576 593 572 593 l 577 593 q 585 597 577 596 q 588 599 585 598 q 601 567 591 588 q 614 537 608 537 q 623 532 619 537 q 638 521 638 527 q 647 471 642 513 q 654 446 647 457 q 674 406 655 437 q 706 327 706 349 q 709 300 707 300 l 710 300 q 713 304 712 304 l 715 304 q 752 256 715 299 q 781 199 774 216 q 776 201 778 201 q 772 196 772 201 l 772 192 q 798 142 772 176 q 817 104 806 130 q 852 51 843 60 q 874 19 856 51 l 901 -7 l 904 -10 l 902 -11 l 901 -11 l 851 -5 l 846 -5 q 824 -7 825 -7 l 821 -7 q 801 7 812 -7 q 793 10 795 9 q 773 5 781 5 q 726 5 756 5 q 716 5 724 5 q 700 5 711 5 l 695 5 q 690 0 690 5 l 687 0 l 610 0 q 609 1 609 0 q 621 50 621 38 l 621 52 q 608 104 621 64 q 580 154 589 132 q 561 194 564 193 q 545 205 557 194 l 540 205 l 514 199 q 477 205 481 205 l 473 205 q 462 196 469 205 q 433 189 459 194 l 431 189 q 429 191 429 189 q 432 204 429 192 l 432 205 q 417 205 426 205 q 366 201 375 205 q 357 199 364 201 q 334 205 354 199 l 317 205 q 307 200 307 205 q 294 181 302 195 q 279 157 279 170 q 264 105 269 105 q 246 50 254 105 l 246 43 q 252 33 246 33 q 260 26 252 32 q 268 0 263 22 l 267 0 l 241 0 q 198 -1 224 0 q 189 0 195 0 l 188 1 q 189 5 188 3 l 188 5 l 181 5 q 170 2 170 5 q 161 -1 170 -1 l 148 -1 q 123 1 123 -1 q 123 9 123 6 q 104 15 120 12 q 81 0 98 0 q 62 0 79 0 q 45 -5 55 0 l 1 -5 q 0 -4 0 -5 q 41 29 37 24 l 62 73 q 73 82 64 77 q 98 126 85 110 q 112 143 112 136 l 151 232 q 153 231 152 232 q 168 246 168 239 q 168 252 168 250 l 168 254 q 169 262 169 260 l 169 262 l 166 267 q 194 309 166 271 q 207 341 197 317 q 220 350 219 349 q 222 357 222 353 l 221 357 q 217 355 219 355 q 216 357 216 357 q 253 438 216 368 q 294 488 264 459 q 286 496 286 496 q 309 555 298 536 q 351 629 316 568 q 368 679 359 642 q 389 724 382 724 l 392 724 l 393 724 q 395 731 395 728 l 395 732 q 393 737 393 736 q 397 763 395 744 q 416 771 397 768 q 420 772 416 771 l 415 804 q 429 820 415 806 q 448 871 433 831 q 459 882 454 882 m 429 519 q 407 475 413 478 q 390 427 402 466 q 382 422 388 422 q 370 380 378 414 q 349 314 349 326 q 347 310 348 314 q 368 311 355 311 l 383 311 q 418 306 408 311 l 420 306 l 463 310 q 479 300 473 300 l 484 300 q 503 309 486 305 l 503 309 q 484 393 490 355 q 473 408 484 399 q 455 471 470 417 q 430 519 445 498 l 429 519 z "},"b":{"ha":720,"x_min":0,"x_max":715,"o":"m 168 885 l 173 885 q 180 882 178 885 q 182 881 182 882 q 190 882 189 882 l 199 881 l 233 884 l 240 884 q 318 876 246 884 l 319 876 q 342 881 323 876 l 348 882 q 379 880 374 880 q 398 871 382 871 q 418 866 403 869 q 446 863 418 864 l 451 865 q 477 863 473 863 l 478 863 q 505 846 490 846 q 536 840 526 840 q 557 815 543 838 q 577 795 560 815 q 608 751 582 789 q 624 722 624 734 q 623 713 623 715 q 638 688 623 709 q 645 641 645 682 q 646 615 646 634 q 645 613 646 614 q 646 612 645 612 l 642 566 q 643 564 643 564 q 624 549 627 557 l 629 525 l 629 524 q 609 498 614 504 q 665 426 648 458 q 715 263 715 336 q 700 207 715 226 q 683 167 683 182 l 684 146 q 675 126 684 130 q 642 87 671 122 q 612 53 631 77 q 595 45 606 53 l 592 45 q 583 56 590 45 q 581 56 583 56 q 570 54 576 56 q 578 43 578 46 q 569 31 576 31 q 551 20 564 26 l 551 20 q 524 21 534 21 q 503 14 517 21 q 493 13 499 13 q 473 14 479 14 q 420 7 454 14 q 393 8 412 7 q 380 1 380 8 q 378 0 378 0 l 374 0 q 351 9 370 0 q 340 9 347 9 l 323 9 q 318 9 321 9 q 315 9 317 9 q 261 8 304 8 l 260 8 q 195 11 221 11 l 153 11 q 142 20 150 11 q 132 22 140 21 q 121 11 130 22 q 90 21 117 11 l 85 21 q 68 14 68 21 q 42 9 68 9 l 1 9 l 0 9 q 28 49 7 35 q 45 72 38 59 q 52 89 52 81 l 51 92 l 51 96 q 60 117 51 103 q 61 121 60 117 q 53 122 60 122 l 53 123 q 58 163 53 163 q 64 168 64 163 l 64 180 q 71 380 67 214 l 71 380 l 71 381 l 71 383 q 71 389 71 385 q 71 389 71 389 l 71 393 l 71 401 l 80 409 q 89 425 89 421 q 73 427 87 426 l 71 429 q 73 543 73 481 l 73 570 q 74 593 73 577 q 66 611 70 597 l 66 612 q 71 615 66 613 q 74 623 74 618 q 73 635 74 629 q 75 650 75 646 q 74 707 74 696 q 66 712 74 709 q 65 717 65 715 q 66 766 66 756 l 66 772 q 66 782 66 777 q 66 798 66 790 q 44 848 66 814 q 24 866 38 852 q 16 877 16 873 l 16 878 q 71 873 19 878 q 83 873 77 873 q 90 865 85 865 l 94 865 q 109 880 101 865 q 144 872 115 872 l 154 872 q 168 885 162 885 m 337 759 q 311 760 315 760 l 302 760 q 262 743 302 749 l 262 726 q 260 700 262 700 q 254 657 260 696 q 252 621 252 634 q 260 580 252 615 q 260 572 260 578 l 260 562 q 261 534 260 551 q 253 518 261 528 q 246 510 253 512 q 244 509 245 510 q 243 486 243 490 q 246 477 243 477 l 247 477 l 252 481 l 252 479 l 252 434 q 253 372 252 411 q 247 359 253 362 l 247 342 q 245 336 245 337 q 261 329 248 334 q 262 328 262 328 q 260 321 260 323 l 260 296 q 261 284 260 290 q 256 253 261 253 l 252 253 l 252 241 q 256 223 252 236 l 256 173 q 257 135 256 153 l 260 135 q 261 134 261 135 q 263 135 262 135 q 321 127 309 135 q 345 124 333 124 l 363 124 q 400 123 376 124 l 401 123 q 404 123 403 123 l 406 123 q 429 128 415 123 q 449 136 439 128 q 476 150 455 140 q 502 178 493 164 q 518 204 518 189 q 521 216 521 209 q 519 224 521 217 q 528 241 523 227 q 532 255 532 246 l 532 258 q 549 279 549 268 l 549 284 q 545 296 547 296 q 545 304 545 302 l 545 309 q 543 322 545 315 q 543 330 543 324 l 543 338 l 543 342 q 543 353 543 351 l 543 355 q 533 386 540 378 q 532 387 532 386 q 533 391 533 390 q 515 416 533 409 q 510 417 513 417 l 509 417 q 498 416 505 417 q 478 421 492 418 l 474 421 q 460 417 469 421 q 442 408 452 417 q 429 408 432 408 q 411 401 427 408 q 374 406 404 405 q 360 416 368 406 q 347 427 349 427 q 331 437 340 428 q 317 452 331 441 q 312 460 315 457 l 312 461 l 315 473 q 311 494 311 492 l 311 495 q 319 519 319 503 q 334 542 329 542 q 359 550 354 546 q 369 549 366 549 q 386 552 380 552 l 387 551 l 387 542 q 370 517 376 534 q 368 510 368 517 q 376 497 370 509 q 399 484 387 484 q 413 488 406 484 q 424 486 414 488 l 427 486 q 447 492 446 489 q 452 498 450 498 l 460 496 q 468 510 463 496 q 487 528 481 510 q 489 530 487 530 l 494 530 q 495 538 495 533 l 495 541 q 504 558 501 547 q 507 582 507 563 q 503 632 505 632 q 497 648 503 639 l 485 682 q 477 695 484 682 l 470 707 q 457 722 463 718 q 433 740 451 732 q 408 747 423 744 q 399 756 407 747 q 378 762 396 756 q 345 765 359 765 q 341 759 344 765 q 337 759 341 759 z "},"c":{"ha":707,"x_min":0,"x_max":715,"o":"m 460 887 l 471 886 q 480 883 480 886 q 486 879 480 880 q 536 876 518 877 l 554 874 q 572 874 562 874 q 602 869 602 870 q 607 852 604 852 l 608 852 q 636 862 621 851 q 683 846 667 853 q 696 833 694 837 l 696 818 q 696 751 696 792 q 703 743 696 747 l 703 740 q 703 726 703 733 q 703 703 703 715 q 701 699 703 699 q 696 701 698 701 l 696 700 q 696 677 696 683 l 695 676 q 631 727 648 724 q 570 748 614 736 q 556 758 559 752 q 543 764 543 758 q 538 766 539 766 q 526 766 531 766 l 521 767 l 521 766 q 522 762 522 764 q 521 761 522 761 l 485 764 q 479 759 485 759 q 461 765 461 762 l 463 769 q 452 773 463 772 q 437 773 445 773 l 433 774 q 429 766 430 774 q 407 758 429 762 l 406 755 l 406 755 l 407 753 l 407 751 q 400 750 401 750 q 383 758 395 751 l 379 759 q 368 753 374 759 q 302 691 325 735 q 265 643 291 671 l 262 641 q 261 642 262 642 q 272 661 266 662 q 273 672 273 665 q 273 682 273 673 q 252 656 269 680 q 237 626 237 632 q 225 567 227 572 q 208 549 211 552 q 207 547 207 549 l 207 543 q 208 537 207 541 q 205 534 206 534 l 204 534 l 201 535 l 201 505 q 195 503 201 504 l 195 498 l 195 481 q 201 465 195 466 q 208 454 208 460 q 206 435 206 440 q 208 432 207 432 l 210 434 l 212 434 q 213 433 213 433 l 213 423 q 208 416 213 418 q 205 411 205 416 q 225 335 205 401 q 237 302 229 321 l 237 301 q 249 264 237 278 q 284 222 257 251 q 299 202 291 218 q 313 182 313 189 q 317 177 316 177 q 320 178 317 177 q 351 160 344 165 l 370 144 q 395 141 386 142 q 410 146 410 140 q 414 146 413 146 q 465 125 435 143 l 470 125 q 481 130 474 124 l 485 130 l 486 130 q 487 128 487 130 l 487 125 q 494 123 492 123 l 502 122 q 503 121 503 122 l 507 122 l 524 121 q 597 144 526 121 q 608 155 601 146 q 613 157 610 157 q 625 155 618 156 l 626 155 q 633 161 632 155 q 650 166 646 167 l 652 166 q 661 159 654 166 l 671 159 l 672 159 l 671 160 l 671 164 q 671 171 671 168 q 684 188 671 180 q 713 215 684 189 l 714 215 l 714 214 q 715 195 714 208 q 715 166 715 178 q 709 146 715 164 q 708 141 709 144 q 715 123 708 138 q 709 115 715 122 q 708 111 708 113 l 708 60 q 679 47 707 56 q 599 12 669 42 q 508 6 558 11 q 503 -5 505 -5 q 492 3 497 3 l 491 3 q 480 -3 483 3 q 473 -3 478 -4 l 471 -3 q 448 -1 450 -1 l 448 -1 q 431 -5 442 0 q 425 -5 428 -5 l 418 -5 q 384 5 414 -5 q 241 47 260 38 q 229 52 241 50 q 224 52 226 51 q 153 123 160 122 l 152 121 q 176 81 168 96 l 177 79 l 176 78 q 129 129 167 79 q 109 171 119 145 q 83 185 106 174 q 62 218 67 201 q 28 298 28 292 q 19 323 28 323 q 12 338 14 326 q 7 364 7 357 q 7 378 7 376 q 1 387 7 381 q 1 389 1 388 l 1 392 q 2 412 2 411 l 1 422 q 7 437 1 426 l 7 443 q 1 464 7 446 l 1 467 q 7 474 7 471 q 7 491 7 478 l 5 491 l 2 488 l 1 489 q 0 521 0 513 q 3 527 1 528 l 4 527 q 12 524 4 527 l 13 524 l 14 527 l 14 528 q 7 531 14 530 q 6 536 6 535 q 22 573 6 554 q 26 592 26 581 q 25 625 26 604 q 59 675 26 640 l 79 707 q 164 799 95 725 l 182 798 q 251 846 213 825 q 281 857 272 857 l 281 857 q 283 854 281 857 l 282 852 l 294 849 q 298 850 298 849 l 298 852 q 297 861 298 855 l 300 863 q 302 861 301 861 l 303 861 l 302 865 l 302 866 q 322 870 302 868 q 328 872 322 871 l 328 875 l 328 877 q 330 878 328 878 q 352 876 344 877 l 357 876 q 368 881 360 876 l 371 880 l 376 874 l 380 873 l 385 873 q 406 879 399 872 q 414 885 410 883 q 426 884 422 884 q 434 888 431 886 q 460 887 450 888 z "},"d":{"ha":784,"x_min":0,"x_max":786,"o":"m 1 888 l 10 888 q 77 888 39 888 q 91 888 84 888 q 93 880 92 887 q 102 877 96 877 q 126 883 123 877 q 137 888 130 888 l 261 888 q 269 878 269 888 q 274 878 274 878 q 298 884 295 884 q 326 883 320 883 q 374 884 367 884 q 415 874 395 884 q 430 871 422 871 q 449 873 433 871 q 503 851 459 873 q 570 822 567 826 l 572 820 l 572 819 q 562 798 566 815 l 562 795 q 567 791 567 793 l 567 781 q 569 781 568 781 q 581 793 576 781 q 595 809 589 805 l 596 809 l 604 807 q 608 808 606 808 l 609 808 q 610 806 610 808 q 609 795 609 798 q 646 763 609 787 q 685 719 671 749 q 702 695 697 699 l 704 696 l 705 696 q 718 683 713 691 q 734 671 734 676 l 734 670 q 732 661 734 668 q 747 634 732 656 q 770 554 762 609 q 783 526 770 549 q 786 508 786 518 l 786 507 q 781 496 786 506 l 781 494 q 781 479 781 488 q 781 464 781 469 q 785 452 781 458 q 786 433 786 439 l 786 394 l 781 376 l 781 359 l 779 359 q 772 366 779 361 l 770 366 l 770 357 l 770 351 q 776 338 770 347 q 777 330 777 334 q 758 302 777 323 q 747 264 755 298 q 736 225 745 257 q 682 153 730 210 q 661 140 677 144 q 638 129 638 134 q 613 96 623 117 q 589 85 613 91 q 536 57 550 68 q 492 37 525 50 l 488 37 q 477 43 484 37 l 473 43 q 452 28 463 43 q 450 26 452 28 l 449 26 q 443 36 443 26 q 438 37 440 37 q 409 18 423 37 q 355 11 401 11 q 303 0 345 11 l 302 0 q 248 8 260 8 q 203 16 224 8 q 197 16 200 16 l 194 16 q 170 17 184 16 q 149 4 164 17 q 146 0 149 1 l 145 0 q 137 4 142 0 q 132 5 134 5 l 91 5 q 53 0 83 5 l 52 0 q 37 5 49 0 q 28 5 33 5 l 11 5 l 11 7 q 45 49 45 42 q 58 96 54 64 q 69 118 60 102 q 71 128 71 125 q 69 165 71 136 q 70 197 70 184 q 60 216 70 208 l 59 220 l 59 222 q 64 231 59 224 q 64 326 64 298 q 62 345 64 332 q 75 360 62 348 q 75 368 75 365 l 75 425 q 69 444 75 430 l 69 445 q 75 460 69 447 q 75 473 75 467 l 75 477 q 80 492 75 483 l 80 498 q 72 513 80 507 q 64 538 64 524 q 64 538 64 538 l 64 543 q 62 579 64 544 q 69 609 62 585 q 70 640 69 620 q 60 663 70 653 q 58 675 59 667 l 59 680 l 59 700 q 53 711 59 704 l 53 712 q 54 798 53 725 q 50 812 54 812 q 47 827 47 812 q 35 852 43 846 q 0 888 3 871 l 1 888 m 273 770 q 269 765 271 770 q 262 753 262 760 l 262 642 q 254 631 262 636 q 252 625 252 628 l 252 625 q 262 610 252 618 l 262 608 q 257 600 262 606 q 256 596 256 598 l 256 588 q 257 572 256 578 q 256 557 256 567 l 256 554 q 266 547 256 547 q 268 545 268 546 l 268 543 q 254 512 268 540 q 252 502 252 505 q 257 490 257 492 l 257 486 q 256 484 257 484 l 257 480 l 257 467 q 256 446 257 458 q 261 435 256 442 q 262 407 262 417 l 262 389 q 257 365 257 371 l 257 364 q 262 359 262 359 l 262 310 q 263 265 262 295 q 257 250 263 262 l 257 245 q 263 228 257 243 q 262 218 262 222 l 262 216 q 256 199 256 209 l 263 178 l 263 178 q 262 170 262 172 q 269 151 269 155 q 268 141 268 146 l 268 139 l 273 140 l 281 140 q 288 134 285 140 l 294 134 q 304 140 296 140 q 325 139 313 140 q 366 151 329 139 l 367 151 q 384 149 371 151 q 416 163 395 153 q 469 192 452 174 q 492 199 475 197 q 504 216 501 205 q 543 273 505 226 q 551 313 547 273 q 562 332 554 327 q 567 345 567 341 q 567 363 567 355 q 569 366 568 366 l 570 366 q 573 376 572 368 l 572 408 q 583 460 572 415 q 585 481 584 471 q 565 564 585 494 q 559 585 562 585 q 555 589 555 585 q 562 604 555 591 l 562 614 q 560 639 562 624 q 562 642 562 640 l 535 642 l 513 683 q 484 712 492 711 q 462 719 466 714 q 382 761 418 756 q 294 771 338 771 q 273 770 283 770 z "},"e":{"ha":697,"x_min":0,"x_max":697,"o":"m 357 892 q 437 880 385 880 l 448 880 q 469 880 455 880 q 476 875 473 875 l 478 875 q 482 880 479 875 l 515 880 q 522 882 519 880 l 539 882 q 546 880 542 880 l 569 880 q 578 882 570 880 l 591 882 q 601 880 595 880 l 604 880 q 607 880 606 880 q 610 877 610 880 l 614 877 q 621 882 616 877 q 628 882 625 882 l 661 882 q 663 878 663 882 q 663 851 663 866 q 663 823 663 836 q 660 812 663 818 l 661 810 q 660 804 660 805 q 665 787 660 796 q 665 785 665 787 q 661 713 662 713 q 645 730 661 713 q 601 752 625 747 q 558 755 581 755 q 511 753 515 753 l 507 753 q 497 767 504 762 q 483 753 496 767 l 473 753 q 452 750 456 753 q 441 751 447 750 q 404 750 420 750 q 379 745 379 747 l 372 745 q 349 752 366 745 q 337 751 341 751 l 317 751 q 283 747 283 751 q 276 709 276 729 l 276 705 q 281 656 276 688 l 281 654 q 279 652 281 653 l 275 653 q 270 614 273 650 q 267 587 268 614 l 267 583 q 277 578 267 581 l 277 577 q 280 549 277 574 q 293 547 283 549 q 318 547 309 547 q 325 538 318 547 q 344 545 333 545 q 372 544 345 545 q 388 548 378 544 l 389 548 q 414 545 408 545 q 432 550 417 545 q 465 547 458 548 q 518 563 492 547 q 551 573 539 573 q 553 572 553 573 q 536 536 550 559 q 534 531 534 533 q 576 507 545 517 l 579 507 q 587 509 585 509 q 614 492 589 509 l 643 477 l 643 475 q 603 453 641 471 l 586 440 q 580 448 582 447 l 578 448 q 562 438 575 448 q 533 420 541 430 l 531 421 l 531 420 q 552 374 545 394 q 551 374 551 374 q 525 384 548 374 q 492 393 503 393 l 491 393 l 465 390 l 459 390 q 451 396 453 390 q 446 397 450 396 q 395 393 422 394 q 380 397 394 393 q 355 388 368 390 l 353 388 l 339 393 q 281 386 281 389 q 275 355 281 382 l 275 348 q 281 300 275 336 l 281 297 q 273 287 281 294 l 273 272 l 271 249 l 271 248 q 272 249 271 249 l 273 248 l 273 177 q 271 166 273 173 l 271 139 q 329 148 323 148 q 372 140 335 140 l 380 140 q 387 146 387 140 l 391 146 q 469 140 454 140 q 502 146 479 140 q 519 137 517 137 l 519 137 q 525 142 521 137 l 551 140 q 582 152 572 140 l 585 152 q 600 146 589 152 l 601 146 q 659 159 650 154 q 695 178 665 160 l 696 178 q 697 168 697 174 q 684 79 697 159 l 684 78 q 688 66 688 68 l 688 65 q 680 18 680 45 q 677 3 680 3 l 677 3 q 600 13 631 13 q 583 15 600 14 q 553 13 572 13 q 551 22 551 19 l 547 22 q 541 16 542 16 q 509 17 511 17 q 477 3 480 3 q 466 2 474 2 q 427 18 462 2 q 410 10 412 10 l 407 10 q 340 16 366 12 l 336 15 q 247 6 247 10 q 218 1 222 1 l 215 2 l 213 1 q 199 7 208 2 q 135 9 175 7 l 130 9 q 119 6 121 6 q 90 9 107 9 l 88 9 q 82 9 85 9 q 0 0 66 9 l 0 1 q 45 49 18 11 q 61 76 61 71 l 61 84 q 74 105 61 93 l 75 110 q 69 130 69 121 q 75 189 75 182 q 70 261 70 254 l 70 264 q 72 283 70 267 l 72 288 l 67 310 l 70 323 q 64 337 70 323 l 64 342 q 66 362 64 350 q 64 389 65 371 q 78 395 78 393 q 79 401 79 397 l 79 410 q 82 473 79 426 q 83 507 83 490 q 75 524 83 515 q 75 530 75 525 l 77 573 l 78 573 q 77 574 78 574 l 78 577 q 71 598 78 589 q 70 604 70 601 q 74 658 74 650 q 70 676 73 665 q 73 697 73 692 q 70 708 70 707 l 75 732 l 75 732 q 67 747 67 738 l 67 757 q 68 770 67 764 q 52 835 68 795 q 25 871 47 852 q 17 883 17 881 l 26 886 q 77 882 60 882 q 88 882 84 882 q 167 882 119 882 q 239 886 179 882 q 264 876 251 886 q 279 873 270 874 q 314 875 299 875 q 332 874 330 874 q 352 890 340 874 l 357 892 z "},"f":{"ha":640,"x_min":0,"x_max":636,"o":"m 93 882 l 107 882 q 114 880 109 882 q 137 880 117 880 l 163 877 l 166 877 q 172 875 169 877 q 177 877 176 877 l 242 877 l 246 880 l 311 880 q 335 871 313 880 q 387 874 359 874 l 429 874 q 448 873 435 874 q 456 876 448 876 l 523 876 q 545 875 534 876 q 562 876 547 876 l 569 876 l 574 880 l 585 880 q 588 880 587 880 l 591 880 q 612 880 608 880 q 624 880 614 880 q 627 880 625 880 l 627 878 q 626 836 626 854 l 626 825 q 629 819 629 820 q 628 777 629 812 q 623 766 628 776 l 623 750 q 629 731 629 744 q 636 701 629 729 l 636 688 l 635 686 q 555 733 558 733 l 551 733 q 530 730 547 733 q 520 735 523 735 l 518 735 q 509 734 511 735 q 496 735 502 735 l 484 735 q 433 729 433 735 q 428 728 430 728 q 412 736 416 736 q 402 732 406 732 l 391 732 q 382 739 385 732 l 381 739 l 368 739 q 366 739 367 739 q 333 734 333 736 l 330 733 q 293 734 304 734 l 281 734 q 250 730 250 734 q 242 703 242 709 l 242 702 q 258 671 242 694 l 258 612 q 250 608 258 610 q 246 583 246 592 q 254 547 251 568 l 264 547 q 264 546 264 547 q 275 549 269 549 l 279 549 q 283 546 283 549 q 313 543 307 543 l 321 543 q 334 542 330 542 l 340 542 q 342 551 342 549 l 454 548 q 511 570 494 570 l 512 568 q 495 524 505 550 l 536 502 q 544 504 543 504 l 593 476 l 600 473 q 559 448 600 465 q 545 439 547 439 q 536 443 544 439 l 535 443 q 499 424 524 438 q 495 417 495 420 l 495 417 q 511 384 508 391 q 514 372 514 373 l 513 372 q 458 393 460 393 l 454 393 l 451 391 l 427 391 q 416 399 418 399 q 384 397 399 399 l 368 399 q 358 391 366 395 q 355 391 356 391 l 321 389 q 313 395 315 395 q 256 394 299 395 q 252 359 252 366 q 260 334 260 344 l 260 324 q 267 261 267 278 l 267 258 q 251 229 251 245 l 251 228 q 257 211 251 214 q 258 209 258 210 q 258 119 258 143 q 266 65 258 98 q 309 18 270 59 q 319 4 316 8 q 317 3 317 4 q 290 6 308 5 q 256 3 260 4 q 255 4 255 3 q 214 -1 253 4 q 205 -2 210 -1 l 203 -1 q 202 -2 202 -1 q 172 1 186 -1 q 139 -4 149 -4 l 131 -4 q 116 -3 127 -4 l 71 -10 l 69 -10 q 56 -4 67 -10 q 54 -3 56 -4 q 49 -5 52 -5 l 47 -5 q 19 0 39 -5 q 11 -2 16 0 q 1 1 1 0 q 33 37 27 25 q 45 55 37 47 q 68 132 64 129 l 70 146 q 61 216 61 210 q 75 237 75 229 l 75 239 q 70 246 75 243 q 73 312 71 256 q 77 317 74 312 l 77 318 q 60 349 77 323 q 62 359 62 356 l 62 376 q 64 425 62 391 q 62 440 62 432 l 62 452 q 64 461 62 458 q 62 485 62 471 q 71 518 62 498 q 75 547 75 533 q 73 557 75 548 q 62 561 62 559 q 65 627 65 597 q 58 686 65 661 l 58 688 q 65 759 65 705 q 60 788 60 776 q 54 802 54 801 l 54 805 l 55 809 q 47 823 55 811 q 39 833 43 833 q 18 854 36 833 q 0 875 5 867 q 33 878 10 878 l 57 878 q 64 877 60 878 q 71 878 67 878 l 82 878 q 84 877 83 878 q 93 882 87 877 z "}}}
